SplineFontDB: 3.2
FontName: SeriousShannsLightItalic
FullName: Serious Shanns Light Italic
FamilyName: Serious Shanns Light Italic
Weight: Light
Copyright: https://github.com/kaBeech/serious-sans/blob/main/LICENSE
Version: 6.0.0
ItalicAngle: -11.8
UnderlinePosition: 0
UnderlineWidth: 0
Ascent: 800
Descent: 200
InvalidEm: 0
sfntRevision: 0x00001999
LayerCount: 2
Layer: 0 0 "Back" 1
Layer: 1 0 "Fore" 0
XUID: [1021 329 -1817886000 6804199]
StyleMap: 0x0040
FSType: 4
OS2Version: 3
OS2_WeightWidthSlopeOnly: 0
OS2_UseTypoMetrics: 0
CreationTime: 1532631502
ModificationTime: 315532800
PfmFamily: 81
TTFWeight: 300
TTFWidth: 5
LineGap: 0
VLineGap: 0
Panose: 0 0 0 0 0 0 0 0 0 0
OS2TypoAscent: 613
OS2TypoAOffset: 0
OS2TypoDescent: -188
OS2TypoDOffset: 0
OS2TypoLinegap: 98
OS2WinAscent: 778
OS2WinAOffset: 0
OS2WinDescent: 308
OS2WinDOffset: 0
HheadAscent: 796
HheadAOffset: 0
HheadDescent: -317
HheadDOffset: 0
OS2SubXSize: 317
OS2SubYSize: 293
OS2SubXOff: 0
OS2SubYOff: 37
OS2SupXSize: 317
OS2SupYSize: 293
OS2SupXOff: 0
OS2SupYOff: 171
OS2StrikeYSize: 0
OS2StrikeYPos: 132
OS2CapHeight: 576
OS2XHeight: 485
OS2Vendor: 'NONE'
OS2CodePages: 00000001.00000000
OS2UnicodeRanges: 00000001.00000000.00000000.00000000
MarkAttachClasses: 1
DEI: 91125
LangName: 1033 "" "" "Normal" "FontForge 2.0 : Serious Shanns Light Italic : 11-6-2024" "" "Version 0.1.2"
Encoding: UnicodeBmp
Compacted: 1
UnicodeInterp: none
NameList: AGL For New Fonts
DisplaySize: -48
AntiAlias: 1
FitToEm: 0
WinInfo: 64 16 4
BeginPrivate: 0
EndPrivate
BeginChars: 65537 122

StartChar: .notdef
Encoding: 65536 -1 0
Width: 700
GlyphClass: 1
Flags: HMW
HStem: 688 20G<296 619 296 296>
LayerCount: 2
Fore
SplineSet
278 737 m 1
 651 737 l 1
 422 -255 l 1
 49 -255 l 1
 278 737 l 1
619 708 m 1
 296 708 l 1
 80 -226 l 1
 404 -226 l 1
 619 708 l 1
EndSplineSet
Validated: 1
EndChar

StartChar: exclam
Encoding: 33 33 11
Width: 700
GlyphClass: 2
Flags: HMW
HStem: -13 130<249.5 312.5>
VStem: 216 131<27.5 80.5>
LayerCount: 2
Fore
SplineSet
367 274 m 0
 363 262 357 253 348 247 c 0
 339 241 331 237 322 237 c 2
 319 237 l 2
 310 237 304 240 301 245 c 0
 299 247 298 250 298 254 c 0
 298 258 299 264 301 272 c 0
 304 281 307 290 311 300 c 0
 315 310 318 318 320 325 c 0
 322 332 325 347 331 371 c 0
 337 395 343 423 349 454 c 0
 355 485 361 515 368 544 c 0
 375 573 380 593 382 603 c 0
 384 613 390 634 399 668 c 0
 408 702 413 724 415 732 c 0
 419 747 426 759 434 766 c 0
 442 773 452 777 462 777 c 2
 465 777 l 2
 473 777 479 775 482 771 c 0
 484 769 485 764 485 759 c 0
 485 754 483 748 482 742 c 0
 481 736 469 691 448 609 c 0
 427 527 411 462 400 411 c 0
 389 360 382 330 379 320 c 0
 376 310 371 295 367 274 c 0
347 75 m 0
 347 70 346 64 345 57 c 0
 341 39 333 24 318 11 c 0
 303 -2 285 -10 264 -12 c 0
 262 -12 259 -13 257 -13 c 0
 242 -13 231 -7 224 3 c 0
 218 12 216 22 216 33 c 0
 216 38 217 44 218 51 c 0
 223 68 232 83 249 96 c 0
 268 110 286 117 305 117 c 0
 320 117 333 112 340 102 c 0
 345 95 347 86 347 75 c 0
EndSplineSet
Validated: 1
EndChar

StartChar: quotedbl
Encoding: 34 34 12
Width: 700
GlyphClass: 2
Flags: HMW
HStem: 448 323<229.5 318 234 318 312 383 312 384>
LayerCount: 2
Fore
SplineSet
318 771 m 2
 326 771 333 769 339 765 c 0
 340 763 342 760 343 756 c 0
 344 752 344 748 343 741 c 0
 337 714 326 669 310 607 c 0
 294 545 283 502 275 479 c 0
 271 468 265 461 257 456 c 0
 249 451 242 448 235 448 c 2
 234 448 l 2
 225 448 217 452 211 457 c 0
 209 459 207 462 207 466 c 0
 207 470 208 474 209 478 c 0
 220 512 231 556 242 609 c 0
 253 662 262 706 269 741 c 0
 270 748 273 753 276 757 c 0
 279 762 283 765 287 766 c 0
 296 769 305 771 312 771 c 2
 318 771 l 2
460 607 m 0
 445 545 433 502 425 479 c 0
 421 468 415 461 407 456 c 0
 399 451 391 448 384 448 c 2
 383 448 l 2
 374 448 366 452 360 457 c 0
 358 459 357 463 357 466 c 0
 357 469 358 473 359 478 c 0
 369 512 380 556 391 609 c 0
 402 662 411 706 418 741 c 0
 419 748 422 753 426 757 c 0
 430 761 433 765 437 766 c 0
 446 769 454 771 461 771 c 2
 467 771 l 2
 472 771 476 771 479 770 c 0
 482 769 486 767 489 765 c 0
 492 763 493 758 493 751 c 0
 493 743 482 695 460 607 c 0
EndSplineSet
Validated: 1
EndChar

StartChar: numbersign
Encoding: 35 35 13
Width: 700
GlyphClass: 2
Flags: HMW
HStem: 205 57<452 490 429 509> 457 60<353 463 329 487 353 571 353 528>
LayerCount: 2
Fore
SplineSet
233 203 m 1
 224 203 l 1
 192 126 170 74 158 47 c 0
 151 36 142 26 129 18 c 0
 120 13 112 10 106 10 c 0
 104 10 100 11 98 12 c 0
 94 12 92 14 91 16 c 0
 89 20 87 26 87 34 c 0
 87 44 89 55 95 67 c 0
 104 86 126 131 157 202 c 1
 110 202 l 2
 98 202 90 204 86 208 c 0
 84 210 81 214 81 217 c 0
 81 218 82 221 82 223 c 0
 84 232 89 241 96 247 c 0
 103 253 115 257 128 257 c 0
 133 257 140 258 150 258 c 0
 160 258 169 260 180 260 c 1
 262 456 l 1
 243 456 l 1
 205 455 l 1
 201 455 l 2
 191 455 184 457 181 461 c 0
 179 464 178 468 178 473 c 2
 178 480 l 2
 179 489 184 497 192 503 c 0
 200 509 210 514 223 514 c 2
 224 514 l 2
 236 514 255 515 279 515 c 2
 286 515 l 1
 352 677 l 2
 359 692 369 702 378 707 c 0
 385 710 390 712 395 712 c 0
 397 712 402 711 404 711 c 0
 413 709 419 705 421 698 c 0
 422 696 423 692 423 689 c 0
 423 683 420 675 416 666 c 2
 353 517 l 1
 487 517 l 1
 548 670 l 2
 555 685 563 695 573 700 c 0
 579 703 585 705 591 705 c 0
 593 705 596 704 599 704 c 0
 608 702 615 698 617 691 c 0
 617 689 618 686 618 684 c 0
 618 677 617 669 612 659 c 0
 599 633 579 586 553 519 c 1
 572 519 l 1
 582 519 l 2
 593 519 603 515 608 509 c 0
 613 504 615 500 615 495 c 0
 615 494 614 492 614 491 c 0
 612 482 606 473 599 467 c 0
 592 461 583 457 571 457 c 2
 528 457 l 1
 452 262 l 1
 509 262 l 2
 519 262 525 260 526 258 c 0
 528 254 529 248 528 239 c 0
 526 228 520 219 515 214 c 0
 509 208 501 205 490 205 c 2
 429 205 l 1
 398 124 377 70 365 43 c 0
 358 31 348 22 336 16 c 0
 328 12 321 10 315 10 c 0
 313 10 308 11 305 12 c 0
 299 13 296 18 295 25 c 0
 295 28 294 32 294 34 c 0
 294 43 297 52 302 63 c 0
 315 90 335 137 362 204 c 1
 343 204 l 1
 233 203 l 1
463 457 m 1
 329 457 l 1
 247 261 l 1
 285 262 329 263 377 263 c 2
 385 263 l 1
 410 323 436 387 463 457 c 1
EndSplineSet
Validated: 1
EndChar

StartChar: dollar
Encoding: 36 36 14
Width: 700
GlyphClass: 2
Flags: HMW
HStem: -17 60<231 265 241 265 245 265>
VStem: 210 63 476 69<235 287>
LayerCount: 2
Fore
SplineSet
187 -8 m 0
 170 -2 157 4 146 13 c 0
 125 31 111 52 104 76 c 0
 103 82 102 89 102 95 c 0
 102 101 104 107 106 112 c 0
 110 121 116 127 125 131 c 0
 132 134 138 137 141 137 c 0
 144 137 148 138 149 138 c 2
 154 138 l 2
 155 138 157 135 159 133 c 0
 161 131 165 125 168 118 c 0
 177 96 188 77 203 64 c 0
 218 50 238 43 263 43 c 2
 265 43 l 1
 273 43 l 1
 300 161 323 268 343 365 c 1
 332 366 323 368 317 369 c 0
 311 370 305 371 301 371 c 0
 283 373 268 378 255 387 c 0
 242 396 232 406 225 419 c 0
 215 438 210 458 210 480 c 0
 210 487 211 494 213 503 c 0
 218 526 226 548 237 569 c 0
 247 590 260 610 276 628 c 0
 292 646 312 661 334 674 c 0
 356 687 381 697 408 702 c 2
 415 704 l 1
 420 725 426 747 431 769 c 0
 434 784 439 795 445 803 c 0
 451 811 457 815 466 815 c 2
 468 815 l 2
 475 815 480 814 482 811 c 0
 484 808 485 803 485 797 c 0
 485 791 483 785 482 778 c 2
 468 711 l 1
 481 710 l 2
 494 710 512 706 534 700 c 0
 556 694 572 689 583 684 c 0
 590 681 595 676 597 670 c 0
 597 668 598 664 598 660 c 0
 598 656 596 651 594 644 c 0
 593 639 591 634 587 631 c 0
 583 628 579 626 576 626 c 2
 567 626 l 2
 561 626 555 627 549 629 c 0
 544 630 538 634 531 638 c 0
 524 642 515 646 504 649 c 0
 493 652 479 655 464 655 c 2
 455 656 l 1
 442 596 424 518 403 421 c 1
 415 419 l 2
 439 415 459 408 476 399 c 0
 494 389 507 378 517 366 c 0
 527 354 534 341 538 326 c 0
 542 311 545 295 545 279 c 0
 545 263 543 247 538 227 c 0
 531 198 521 170 505 144 c 0
 489 118 472 96 452 76 c 0
 432 56 411 40 388 26 c 0
 365 12 341 1 316 -6 c 2
 310 -8 l 1
 301 -52 295 -82 293 -96 c 0
 289 -107 283 -117 275 -123 c 0
 267 -129 259 -132 250 -132 c 2
 249 -132 l 2
 247 -132 244 -131 242 -131 c 0
 239 -129 237 -125 237 -118 c 0
 237 -113 238 -106 240 -97 c 0
 245 -81 251 -54 259 -17 c 1
 245 -17 l 1
 241 -17 l 2
 221 -17 204 -14 187 -8 c 0
287 468 m 0
 300 450 319 437 345 429 c 2
 356 426 l 1
 368 480 384 555 404 651 c 1
 386 645 l 2
 358 636 334 623 314 603 c 0
 294 583 281 560 276 533 c 0
 274 526 273 520 273 513 c 0
 273 496 278 481 287 468 c 0
476 241 m 0
 476 253 474 266 469 281 c 0
 465 294 457 306 445 317 c 0
 433 328 418 338 399 346 c 2
 387 352 l 1
 384 338 l 1
 384 338 373 287 352 188 c 0
 340 133 330 88 322 53 c 1
 342 62 l 2
 374 76 402 95 426 120 c 0
 450 145 465 173 472 205 c 0
 474 217 476 229 476 241 c 0
EndSplineSet
Validated: 1
EndChar

StartChar: percent
Encoding: 37 37 15
Width: 700
GlyphClass: 2
Flags: HMW
HStem: -16 52<384.5 420 393 420> 184 49<447.5 448.5> 444 51<252.5 287 261 287> 645 48<316.5 321>
VStem: 196 41<522.5 546.5> 328 41<63.5 86.5> 359 41<589.5 628> 490 35<99 143> 490 45<129.5 169>
LayerCount: 2
Fore
SplineSet
219 461 m 0xfa
 208 472 200 486 198 503 c 0
 197 510 196 518 196 527 c 0
 196 536 197 548 200 561 c 0
 209 600 225 631 248 656 c 0
 271 681 300 693 333 693 c 0
 359 693 378 683 390 664 c 0
 397 653 400 638 400 618 c 0
 400 601 397 581 391 559 c 0
 382 521 366 493 345 473 c 0
 324 453 297 444 262 444 c 2
 261 444 l 2
 244 444 230 450 219 461 c 0xfa
96 12 m 0
 118 44 162 104 227 192 c 2
 422 470 l 2
 488 563 534 629 560 670 c 0
 568 680 577 686 587 688 c 0
 590 688 594 689 596 689 c 0
 601 689 605 687 610 684 c 0
 613 683 615 681 616 680 c 0
 617 679 618 675 618 673 c 0
 618 665 614 654 603 641 c 0
 570 600 494 497 376 330 c 0
 261 163 182 51 140 -9 c 0
 131 -21 123 -29 116 -34 c 0
 111 -37 106 -39 102 -39 c 0
 98 -39 95 -38 92 -36 c 0
 89 -34 85 -31 84 -29 c 0
 83 -27 82 -24 82 -21 c 0
 82 -12 87 -1 96 12 c 0
285 495 m 2
 287 495 l 2
 304 495 318 501 329 514 c 0
 340 527 349 543 355 563 c 0
 357 574 359 585 359 594 c 0
 359 605 358 615 353 623 c 0
 344 638 331 645 311 645 c 0
 294 645 279 638 267 623 c 0
 256 610 247 592 241 570 c 0
 239 560 237 551 237 542 c 0
 237 533 238 526 241 519 c 0
 248 505 263 497 285 495 c 2
351 1 m 0
 340 12 333 26 330 43 c 0
 329 50 328 59 328 68 c 0xfc80
 328 77 330 88 332 101 c 0
 340 140 357 171 380 196 c 0
 403 221 431 233 464 233 c 0
 477 233 489 231 498 226 c 0
 508 221 517 214 524 204 c 0
 531 194 535 179 535 159 c 0
 535 142 532 122 525 100 c 1xfd
 525 99 l 1
 514 61 498 32 477 12 c 0
 456 -7 429 -16 396 -16 c 2
 393 -16 l 2
 376 -16 362 -10 351 1 c 0
417 36 m 2
 420 36 l 2
 436 36 450 42 461 55 c 0
 472 68 481 83 486 103 c 0
 488 114 490 125 490 134 c 0
 490 152 486 165 475 174 c 0
 466 181 455 184 442 184 c 0
 425 184 411 176 399 162 c 0
 387 149 378 131 373 110 c 0
 371 100 369 91 369 82 c 0
 369 73 371 66 374 59 c 0
 381 45 395 37 417 36 c 2
EndSplineSet
Validated: 1
EndChar

StartChar: ampersand
Encoding: 38 38 16
Width: 700
GlyphClass: 2
Flags: HMW
HStem: -29 69 657 55
VStem: 104 71<105.001 142.501> 282 64<541.001 542.001> 449 71<8.00098 34>
LayerCount: 2
Fore
SplineSet
516 5 m 0
 511 -11 504 -20.9990234375 496 -23.9990234375 c 0
 491 -25.9990234375 487 -27.9990234375 483 -27.9990234375 c 0
 478 -27.9990234375 474 -25.9990234375 470 -23.9990234375 c 0
 461 -17.9990234375 454 -6.9990234375 449 8.0009765625 c 0
 449 12.0009765625 447 22.0009765625 445 38.0009765625 c 0
 443 54.0009765625 441 65.0009765625 439 73.0009765625 c 2
 434 97.0009765625 l 1
 418 79.0009765625 l 2
 416 77.0009765625 411 70.0009765625 403 62.0009765625 c 2
 385 44.0009765625 l 2
 366 25.0009765625 353 13.0009765625 345 8.0009765625 c 0
 339 4.0009765625 331 0.0009765625 322 -5.9990234375 c 0
 313 -11.9990234375 304 -16.9990234375 296 -18.9990234375 c 0
 288 -20.9990234375 279 -23.9990234375 268 -25.9990234375 c 0
 257 -27.9990234375 247 -28.9990234375 237 -28.9990234375 c 0
 205 -28.9990234375 178 -19.9990234375 156 -2.9990234375 c 0
 134 14.0009765625 118 37.0009765625 110 66.0009765625 c 0
 106 81.0009765625 104 97.0009765625 104 113.000976562 c 0
 104 129.000976562 106 145.000976562 110 162.000976562 c 0
 138 284.000976562 203 367.000976562 307 411.000976562 c 2
 318 416.000976562 l 1
 302 460.000976562 293 486.000976562 291 491.000976562 c 0
 289 497.000976562 287 505.000976562 285 513.000976562 c 0
 283 521.000976562 282 528.000976562 282 533.000976562 c 0
 282 551.000976562 284 569.000976562 288 587.000976562 c 0
 293 609.000976562 304 632.000976562 322 653.000976562 c 0
 331 664.000976562 342 675.000976562 354 683.000976562 c 0
 366 691.000976562 381 698.000976562 399 704.000976562 c 0
 417 710.000976562 435 712.000976562 456 712.000976562 c 0
 473 712.000976562 489 710.000976562 503 704.000976562 c 0
 517 698.000976562 529 690.000976562 539 680.000976562 c 0
 549 670.000976562 555 657.000976562 559 640.000976562 c 0
 560.888671875 631.974609375 561.885742188 623.279296875 561.885742188 614.020507812 c 0
 561.885742188 603.668945312 560.639648438 592.61328125 558 581 c 0
 553 561 546 542 537 525 c 0
 528 508 519 493 509 481 c 0
 499 469 487 458 473 447 c 0
 459 436 446 427 435 421 c 0
 424 415 412 409 397 402 c 2
 388 397 l 1
 391 387 l 2
 398 366 410 335 427 294 c 0
 444 253 455 227 460 214 c 2
 468 191 l 1
 483 213 495 232 503 244 c 0
 511 256 518 266 523 273 c 0
 528 280 532 286 534 289 c 0
 548 305 559 315 568 318 c 0
 570 319 574 320 576 320 c 0
 580 320 584 318 589 316 c 0
 594 313 596 307 596 300 c 0
 596 287 589 272 578 255 c 0
 574 249 562 236 542 215 c 0
 522 194 503 174 486 153 c 1
 491 137 498 116 505 93 c 0
 512 70 516 55 517 50 c 0
 518 45 520 38 520 30 c 0
 520 22 518 14 516 5 c 0
435 657.000976562 m 0
 410 657.000976562 390 648.000976562 375 631.000976562 c 0
 363 617.000976562 354 598.000976562 349 575.000976562 c 0
 347 566.000976562 346 556.000976562 346 546.000976562 c 0
 346 536.000976562 347 526.000976562 349 515.000976562 c 0
 352 493.000976562 359 474.000976562 368 458.000976562 c 2
 373 450.000976562 l 1
 383 453.000976562 l 2
 398 458.000976562 412 463.000976562 423 468.000976562 c 0
 434 473.000976562 445 480.000976562 456 489.000976562 c 0
 467 498.000976562 477 508.000976562 484 521.000976562 c 0
 491 534.000976562 497 550.000976562 501 567.000976562 c 0
 503 576.000976562 505 585.000976562 505 593.000976562 c 0
 505 610.000976562 500 623.000976562 491 634.000976562 c 0
 477 649.000976562 458 657.000976562 435 657.000976562 c 0
188 82.0009765625 m 0
 203 54.0009765625 228 40.0009765625 261 40.0009765625 c 0
 276 40.0009765625 293 43.0009765625 313 49.0009765625 c 0
 320 51.0009765625 328 56.0009765625 336 61.0009765625 c 0
 344 66.0009765625 349 69.0009765625 354 72.0009765625 c 0
 359 75.0009765625 364 80.0009765625 371 87.0009765625 c 0
 378 94.0009765625 384 99.0009765625 386 102.000976562 c 0
 388 105.000976562 393 109.000976562 399 116.000976562 c 0
 405 123.000976562 409 127.000976562 410 128.000976562 c 2
 415 133.000976562 l 1
 409 163.000976562 404 186.000976562 400 201.000976562 c 0
 395 217.000976562 385 242.000976562 371 277.000976562 c 0
 357 312.000976562 347 337.000976562 341 354.000976562 c 2
 336 366.000976562 l 1
 324 361.000976562 l 2
 303 352.000976562 284 341.000976562 267 327.000976562 c 0
 250 313.000976562 236 298.000976562 225 282.000976562 c 0
 214 266.000976562 205 249.000976562 198 232.000976562 c 0
 191 215.000976562 186 197.000976562 181 177.000976562 c 0
 177 162.000976562 175 149.000976562 175 136.000976562 c 0
 175 115.000976562 179 97.0009765625 188 82.0009765625 c 0
EndSplineSet
Validated: 1
EndChar

StartChar: quotesingle
Encoding: 39 39 17
Width: 700
GlyphClass: 2
Flags: HMW
HStem: 458 302<310 389 310 389>
LayerCount: 2
Fore
SplineSet
390 760 m 2
 398 760 405 758 411 754 c 0
 412 753 414 750 415 746 c 0
 416 742 415 737 414 730 c 0
 408 704 399 663 385 608 c 0
 371 553 360 513 352 490 c 0
 348 479 342 470 334 465 c 0
 326 460 319 458 312 458 c 2
 310 458 l 2
 300 459 292 463 287 468 c 0
 285 470 284 473 284 477 c 0
 284 481 285 484 286 489 c 0
 296 524 306 563 316 609 c 0
 326 655 335 696 342 731 c 0
 342 737 344 743 348 747 c 0
 352 751 356 754 360 755 c 0
 369 758 377 760 384 760 c 2
 389 760 l 1
 390 760 l 2
EndSplineSet
Validated: 1
EndChar

StartChar: parenleft
Encoding: 40 40 18
Width: 700
GlyphClass: 2
Flags: HMW
HStem: -119 60<285.5 328> 745 57<493.5 526.5>
VStem: 158 71<140.5 147.5>
LayerCount: 2
Fore
SplineSet
324 -59 m 0
 332 -59 337 -61 339 -64 c 0
 340 -65 342 -67 342 -71 c 0
 342 -75 340 -81 339 -90 c 0
 337 -98 333 -104 325 -110 c 0
 317 -116 310 -119 304 -119 c 0
 267 -119 236 -105 212 -76 c 0
 187 -45 171 -3 163 52 c 0
 160 77 158 103 158 130 c 0
 158 165 160 203 166 244 c 0
 173 293 189 356 213 433 c 0
 237 510 263 574 292 623 c 0
 305 644 320 666 338 687 c 0
 356 708 375 727 396 744 c 0
 417 761 439 775 461 786 c 0
 483 797 503 802 523 802 c 0
 530 802 535 801 537 799 c 0
 539 797 541 793 541 788 c 0
 541 785 541 781 540 776 c 0
 538 765 533 757 526 752 c 0
 519 747 512 745 503 745 c 0
 484 745 467 740 449 729 c 0
 431 718 414 703 399 685 c 0
 370 651 345 609 323 558 c 0
 306 523 289 475 272 414 c 0
 255 353 244 304 238 268 c 0
 232 232 229 197 229 164 c 0
 229 117 234 76 243 41 c 0
 250 12 261 -11 274 -29 c 0
 289 -49 305 -59 324 -59 c 0
EndSplineSet
Validated: 1
EndChar

StartChar: parenright
Encoding: 41 41 19
Width: 700
GlyphClass: 2
Flags: HMW
HStem: -119 60<191.5 195.5> 745 57<373.5 403.5>
VStem: 476 65<551.5 571>
LayerCount: 2
Fore
SplineSet
541 571 m 0
 541 532 537 488 530 438 c 0
 519 361 505 298 489 250 c 0
 466 177 438 113 404 57 c 0
 370 1 334 -42 294 -73 c 0
 254 -104 215 -119 176 -119 c 0
 171 -119 166 -117 162 -112 c 0
 160 -110 159 -106 159 -102 c 2
 159 -96 l 2
 162 -81 167 -71 173 -66 c 0
 179 -61 187 -59 196 -59 c 0
 213 -59 233 -50 255 -31 c 0
 276 -14 296 10 317 38 c 0
 338 66 357 99 377 139 c 0
 397 179 412 218 425 259 c 0
 437 297 449 348 460 410 c 0
 471 472 476 522 476 560 c 0
 476 582 475 603 472 624 c 0
 469 645 464 663 457 682 c 0
 450 701 440 716 426 728 c 0
 412 740 396 745 377 745 c 0
 370 745 364 747 360 751 c 0
 358 753 357 755 357 759 c 0
 357 763 358 768 359 773 c 0
 360 778 363 784 366 788 c 0
 369 792 372 795 374 796 c 0
 381 800 387 802 394 802 c 0
 413 802 431 797 448 787 c 0
 465 777 479 764 491 747 c 0
 503 730 514 711 522 690 c 0
 530 669 536 648 538 627 c 0
 540 610 541 592 541 571 c 0
EndSplineSet
Validated: 1
EndChar

StartChar: asterisk
Encoding: 42 42 20
Width: 700
GlyphClass: 2
Flags: HMW
HStem: 305 80<149.5 172> 313 71<538 558.5> 319 52<441.5 451.5 400 469>
VStem: 268 62 368 66<145 173>
LayerCount: 2
Fore
SplineSet
394 129 m 0x98
 387 129 381 131 376 134 c 0
 374 135 371 137 370 139 c 0
 369 141 368 144 368 146 c 0
 367 173 360 213 347 264 c 2
 340 290 l 1
 325 268 l 2
 281 206 253 165 242 145 c 0
 239 139 234 134 229 131 c 0
 224 129 218 126 213 126 c 2
 207 126 l 2
 205 126 201 126 197 127 c 0
 193 128 188 130 186 132 c 0
 184 134 181 137 180 141 c 0
 179 145 178 148 178 151 c 2
 178 159 l 2
 178 166 182 173 188 182 c 2
 292 312 l 1
 265 311 l 2
 214 307 176 305 152 305 c 0
 147 305 142 307 139 308 c 0
 136 309 133 312 131 315 c 0
 128 320 126 325 126 331 c 2
 128 341 l 2
 128 346 130 351 132 356 c 0
 139 369 146 378 155 382 c 0
 160 384 164 385 169 385 c 2
 172 385 l 2
 200 383 247 379 314 374 c 1
 308 391 l 2
 293 440 279 477 268 503 c 0
 266 509 265 515 265 521 c 0
 265 527 266 534 268 540 c 0
 272 551 278 559 286 562 c 0
 292 566 298 568 304 568 c 0
 309 568 315 566 320 562 c 0
 325 558 329 552 330 545 c 0
 333 529 344 483 364 406 c 1
 380 426 l 2
 415 471 443 509 463 540 c 0
 468 549 475 556 482 560 c 0
 489 564 496 566 501 566 c 0
 506 566 511 564 514 561 c 2
 515 561 l 2
 517 560 520 557 521 552 c 0
 521 550 522 546 522 543 c 0
 522 530 518 518 508 507 c 0
 481 476 449 437 414 390 c 2
 400 371 l 1x38
 424 371 l 2
 479 371 520 375 546 382 c 0
 550 383 554 384 556 384 c 0x58
 561 384 565 381 567 378 c 0
 571 373 574 367 574 362 c 0
 574 357 572 350 568 341 c 0
 561 328 554 319 546 315 c 0
 544 314 541 313 539 313 c 0
 537 313 535 314 534 314 c 0
 518 317 490 319 448 319 c 0x38
 435 319 416 318 391 318 c 1
 432 187 l 2
 433 182 434 176 434 170 c 0
 434 164 433 159 431 154 c 0
 428 145 423 138 417 134 c 0
 411 130 403 129 394 129 c 0x98
EndSplineSet
Validated: 1
EndChar

StartChar: plus
Encoding: 43 43 21
Width: 700
GlyphClass: 2
Flags: HMW
HStem: 370 59<301 330 301 330>
LayerCount: 2
Fore
SplineSet
207 369 m 2
 196 369 188 371 186 376 c 0
 184 379 182 383 182 388 c 0
 182 390 183 394 183 397 c 0
 185 407 190 415 197 422 c 0
 204 428 212 431 223 431 c 2
 226 431 l 2
 269 430 300 429 320 429 c 2
 330 429 l 1
 339 469 348 508 355 547 c 0
 356 557 360 565 365 570 c 0
 372 577 381 580 393 580 c 2
 396 580 l 2
 403 580 409 578 413 575 c 0
 414 574 415 571 415 567 c 0
 415 563 414 559 412 553 c 0
 401 514 391 472 380 427 c 1
 498 427 l 2
 508 427 514 425 515 423 c 0
 516 421 518 418 518 413 c 0
 518 406 516 398 513 391 c 0
 511 387 508 383 505 379 c 0
 500 373 493 370 484 370 c 2
 484 370 482 371 480 371 c 0
 470 371 456 372 436 372 c 0
 416 372 393 371 366 371 c 1
 361 347 355 323 350 298 c 0
 345 273 341 258 340 253 c 0
 337 240 332 232 327 227 c 0
 321 223 314 220 306 220 c 0
 299 220 294 221 291 223 c 0
 288 225 287 229 287 235 c 0
 287 239 287 243 288 248 c 2
 316 370 l 1
 301 370 l 1
 207 369 l 2
EndSplineSet
Validated: 1
EndChar

StartChar: comma
Encoding: 44 44 22
Width: 700
GlyphClass: 2
Flags: HMW
VStem: 233 234
LayerCount: 2
Fore
SplineSet
233 -185 m 2
 233 -182 l 2
 233 -176 236 -169 243 -161 c 0
 261 -140 290 -95 329 -27 c 0
 368 41 393 89 404 116 c 0
 406 123 412 129 418 133 c 0
 424 137 430 139 435 139 c 2
 436 139 l 2
 442 139 448 138 453 137 c 0
 458 135 463 131 465 125 c 0
 466 123 467 120 467 117 c 0
 467 114 465 108 463 101 c 0
 450 68 425 19 389 -48 c 0
 353 -115 328 -157 314 -172 c 0
 302 -185 289 -195 274 -200 c 0
 266 -202 259 -204 253 -204 c 0
 250 -204 246 -203 244 -202 c 0
 241 -201 238 -198 236 -196 c 0
 234 -193 233 -189 233 -185 c 2
EndSplineSet
Validated: 1
EndChar

StartChar: hyphen
Encoding: 45 45 23
Width: 700
GlyphClass: 2
Flags: HMW
HStem: 255 62<232.5 272.5> 264 56<442 469.5>
LayerCount: 2
Fore
SplineSet
255 317 m 0x80
 290 317 332 317 381 318 c 0
 430 319 458 320 465 320 c 0x40
 474 320 480 318 482 316 c 0
 484 312 485 306 484 298 c 0
 482 287 476 278 471 273 c 0
 465 267 457 264 446 264 c 0
 438 264 406 262 351 259 c 0
 296 256 257 255 236 255 c 0
 229 255 223 256 220 258 c 0
 217 260 216 264 216 270 c 0
 216 274 217 278 218 283 c 0
 219 294 223 303 228 308 c 0
 235 314 244 317 255 317 c 0x80
EndSplineSet
Validated: 1
EndChar

StartChar: period
Encoding: 46 46 24
Width: 700
GlyphClass: 2
Flags: HMW
HStem: -2 130<316.5 380.5 324 380.5>
VStem: 284 131<37.5 90.5>
LayerCount: 2
Fore
SplineSet
415 85 m 0
 415 80 414 74 413 68 c 0
 409 49 401 34 386 21 c 0
 371 8 353 0 332 -2 c 2
 324 -2 l 2
 309 -2 299 3 292 13 c 0
 287 22 284 32 284 43 c 0
 284 49 285 55 286 61 c 0
 290 79 301 94 318 107 c 0
 337 121 354 128 373 128 c 0
 388 128 400 123 407 113 c 0
 412 105 415 96 415 85 c 0
EndSplineSet
Validated: 1
EndChar

StartChar: slash
Encoding: 47 47 25
Width: 700
GlyphClass: 2
Flags: W
LayerCount: 2
Fore
SplineSet
45 -31 m 0
 45 -28 46 -24 46 -20 c 0
 48 -3 56 12 67 27 c 0
 195 187 305 329 398 454 c 0
 457 530 520 617 587 714 c 0
 594 723 600 730 608 734 c 0
 616 738 623 741 629 741 c 0
 635 741 640 739 646 737 c 0
 652 733 656 727 656 719 c 0
 656 710 649 698 640 683 c 0
 616 649 552 566 447 433 c 0
 342 300 278 218 255 185 c 0
 240 164 216 129 182 80 c 0
 148 31 127 1 119 -10 c 0
 106 -27 91 -38 76 -45 c 0
 69 -47 64 -49 60 -49 c 0
 56 -49 52 -48 50 -46 c 2
 49 -46 l 2
 47 -44 45 -38 45 -31 c 0
EndSplineSet
Validated: 1
EndChar

StartChar: zero
Encoding: 48 48 26
Width: 700
GlyphClass: 2
Flags: HMW
HStem: -12 60<266 266.5> 649 57<425 426>
VStem: 118 77<133.5 211>
LayerCount: 2
Fore
SplineSet
129 211 m 0
 130 218 133 235 139 261 c 0
 145 287 150 308 154 324 c 0
 158 340 164 361 171 388 c 0
 178 415 185 438 191 458 c 0
 197 478 205 500 215 522 c 0
 225 544 234 565 243 582 c 0
 265 623 293 653 328 674 c 0
 363 695 403 706 447 706 c 0
 469 706 490 702 508 693 c 0
 526 684 541 671 553 655 c 0
 565 639 573 618 578 591 c 0
 580 578 581 564 581 548 c 0
 581 532 579 516 577 496 c 0
 572 463 564 425 555 383 c 0
 546 341 535 298 523 256 c 0
 511 214 500 181 489 159 c 0
 469 117 449 82 429 57 c 0
 420 45 412 34 401 26 c 0
 390 18 380 11 370 6 c 0
 360 1 349 -3 337 -5 c 0
 325 -7 313 -10 301 -11 c 0
 289 -12 275 -12 258 -12 c 0
 233 -12 210 -7 189 3 c 0
 168 13 153 27 141 46 c 0
 129 65 121 88 119 116 c 0
 119 123 118 130 118 137 c 0
 118 159 122 184 129 211 c 0
331 616 m 0
 308 594 287 559 267 511 c 0
 260 494 253 473 247 451 c 0
 241 429 234 402 227 370 c 0
 220 338 215 315 213 302 c 2
 199 232 l 2
 199 230 197 226 197 221 c 0
 197 216 195 212 195 210 c 2
 180 160 l 1
 216 198 l 1
 318 321 413 447 504 576 c 1
 509 581 l 1
 506 588 l 2
 497 608 485 622 469 633 c 0
 454 644 436 649 416 649 c 0
 383 649 354 638 331 616 c 0
319 53 m 0
 332 56 346 61 359 70 c 0
 386 86 409 117 430 162 c 0
 434 171 441 194 451 230 c 0
 462 266 474 307 486 354 c 0
 498 401 506 446 513 489 c 2
 521 542 l 1
 491 498 l 1
 398 352 301 230 197 131 c 1
 192 127 l 1
 193 120 l 2
 198 93 209 74 226 62 c 0
 239 53 256 48 276 48 c 0
 292 48 306 50 319 53 c 0
EndSplineSet
Validated: 1
EndChar

StartChar: one
Encoding: 49 49 27
Width: 700
GlyphClass: 2
Flags: HMW
HStem: 3 67
LayerCount: 2
Fore
SplineSet
553 47 m 2
 553 40 l 2
 551 29 546 21 539 14 c 0
 532 7 521 3 506 3 c 0
 303 5 188 7 166 7 c 0
 157 7 152 9 150 13 c 0
 148 16 146 19 146 23 c 0
 146 27 148 31 148 35 c 0
 150 46 153 55 160 62 c 0
 167 69 176 72 187 72 c 0
 215 72 263 71 330 70 c 1
 337 103 343 129 345 146 c 0
 345 151 348 168 354 197 c 2
 368 262 l 2
 370 275 377 300 385 336 c 0
 393 372 400 399 404 417 c 0
 419 481 434 549 454 620 c 1
 427 598 l 2
 380 558 346 534 326 525 c 0
 324 524 322 523 320 523 c 0
 316 523 311 527 307 532 c 0
 302 539 301 545 301 551 c 0
 301 553 302 555 302 557 c 0
 303 566 306 574 311 581 c 0
 316 588 323 595 334 604 c 0
 353 619 372 636 393 653 c 2
 440 692 l 2
 451 699 461 705 470 710 c 0
 479 715 486 718 491 718 c 0
 500 718 509 713 518 704 c 0
 525 697 530 691 530 686 c 2
 530 685 l 1
 530 685 516 633 489 529 c 0
 462 430 447 373 444 357 c 0
 430 290 418 234 409 190 c 0
 404 165 396 124 387 67 c 1
 412 67 446 66 486 65 c 0
 508 65 523 64 529 64 c 0
 535 64 541 63 544 62 c 0
 547 61 550 59 550 58 c 0
 552 56 553 52 553 47 c 2
EndSplineSet
Validated: 1
EndChar

StartChar: two
Encoding: 50 50 28
Width: 700
GlyphClass: 2
Flags: HMW
HStem: -5 59 0 64<455 461> 650 60<434.5 446.5>
VStem: 527 68<578.5 582>
LayerCount: 2
Fore
SplineSet
277 -5 m 0xb0
 250 -6 221 -7 190 -7 c 0
 159 -7 135 -6 118 -4 c 0
 114 -4 112 -1 110 1 c 0
 107 5 104 12 104 23 c 0
 104 38 109 57 114 81 c 0
 121 108 132 137 150 167 c 0
 168 197 191 227 220 256 c 0
 247 284 274 307 303 324 c 0
 372 365 419 393 440 409 c 0
 469 431 491 456 504 482 c 0
 511 496 518 514 523 536 c 0
 525 549 527 560 527 571 c 0
 527 593 521 610 509 623 c 0
 492 641 464 650 429 650 c 0
 405 650 382 642 357 625 c 0
 332 608 312 590 296 569 c 0
 283 553 273 544 267 544 c 2
 263 544 l 2
 262 544 260 544 258 545 c 0
 256 546 251 549 246 551 c 0
 241 554 240 559 240 566 c 0
 240 572 246 584 255 603 c 0
 262 615 272 627 285 639 c 0
 298 651 313 662 330 673 c 0
 347 684 366 693 386 700 c 0
 406 707 425 710 444 710 c 0
 506 710 548 695 573 664 c 0
 588 645 595 620 595 588 c 0
 595 569 593 548 588 525 c 0
 575 472 552 430 520 398 c 0
 496 374 458 347 407 318 c 0
 391 308 371 296 344 281 c 0
 314 265 287 246 265 223 c 0
 243 200 226 176 213 151 c 0
 200 127 188 101 180 73 c 2
 176 58 l 1
 223 56 263 54 296 54 c 0
 321 54 340 55 356 56 c 0
 372 57 385 58 396 59 c 0
 407 60 426 62 455 64 c 2x70
 464 64 l 2
 468 64 472 65 476 65 c 0
 480 65 484 64 486 64 c 0
 487 63 489 61 491 60 c 2
 491 56 l 1
 491 52 l 2
 491 45 489 37 486 29 c 0
 483 21 477 14 471 8 c 0
 467 3 463 0 459 0 c 0
 419 0 360 -1 277 -5 c 0xb0
EndSplineSet
Validated: 1
EndChar

StartChar: three
Encoding: 51 51 29
Width: 700
GlyphClass: 2
Flags: HMW
HStem: -12 60<281.5 303.5> 330 76<311.5 332> 650 60<409.5 423.5>
VStem: 449 74<214.5 271> 511 69<584.5 585.5>
LayerCount: 2
Fore
SplineSet
516 201 m 0xf0
 501 136 471 84 427 45 c 0
 385 7 334 -12 273 -12 c 0
 254 -12 236 -9 218 -2 c 0
 200 4 185 12 172 22 c 0
 159 32 148 44 139 56 c 0
 130 68 124 80 122 91 c 0
 121 96 120 101 120 107 c 0
 120 113 122 119 124 125 c 0
 129 135 135 142 143 146 c 0
 151 150 158 152 163 152 c 0
 165 152 168 151 170 151 c 0
 177 149 182 143 187 132 c 0
 196 110 210 90 230 73 c 0
 248 56 269 48 294 48 c 0
 330 48 362 60 390 84 c 0
 418 108 437 140 445 179 c 0
 447 194 449 208 449 221 c 0
 449 248 443 271 428 289 c 0
 406 316 363 330 301 330 c 0
 298 330 294 332 292 333 c 0
 290 334 287 337 285 341 c 0
 282 346 280 352 280 359 c 0
 280 361 281 365 281 368 c 0
 283 380 288 389 294 396 c 0
 300 403 307 406 316 406 c 0
 365 406 406 418 439 442 c 0
 475 466 498 501 507 546 c 0
 509 557 511 566 511 575 c 0xe8
 511 596 504 612 489 625 c 0
 469 642 442 650 405 650 c 0
 393 650 380 647 366 642 c 0
 361 640 355 636 349 632 c 0
 343 628 338 624 335 622 c 0
 332 620 328 614 322 608 c 2
 309 595 l 2
 307 593 303 587 298 580 c 0
 287 567 278 560 271 558 c 0
 269 558 267 557 265 557 c 0
 260 557 256 559 251 562 c 0
 249 564 246 566 245 568 c 0
 244 570 244 574 244 577 c 0
 244 588 249 600 258 615 c 0
 273 640 294 662 320 680 c 0
 333 689 349 697 366 702 c 0
 383 707 400 710 419 710 c 0
 483 710 529 695 555 666 c 0
 572 648 580 624 580 593 c 0
 580 576 577 556 572 535 c 0
 568 516 562 500 554 485 c 0
 546 470 537 458 527 448 c 0
 517 438 506 429 493 421 c 0
 480 413 468 408 456 403 c 0
 445 398 433 394 420 392 c 2
 372 381 l 1
 420 368 l 2
 441 363 458 356 472 348 c 0
 486 340 498 330 507 317 c 0
 518 302 523 283 523 259 c 0
 523 242 521 222 516 201 c 0xf0
EndSplineSet
Validated: 1
EndChar

StartChar: four
Encoding: 52 52 30
Width: 700
GlyphClass: 2
Flags: HMW
HStem: 236 55<319.5 424 411 412>
VStem: 368 50 368 63<17 62 19 62>
LayerCount: 2
Fore
SplineSet
375 -1 m 0xa0
 370 5 368 11 368 17 c 2
 368 19 l 1
 373 40 381 78 392 134 c 2
 412 236 l 1
 360 236 l 2
 279 236 219 232 178 223 c 0
 174 223 170 222 167 222 c 0
 164 222 160 222 158 223 c 0
 154 225 151 228 149 231 c 0
 147 238 145 246 145 255 c 0
 145 260 147 266 148 274 c 0
 149 282 152 290 156 297 c 0
 167 315 190 345 227 387 c 0
 262 429 304 480 354 542 c 0
 404 604 442 650 466 679 c 0
 476 690 486 699 496 705 c 0
 506 711 515 713 522 713 c 2
 523 713 l 1
 529 713 l 2
 536 713 543 711 548 708 c 0
 553 705 555 699 555 691 c 2
 555 691 554 689 554 688 c 0
 553 665 547 629 538 581 c 0
 529 533 521 491 514 458 c 2
 478 291 l 1
 499 291 516 290 529 290 c 0
 539 290 545 287 547 285 c 0
 549 281 549 275 548 267 c 0
 546 256 541 247 536 242 c 0
 530 235 522 232 510 232 c 0
 498 232 483 233 466 234 c 1
 444 129 431 69 431 55 c 0
 431 36 426 20 418 7 c 0xc0
 411 -5 403 -11 394 -11 c 0
 387 -11 381 -8 375 -1 c 0xa0
493 640 m 1
 465 610 l 1
 356 481 278 380 232 308 c 2
 218 287 l 1
 243 289 l 2
 275 291 314 292 358 292 c 0
 376 292 398 291 424 291 c 1
 453 423 473 526 486 600 c 2
 493 640 l 1
EndSplineSet
Validated: 1
EndChar

StartChar: five
Encoding: 53 53 31
Width: 700
GlyphClass: 2
Flags: HMW
HStem: -6 60<253.5 270.5> 433 64<375 435.5> 633 62<542.5 600.5 585 600.5> 639 61
VStem: 468 70<327 379.5>
LayerCount: 2
Fore
SplineSet
531 299 m 0xd8
 520 250 504 207 484 168 c 0
 465 129 443 97 420 72 c 0
 397 47 371 27 343 14 c 0
 315 1 286 -6 255 -6 c 0
 231 -6 208 -3 188 3 c 0
 167 9 151 17 139 26 c 0
 127 35 119 45 112 56 c 0
 105 67 99 78 96 89 c 0
 95 96 95 102 95 108 c 0
 95 114 95 121 97 126 c 0
 101 134 108 140 117 145 c 0
 128 150 136 152 140 152 c 0
 141 152 143 151 145 151 c 0
 147 151 150 150 151 148 c 0
 153 144 156 138 159 131 c 0
 170 103 186 83 207 70 c 0
 224 59 243 54 264 54 c 0
 309 54 351 75 387 117 c 0
 422 159 447 213 462 282 c 0
 466 302 468 319 468 335 c 0
 468 356 464 374 457 389 c 0
 450 405 440 417 425 424 c 0
 413 430 399 433 383 433 c 0
 367 433 350 430 333 426 c 0
 323 424 311 418 295 409 c 0
 291 407 285 403 278 398 c 0
 271 393 266 389 264 387 c 0
 262 385 253 376 238 363 c 0
 227 354 214 348 200 347 c 0
 199 347 198 346 197 346 c 0
 192 346 187 348 182 350 c 0
 175 353 172 364 172 383 c 0
 172 396 174 412 178 432 c 0
 182 452 187 473 193 494 c 0
 199 515 206 538 213 563 c 0
 220 588 224 606 226 619 c 1
 225 623 l 2
 223 627 222 632 222 638 c 0
 222 640 223 644 223 646 c 0
 223 656 226 665 230 673 c 0
 234 681 238 687 244 692 c 0
 250 697 256 700 261 700 c 0
 282 700 330 699 408 698 c 0
 489 697 552 696 596 696 c 0
 597 696 599 695 600 695 c 0xe8
 601 695 602 693 602 692 c 0
 604 687 606 682 606 676 c 2
 606 672 l 2
 606 664 603 657 601 650 c 0
 600 647 598 644 597 642 c 0
 596 640 594 637 592 636 c 0
 590 635 588 633 586 633 c 0
 584 633 580 631 577 631 c 2
 570 631 l 2
 569 631 565 632 560 632 c 0
 555 632 550 633 545 633 c 0
 540 633 527 634 506 636 c 0
 485 638 466 640 450 641 c 0
 434 642 413 643 384 643 c 0
 355 643 321 641 284 639 c 1
 281 626 276 604 268 572 c 0
 260 540 255 517 252 502 c 0
 249 487 243 454 233 403 c 1
 258 430 l 2
 278 450 301 465 330 478 c 0
 359 491 391 497 424 497 c 0
 447 497 467 492 483 482 c 0
 501 473 512 459 521 442 c 0
 532 421 538 395 538 364 c 0
 538 343 536 321 531 299 c 0xd8
EndSplineSet
Validated: 1
EndChar

StartChar: six
Encoding: 54 54 32
Width: 700
GlyphClass: 2
Flags: HMW
HStem: -10 60<271.5 306> 405 64<369.5 436.5>
VStem: 138 58<186.5 192> 481 71<299 358>
LayerCount: 2
Fore
SplineSet
540 248 m 0
 532 213 518 178 499 146 c 0
 480 114 459 86 436 64 c 0
 415 42 392 23 366 10 c 0
 340 -3 314 -10 288 -10 c 0
 255 -10 226 -3 203 12 c 0
 180 27 164 48 154 75 c 0
 144 102 138 134 138 171 c 0
 138 213 145 260 158 313 c 0
 171 370 188 421 209 465 c 0
 230 509 252 547 274 578 c 0
 295 609 319 635 345 656 c 0
 371 677 399 693 427 704 c 0
 457 715 490 722 527 725 c 2
 534 725 l 2
 543 725 551 723 556 720 c 0
 558 719 559 716 560 714 c 0
 561 712 562 709 562 708 c 2
 562 704 l 2
 562 699 557 692 548 684 c 0
 539 676 531 670 522 668 c 0
 515 667 504 664 489 661 c 0
 474 658 461 654 450 651 c 0
 440 648 428 643 415 637 c 0
 388 624 358 601 327 567 c 0
 311 549 295 525 278 494 c 0
 261 463 248 436 239 412 c 2
 221 362 l 1
 259 399 l 2
 280 422 305 440 333 452 c 0
 361 464 392 469 424 469 c 0
 449 469 471 466 490 458 c 0
 509 450 522 438 533 421 c 0
 546 401 552 375 552 341 c 0
 552 314 548 283 540 248 c 0
297 378 m 0
 268 360 241 337 217 309 c 2
 215 307 l 1
 207 276 201 251 199 232 c 0
 197 221 196 209 196 197 c 0
 196 176 199 156 205 136 c 0
 210 120 216 105 225 92 c 0
 234 79 245 69 260 61 c 0
 273 54 288 50 304 50 c 2
 306 50 l 2
 328 50 352 59 374 78 c 0
 396 97 416 119 433 147 c 0
 452 175 464 203 471 232 c 0
 478 262 481 288 481 310 c 0
 481 335 476 355 466 369 c 0
 456 382 444 392 431 397 c 0
 418 402 403 405 384 405 c 0
 355 405 326 396 297 378 c 0
EndSplineSet
Validated: 1
EndChar

StartChar: seven
Encoding: 55 55 33
Width: 700
GlyphClass: 2
Flags: HMW
HStem: 634 68
LayerCount: 2
Fore
SplineSet
591 631 m 0
 578 611 555 581 523 541 c 0
 492 501 459 459 428 417 c 0
 397 375 357 319 310 249 c 0
 263 179 216 107 169 33 c 0
 158 16 147 4 135 -3 c 0
 126 -8 119 -11 112 -11 c 2
 107 -11 l 2
 103 -10 99 -7 97 -4 c 0
 95 -1 94 3 94 9 c 0
 94 15 97 24 103 37 c 0
 150 105 199 173 248 241 c 0
 295 309 335 362 366 403 c 0
 397 444 424 483 451 522 c 0
 478 561 499 592 512 616 c 2
 520 633 l 1
 500 634 l 2
 475 634.5 449.5 634.75 423.125 634.75 c 0
 396.75 634.75 369.5 634.5 341 634 c 0
 284 633 246 629 226 624 c 0
 224 624 222 623 221 623 c 0
 220 623 218 624 217 624 c 0
 215 625 212 628 211 630 c 0
 209 637 207 646 208 658 c 0
 210 666 215 673 220 679 c 0
 225 685 232 690 245 692 c 0
 276 699 328 702 398 702 c 0
 420 702 465 700 531 697 c 0
 563 696 580 695 582 695 c 0
 592 695 599 691 604 682 c 0
 605 680 607 676 607 673 c 0
 607 670 606 667 606 665 c 0
 605 656 600 644 591 631 c 0
EndSplineSet
Validated: 1
EndChar

StartChar: eight
Encoding: 56 56 34
Width: 700
GlyphClass: 2
Flags: HMW
HStem: -16 61<288.5 293> 658 48<405.5 445.5 420 445.5>
VStem: 121 58<122.5 164> 228 60 478 67<217.5 249.5> 517 62<550 586>
LayerCount: 2
Fore
SplineSet
545 244 m 0xf8
 545 233 543 221 540 207 c 0
 530 163 510 122 479 85 c 0
 462 65 446 49 427 34 c 0
 408 19 386 7 360 -2 c 0
 334 -11 307 -16 279 -16 c 0
 250 -16 224 -12 203 -3 c 0
 182 6 165 16 154 29 c 0
 143 42 134 58 129 77 c 0
 124 96 121 113 121 132 c 0
 121 151 123 172 128 194 c 0
 133 215 143 237 159 262 c 0
 175 287 196 310 220 331 c 0
 242 353 266 368 288 376 c 2
 312 384 l 1
 290 398 l 2
 266 413 249 432 239 457 c 0
 232 473 228 489 228 505 c 0
 228 514 229 523 231 531 c 0
 233 539 236 547 239 556 c 0
 241 565 246 574 252 586 c 0
 258 598 263 609 270 620 c 0
 277 631 287 641 298 652 c 0
 309 663 320 672 333 680 c 0
 346 688 361 694 379 699 c 0
 397 704 415 706 435 706 c 0
 456 706 474 704 492 699 c 0
 510 694 524 688 534 681 c 0
 544 674 552 664 559 654 c 0
 566 644 572 634 574 624 c 0
 577 611 579 595 579 577 c 0xf4
 579 563 577 548 574 533 c 0
 573 526 570 519 567 512 c 0
 564 505 560 499 556 493 c 0
 552 487 546 481 540 475 c 0
 534 469 528 464 523 459 c 0
 515 452 499 441 476 426 c 2
 431 396 l 1
 449 386 l 2
 468 376 484 365 497 352 c 0
 510 339 520 327 527 315 c 0
 534 303 539 292 541 279 c 0
 543 266 545 255 545 244 c 0xf8
477 638 m 0
 460 651 442 658 421 658 c 2
 420 658 l 2
 391 658 365 646 339 622 c 0
 313 598 297 570 291 541 c 0
 289 534 288 527 288 521 c 0
 288 502 294 486 306 471 c 0
 321 453 347 435 384 417 c 2
 388 415 l 1
 392 416 l 1
 419 428 444 444 468 465 c 0
 495 486 510 506 514 526 c 0
 516 535 517 545 517 555 c 0
 517 565 515 576 512 587 c 0
 506 608 494 625 477 638 c 0
189 114 m 0
 200 92 215 74 236 63 c 0
 256 51 277 45 300 45 c 0
 317 45 334 49 352 55 c 0
 370 61 387 70 403 81 c 0
 419 92 433 107 446 126 c 0
 459 145 468 165 473 186 c 0
 476 199 478 212 478 223 c 0xf8
 478 233 476 244 473 257 c 0
 470 270 465 282 457 294 c 0
 450 306 439 318 425 330 c 0
 411 342 394 353 373 363 c 2
 370 365 l 1
 366 364 l 2
 322 351 283 328 250 295 c 0
 214 262 191 227 182 189 c 0
 180 179 179 169 179 159 c 0
 179 143 182 128 189 114 c 0
EndSplineSet
Validated: 1
EndChar

StartChar: nine
Encoding: 57 57 35
Width: 700
GlyphClass: 2
Flags: HMW
HStem: 248 64<287 351> 667 60<395 440.5 406 440.5>
VStem: 167 68<412.5 427> 516 57<522.5 530.5>
LayerCount: 2
Fore
SplineSet
550 382 m 0
 537 330 520 283 499 241 c 0
 478 199 454 162 430 133 c 0
 407 104 381 79 353 58 c 0
 325 37 296 22 266 11 c 0
 234 0 200 -7 163 -10 c 0
 161 -10 159 -11 157 -11 c 0
 148 -11 141 -8 135 -5 c 0
 133 -4 130 -2 129 0 c 0
 128 2 128 6 128 10 c 0
 128 16 133 22 141 30 c 0
 149 38 159 44 168 46 c 0
 175 48 186 51 202 55 c 0
 218 59 234 62 247 65 c 0
 258 68 272 73 287 79 c 0
 320 92 350 114 379 145 c 0
 397 165 413 188 430 214 c 0
 447 241 461 265 470 286 c 2
 492 341 l 1
 450 300 l 2
 431 280 410 266 386 259 c 0
 362 252 333 248 298 248 c 0
 276 248 255 253 237 266 c 0
 217 279 202 295 191 316 c 0
 180 337 172 362 169 390 c 0
 168 399 167 408 167 417 c 0
 167 437 169 456 174 476 c 0
 183 512 195 546 214 577 c 0
 233 608 253 635 275 657 c 0
 296 679 319 696 345 708 c 0
 371 720 399 727 426 727 c 0
 455 727 480 721 501 710 c 0
 527 696 546 673 558 642 c 0
 568 615 573 583 573 546 c 0
 573 499 565 444 550 382 c 0
507 581 m 0
 502 597 496 611 487 624 c 0
 478 637 466 647 451 655 c 0
 438 663 423 667 407 667 c 2
 406 667 l 2
 384 667 360 659 337 642 c 0
 314 625 295 603 278 577 c 0
 261 551 249 523 243 494 c 0
 237 468 235 445 235 425 c 0
 235 400 240 378 249 361 c 0
 266 328 296 312 338 312 c 0
 364 312 391 319 418 333 c 0
 446 347 470 366 492 391 c 1
 495 393 l 1
 500 415 505 445 512 485 c 0
 514 496 516 508 516 520 c 0
 516 541 513 561 507 581 c 0
EndSplineSet
Validated: 1
EndChar

StartChar: colon
Encoding: 58 58 36
Width: 700
GlyphClass: 2
Flags: HMW
HStem: 52 131<294.5 339 299 339> 319 131<364 400 364 400>
VStem: 265 108<80 151.5 84 151.5> 326 109<343 424 351 424>
LayerCount: 2
Fore
SplineSet
326 351 m 2xd0
 328 369 334 392 341 419 c 0
 342 426 345 432 349 436 c 0
 353 440 359 443 365 445 c 0
 375 448 384 450 393 450 c 2
 400 450 l 2
 410 450 419 448 427 443 c 0
 432 440 435 433 435 424 c 2
 435 419 l 1
 431 398 423 376 412 352 c 0
 407 341 400 332 390 327 c 0
 380 322 373 319 366 319 c 2
 364 319 l 2
 352 320 343 323 336 327 c 0
 332 329 329 331 328 334 c 0
 327 337 326 340 326 343 c 2
 326 351 l 2xd0
265 80 m 2xe0
 265 84 l 1
 270 110 l 2
 270 112 273 117 274 122 c 0
 275 127 278 137 283 152 c 0
 284 158 287 163 291 167 c 0
 295 171 300 175 305 177 c 0
 316 181 325 183 333 183 c 2
 339 183 l 2
 345 183 351 182 356 180 c 0
 361 178 364 175 368 170 c 0
 372 165 374 160 374 153 c 2
 374 153 373 152 373 151 c 0
 372 129 365 106 354 83 c 0
 349 73 341 65 330 60 c 0
 319 55 310 52 302 52 c 2
 299 52 l 2
 290 52 281 56 273 62 c 0
 268 67 265 73 265 80 c 2xe0
EndSplineSet
Validated: 1
EndChar

StartChar: semicolon
Encoding: 59 59 37
Width: 700
GlyphClass: 2
Flags: HMW
HStem: 277 131<420 454 420 454>
VStem: 381 109<306 382 310 382>
LayerCount: 2
Fore
SplineSet
454 408 m 2
 463 408 473 406 482 401 c 0
 484 400 487 398 488 394 c 0
 489 390 490 386 490 382 c 2
 490 377 l 1
 486 356 478 334 467 310 c 0
 462 299 454 290 445 285 c 0
 436 280 428 277 421 277 c 2
 420 277 l 2
 404 279 392 285 385 294 c 0
 383 297 381 301 381 306 c 2
 381 310 l 2
 383 328 388 351 395 378 c 0
 397 384 401 390 405 394 c 0
 409 398 415 401 421 403 c 0
 427 405 432 407 437 407 c 0
 442 407 447 408 449 408 c 2
 454 408 l 2
402 77 m 0
 396 56 356 -30 282 -182 c 0
 277 -193 270 -201 262 -206 c 0
 254 -211 247 -213 240 -213 c 2
 238 -213 l 2
 229 -213 221 -210 215 -204 c 0
 213 -202 211 -198 211 -194 c 0
 211 -190 212 -187 213 -183 c 0
 218 -168 233 -129 259 -67 c 0
 285 -5 305 41 320 74 c 0
 324 83 327 90 331 95 c 0
 335 100 340 103 342 104 c 0
 349 106 355 107 360 107 c 0
 361 107 364 106 366 106 c 0
 377 106 387 104 396 99 c 0
 401 97 404 92 404 87 c 0
 404 85 403 81 402 77 c 0
EndSplineSet
Validated: 1
EndChar

StartChar: less
Encoding: 60 60 38
Width: 700
GlyphClass: 2
Flags: HMW
HStem: 680 20G<574 580>
LayerCount: 2
Fore
SplineSet
603 669 m 0
 603 663 600 657 595 650 c 0
 586 639 569 626 546 611 c 0
 506 585 443 543 359 483 c 0
 275 423 216 383 185 362 c 1
 195 352 l 2
 215 332 236 307 259 279 c 0
 282 251 302 226 319 203 c 0
 336 180 354 155 375 131 c 0
 396 107 415 88 432 74 c 0
 452 58 461 45 461 35 c 0
 461 32 459 27 456 20 c 0
 453 15 449 10 443 7 c 0
 437 4 429 1 420 0 c 2
 414 0 l 2
 407 0 399 2 390 5 c 0
 377 10 362 21 344 38 c 0
 326 55 307 77 286 102 c 0
 265 127 246 152 226 178 c 0
 206 204 184 230 161 258 c 0
 138 286 119 308 102 324 c 0
 99 327 97 333 97 341 c 0
 97 351 99 361 104 370 c 0
 109 379 114 385 121 389 c 0
 163 418 213 454 270 496 c 0
 327 538 380 576 427 610 c 0
 474 644 515 671 550 691 c 0
 561 697 570 700 578 700 c 0
 582 700 586 700 588 698 c 0
 596 692 601 684 602 675 c 0
 602 673 603 671 603 669 c 0
EndSplineSet
Validated: 1
EndChar

StartChar: equal
Encoding: 61 61 39
Width: 700
GlyphClass: 2
Flags: HMW
HStem: 259 50 259 58 455 61<239.5 244.5>
LayerCount: 2
Fore
SplineSet
245 516 m 2x20
 247 516.000976562 l 2
 283.318359375 514.829101562 323.068359375 514.34375 366.25 514.34375 c 0
 396.784179688 514.34375 429.034179688 514.5859375 463 515 c 0
 495 515 513 516 520 516 c 0
 530 516 537 515 538 513 c 0
 539 511 540 507 540 502 c 0
 540 495 538 487 535 479 c 0
 531 470 526 463 519 461 c 0
 516 460 513 459 511 459 c 2
 504 459 l 2
 490 459 477 460 465 460 c 2
 431 460 l 1
 328 457 l 2
 286 456 255 455 234 455 c 0
 223 455 214 458 209 463 c 0
 206 466 204 470 204 475 c 0
 204 477 205 480 205 482 c 0
 207 492 213 500 220 507 c 0
 227 513 234 516 245 516 c 2x20
205 317.000976562 m 2x60
 225 317.000976562 248 316.000976562 276 316.000976562 c 0
 304 316.000976562 337 318.000976562 377 318.000976562 c 2
 475 320.000976562 l 2
 486 320.000976562 492 318.000976562 493 316.000976562 c 0
 495 313.000976562 495 307.000976562 494 298.000976562 c 0
 492 288.000976562 489 280.000976562 484 273.000976562 c 0
 482 269.000976562 478 266.000976562 474 265.000976562 c 0
 470 264.000976562 467 264.000976562 465 264.000976562 c 2
 458 264.000976562 l 2
 443 264.000976562 426 265.000976562 406 265.000976562 c 0
 386 265.000976562 345 263.000976562 281 261.000976562 c 0
 237 260.000976562 204 259.000976562 184 259.000976562 c 0
 173 259.000976562 165 261.000976562 162 266.000976562 c 0
 160 269.000976562 159 273.000976562 159 278.000976562 c 0
 159 281.000976562 160 285.000976562 160 288.000976562 c 0
 161 296.000976562 166 303.000976562 174 309.000976562 c 0xa0
 182 315.000976562 191 317.000976562 203 317.000976562 c 2
 205 317.000976562 l 2x60
EndSplineSet
Validated: 1
EndChar

StartChar: greater
Encoding: 62 62 40
Width: 700
GlyphClass: 2
Flags: HMW
HStem: 687 20G<280 286 286 289.5>
LayerCount: 2
Fore
SplineSet
286 707 m 2
 293 707 301 705 310 702 c 0
 323 697 338 686 357 669 c 0
 376 652 394 631 414 606 c 0
 434 581 454 555 474 529 c 0
 494 503 516 477 538 449 c 0
 560 421 581 399 598 383 c 0
 601 380 603 374 603 366 c 0
 603 356 601 346 596 337 c 0
 591 328 586 322 579 318 c 0
 537 290 487 254 430 212 c 0
 373 170 321 131 274 97 c 0
 227 63 185 36 150 16 c 0
 139 10 130 7 122 7 c 0
 117 7 114 7 112 9 c 0
 108 12 104 16 102 20 c 0
 100 24 98 26 98 30 c 0
 98 34 97 37 97 38 c 0
 97 44 100 50 105 57 c 0
 114 68 130 81 154 96 c 0
 195 122 258 164 342 224 c 0
 426 284 485 324 516 345 c 1
 505 355 l 2
 485 375 465 400 442 428 c 0
 419 456 399 481 382 504 c 0
 365 527 346 552 325 576 c 0
 304 600 286 619 268 633 c 0
 248 649 239 662 239 672 c 0
 239 677 241 682 244 687 c 0
 247 692 252 697 258 700 c 0
 264 703 271 706 280 707 c 2
 286 707 l 2
EndSplineSet
Validated: 1
EndChar

StartChar: question
Encoding: 63 63 41
Width: 700
GlyphClass: 2
Flags: HMW
HStem: -2 130<192.5 256.5 200 256.5> 650 60<376 389>
VStem: 159 132<37.5 90.5> 472 69<578.5 582>
LayerCount: 2
Fore
SplineSet
541 588 m 0
 541 569 538 548 533 525 c 0
 529 508 522 493 514 479 c 0
 506 465 497 453 487 443 c 0
 477 433 465 424 452 415 c 0
 439 406 426 396 412 387 c 0
 398 378 386 368 373 357 c 0
 360 346 349 333 337 318 c 0
 325 303 316 286 309 267 c 0
 303 252 295 240 286 232 c 0
 281 227 275 225 268 225 c 0
 266 225 262 227 257 227 c 0
 252 228 247 231 244 233 c 0
 239 237 237 242 237 249 c 0
 237 259 241 272 248 287 c 0
 256 304 266 320 278 335 c 0
 290 350 300 364 312 375 c 0
 324 386 337 397 350 407 c 0
 363 417 376 427 388 436 c 0
 400 445 412 454 423 464 c 0
 434 474 443 485 451 497 c 0
 459 509 465 522 468 535 c 0
 471 548 472 560 472 571 c 0
 472 593 466 610 454 623 c 0
 436 641 408 650 370 650 c 0
 360 650 350 648 339 643 c 0
 328 638 318 633 310 627 c 0
 302 621 293 613 283 604 c 0
 273 595 265 587 260 581 c 0
 255 575 248 567 240 558 c 0
 227 543 217 534 210 534 c 0
 209 534 206 533 205 533 c 0
 204 533 201 534 199 535 c 0
 197 536 192 538 187 540 c 0
 182 543 179 548 179 555 c 0
 179 564 184 576 195 592 c 0
 215 619 241 645 272 669 c 0
 288 681 306 691 326 699 c 0
 346 707 366 710 386 710 c 0
 449 710 493 695 518 664 c 0
 533 645 541 620 541 588 c 0
291 85 m 0
 291 80 290 74 289 68 c 0
 285 49 276 34 261 21 c 0
 246 8 228 0 208 -2 c 2
 200 -2 l 2
 185 -2 175 3 168 13 c 0
 162 22 159 32 159 43 c 0
 159 48 160 54 161 61 c 0
 166 79 176 94 193 107 c 0
 211 121 229 128 249 128 c 0
 264 128 276 123 283 113 c 0
 288 105 291 96 291 85 c 0
EndSplineSet
Validated: 1
EndChar

StartChar: at
Encoding: 64 64 42
Width: 700
GlyphClass: 2
Flags: HMW
HStem: -117 61<230 277.5 245 277.5> 114 53<443.5 474.5> 130 56<308.5 316.5> 394 52<377 406.5 377 406.5> 625 65<429.5 466 443 459>
VStem: 91 60<100 118.5> 222 53<198 229> 407 33 558 51<460 533.5>
LayerCount: 2
Fore
SplineSet
481 49 m 2xdf80
 481 47 479 42 477 36 c 0
 475 30 471 22 465 12 c 0
 460 3 455 -6 450 -13 c 0
 445 -20 439 -28 431 -38 c 0
 423 -48 415 -55 407 -62 c 0
 399 -69 390 -77 378 -84 c 0
 366 -91 354 -97 342 -102 c 0
 330 -107 315 -111 299 -113 c 0
 283 -115 267 -117 250 -117 c 2
 245 -117 l 2
 215 -117 188 -109 166 -93 c 0
 144 -77 126 -55 113 -26 c 0
 98 8 91 50 91 99 c 0
 91 138 95 180 106 225 c 0
 120 283 137 338 157 388 c 0
 177 438 198 481 221 518 c 0
 244 555 271 586 297 612 c 0
 323 638 350 658 377 671 c 0
 404 684 430 690 456 690 c 0
 476 690 494 689 509 686 c 0
 524 683 539 677 551 669 c 0
 563 661 573 652 581 640 c 0
 589 628 596 611 601 591 c 0
 606 571 609 547 609 520 c 0
 609 463 598 388 577 295 c 0
 566 248 550 206 529 171 c 0
 518 153 506 139 493 129 c 0
 480 119 466 114 452 114 c 0
 435 114 423 119 416 128 c 0
 410 136 407 148 407 163 c 0
 407 169 407 176 408 184 c 2
 417 251 l 1
 385 192 l 2
 363 150 334 130 299 130 c 0xbf80
 267 130 245 140 233 161 c 0
 226 173 222 188 222 208 c 0
 222 225 225 245 230 268 c 0
 235 291 243 312 253 333 c 0
 263 354 273 370 285 384 c 0
 297 398 310 410 323 420 c 0
 336 430 350 436 363 440 c 0
 376 444 388 446 399 446 c 0
 414 446 429 443 443 436 c 0
 454 431 462 425 467 417 c 0
 468 414 469 411 469 409 c 0
 469 407 468 405 467 403 c 0
 461 394 455 389 449 387 c 0
 444 386 439 385 436 385 c 0
 431 385 420 387 404 392 c 0
 397 393 391 394 387 394 c 2
 377 394 l 2
 367 393 357 389 347 383 c 0
 337 377 328 371 320 362 c 0
 312 353 304 343 297 329 c 0
 290 315 285 300 281 283 c 0
 277 266 275 252 275 241 c 2
 275 229 l 2
 275 217 279 207 285 199 c 0
 292 190 302 186 315 186 c 0
 338 186 357 195 372 215 c 0
 385 233 397 261 407 301 c 0
 408 307 416 313 429 318 c 0
 439 322 447 324 454 324 c 0
 458 324 462 323 464 322 c 2
 465 321 l 1
 465 321 464 319 464 317 c 0
 452 281 444 253 442 232 c 0
 441 222 440 213 440 205 c 0
 440 197 441 191 443 186 c 0
 445 179 450 174 455 171 c 0
 460 169 465 167 470 167 c 0xdf80
 479 167 488 173 496 186 c 0xbf80
 502 196 508 208 513 223 c 0
 522 248 529 272 534 293 c 0
 541 327 548 360 552 391 c 0
 556 422 558 449 558 471 c 0
 558 489 556 506 553 522 c 0
 550 538 547 552 543 563 c 0
 539 574 533 584 525 592 c 0
 517 600 510 607 503 611 c 0
 496 615 489 619 480 621 c 0
 471 623 464 625 459 625 c 2
 443 625 l 2
 416 625 389 617 362 599 c 0
 335 581 309 557 285 526 c 0
 261 495 239 457 219 413 c 0
 199 369 183 320 171 267 c 0
 158 208 151 156 151 112 c 0
 151 88 153 68 157 51 c 0
 163 27 172 6 183 -11 c 0
 194 -28 207 -39 221 -46 c 0
 235 -53 252 -56 269 -56 c 0
 286 -56 303 -54 318 -51 c 0
 333 -48 345 -43 356 -38 c 0
 367 -33 377 -26 388 -18 c 0
 399 -10 407 -1 413 6 c 0
 419 13 427 22 435 32 c 0
 440 39 444 44 448 48 c 0
 453 54 457 58 459 59 c 0
 461 59 463 61 465 62 c 0
 467 63 470 63 472 62 c 0
 474 61 477 59 478 58 c 0
 479 57 481 53 481 51 c 2
 481 49 l 2xdf80
465 321 m 1024
EndSplineSet
Validated: 1
EndChar

StartChar: A
Encoding: 65 65 43
Width: 700
GlyphClass: 2
Flags: HMW
HStem: 276 43<494 494 494 504>
VStem: 499 72<66 126> 504 57 518 62
LayerCount: 2
Fore
SplineSet
491 276 m 1xa0
 416 273 346 265 284 253 c 1
 251 196 217 131 182 58 c 0
 173 40 164 28 153 23 c 0
 148 21 142 19 138 19 c 0
 134 19 131 20 128 21 c 0
 125 22 122 25 121 28 c 0
 120 31 119 35 119 39 c 0
 119 49 124 63 132 81 c 0
 141 102 171 157 225 245 c 1
 223 256 220 258 218 252 c 1
 213 255 211 259 211 263 c 0
 211 264 212 266 212 268 c 0
 213 275 217 282 226 289 c 0
 235 296 246 301 257 305 c 1
 258 314 260 315 261 307 c 1
 370 499 451 627 504 691 c 0
 515 704 525 712 532 717 c 0
 539 722 546 725 552 725 c 2
 553 725 l 1
 557 725 l 2
 564 725 569 723 574 720 c 0
 578 718 580 712 580 705 c 2x90
 580 700 l 1
 573 617 569 500 565 348 c 0
 563 289 561 241 561 201 c 0xa0
 561 137 564 98 568 84 c 0
 570 78 571 72 571 68 c 0xc0
 571 64 570 60 569 56 c 0
 566 47 560 41 555 35 c 0
 550 29 544 24 537 22 c 0
 532 20 529 19 526 19 c 0
 522 19 517 20 514 22 c 0
 507 26 502 37 500 54 c 0
 500 62 499 81 499 111 c 0
 499 141 502 197 504 276 c 1
 500 285 496 285 491 276 c 1xa0
495 610 m 2
 458 565 402 470 327 324 c 1
 317 303 l 1
 339 306 l 2
 397 313 448 318 494 319 c 2
 506 320 l 1
 518 637 l 1
 495 610 l 2
EndSplineSet
Validated: 1
EndChar

StartChar: B
Encoding: 66 66 44
Width: 700
GlyphClass: 2
Flags: HMW
HStem: 310 47<326 330 330 331> 642 43<402 419 419 422>
VStem: 486 72<211 215.5 211 215.5> 528 62<533.5 538.5>
LayerCount: 2
Fore
SplineSet
556 201 m 2xd0
 551 177 540 153 523 130 c 0
 506 107 484 85 459 65 c 0
 435 45 405 28 371 14 c 0
 337 0 301 -10 262 -14 c 1
 255.8125 -19.0625 249.625 -21.59375 243.4375 -21.59375 c 2
 229 -17 l 1
 222.8125 -22.0625 216.94140625 -24.59375 211.03125 -24.59375 c 0
 206.43359375 -24.59375 201.8125 -23.0625 197 -20 c 0
 177 -22 163 -23 153 -23 c 0
 147 -23 141 -22 135 -21 c 2
 133 -21 l 1
 130 -21 l 2
 122 -21 116 -18 113 -13 c 0
 111 -11 110 -7 110 -2 c 0
 110 3 111 8 113 14 c 0
 122 42 135 95 152 174 c 0
 169 253 186 335 202 419 c 0
 211 463 218 493 221 508 c 0
 224 523 229 544 236 570 c 0
 241 579 245 597 250 623 c 0
 253 639 259 651 267 658 c 0
 275 665 283 669 292 669 c 2
 296 669 l 1
 297 669 l 2
 308 672 318 675 328 677 c 0
 347 681 364 684 381 684 c 0
 390 684 397 685 402 685 c 2
 419 685 l 1
 429 685 l 2
 466 685 498 678 525 662 c 0
 552 646 570 624 581 595 c 0
 587 578 590 561 590 541 c 0
 590 526 588 509 584 492 c 0
 576 455 561 423 539 397 c 0
 517 371 491 352 462 340 c 1
 453 329 445 325 436 329 c 1
 442.459960938 320.38671875 448.405273438 315.89453125 454.57421875 315.89453125 c 0
 457 315.89453125 459.459960938 316.588867188 462 318 c 0
 479 311 496 300 512 287 c 0
 528 274 540 259 549 242 c 0
 555 231 558 220 558 211 c 2xe0
 556 201 l 2xd0
316 629 m 2
 310 627 l 1
 292 553 280 501 273 470 c 0
 266 439 259 402 250 360 c 1
 285 358 314 357 338 357 c 0
 356 357 373 359 388 362 c 0
 403 365 417 369 428 375 c 0
 439 381 450 388 460 397 c 0
 470 406 479 414 486 423 c 0
 493 432 499 441 504 451 c 0
 509 461 513 471 516 479 c 0
 519 487 523 496 525 506 c 0
 527 516 528 525 528 534 c 0xd0
 528 543 527 550 526 557 c 0
 523 574 517 587 508 598 c 0
 499 609 489 617 476 624 c 0
 456 636 434 642 410 642 c 0
 379 642 347 638 316 629 c 2
454 261 m 0
 443 271 427 280 406 289 c 0
 385 298 360 305 331 310 c 1
 330 310 l 2
 288 310 259 308 240 308 c 1
 218 194 201 109 190 54 c 1
 207 55 223 56 238 56 c 0
 253 56 264 57 271 57 c 0
 298 58 324 64 350 74 c 0
 376 84 398 94 416 108 c 0
 434 122 449 137 461 152 c 0
 474 167 482 182 485 196 c 0
 485 199 486 203 486 206 c 0xe0
 486 225 475 243 454 261 c 0
EndSplineSet
Validated: 1
EndChar

StartChar: C
Encoding: 67 67 45
Width: 700
GlyphClass: 2
Flags: HMW
HStem: -31 67<213 263 224 263> 654 59<476 480.5> 701 21G
VStem: 78 77<126.5 190.5>
LayerCount: 2
Fore
SplineSet
231 -31 m 2xd0
 224 -31 l 2
 202 -31 182 -27 163 -18 c 0
 144 -9 129 2 117 17 c 0
 105 32 96 49 89 70 c 0
 82 91 78 114 78 139 c 0
 78 159 80 179 85 200 c 0
 96 249 111 297 131 343 c 0
 151 389 172 432 196 469 c 0
 218 506 242 540 268 571 c 0
 294 602 320 627 345 648 c 0
 370 669 396 685 420 696 c 0
 444 707 466 713 486 713 c 0
 507 713 525 710 542 705 c 1
 545 711 549 710 552 701 c 1xb0
 554 712 556 716 557 711 c 1
 561 720 566 727 573 732 c 0
 580 737 586 740 593 740 c 2
 598 741 l 2
 603 741 608 739 613 735 c 0
 619 730 622 723 622 713 c 0
 622 697 620 678 616 656 c 0
 615 647 613 635 609 621 c 0
 605 607 602 598 602 596 c 0
 600 583 592 570 581 557 c 0
 570 544 561 537 554 537 c 2
 549 537 l 2
 542 537 536 539 531 544 c 0
 527 547 525 552 525 558 c 0
 525 559 526 562 526 565 c 0
 527 571 532 588 539 616 c 0
 538 623 536 625 534 621 c 1
 531 623 525 629 516 637 c 0
 514 639 510 642 505 645 c 0
 496 651 486 654 475 654 c 0
 455 654 432 647 408 632 c 0
 384 617 360 596 336 570 c 0
 312 544 287 514 265 481 c 0
 243 448 222 409 204 367 c 0
 184 325 170 281 161 239 c 0
 157 219 155 200 155 181 c 0
 155 169 156 157 158 145 c 0
 162 114 172 88 190 68 c 0
 207 47 228 36 253 36 c 0
 273 36 291 38 311 43 c 0
 331 48 348 54 364 62 c 0
 380 70 394 76 406 84 c 0
 418 92 429 100 440 109 c 0
 448 114 455 119 460 121 c 0
 465 123 470 125 475 125 c 0
 478 125 481 124 483 122 c 0
 487 117 489 113 489 108 c 0
 489 97 481 82 464 64 c 0
 404 1 327 -31 231 -31 c 2xd0
EndSplineSet
Validated: 1
EndChar

StartChar: D
Encoding: 68 68 46
Width: 700
GlyphClass: 2
Flags: HMW
HStem: -31 61<315.5 362 328 362> 712 21G<312 316 312 312>
VStem: 312 4<688 688 712 712> 531 65<341 379>
LayerCount: 2
Fore
SplineSet
316 712 m 1
 312 712 l 1
 313 726 315 732 316 730 c 2
 316 712 l 1
316 687 m 1
 327 686 340 683 353 680 c 0
 370 676 386 671 403 664 c 0
 420 657 437 647 456 635 c 0
 475 623 492 609 509 593 c 0
 526 577 540 557 554 533 c 0
 568 509 578 484 585 457 c 0
 592 430 596 398 596 363 c 0
 596 319 591 272 579 222 c 0
 573 200 565 176 554 153 c 0
 543 130 530 107 513 85 c 0
 496 63 479 43 460 26 c 0
 442 9 422 -6 401 -16 c 0
 380 -26 357 -31 336 -31 c 2
 328 -31 l 2
 303 -31 278 -29 253 -27 c 0
 228 -25 208 -21 192 -17 c 0
 176 -13 161 -9 148 -5 c 0
 135 -1 127 0 124 0 c 0
 116 0 110 3 107 8 c 0
 105 10 104 15 104 20 c 0
 104 25 105 30 107 36 c 0
 116 68 130 125 149 207 c 0
 168 289 185 377 204 472 c 0
 211 509 217 533 220 545 c 0
 223 557 227 575 233 600 c 0
 239 625 243 640 244 645 c 0
 247 660 253 672 261 679 c 0
 269 686 277 690 286 690 c 0
 294 690 303 689 312 688 c 1
 307 654 301 628 295 611 c 0
 274 525 255 433 238 338 c 0
 230 287 222 243 213 208 c 0
 201 151 192 104 185 69 c 0
 187 60 191 58 193 65 c 1
 216 52 240 43 265 38 c 0
 290 33 320 30 353 30 c 0
 371 30 389 36 407 50 c 0
 425 64 441 81 455 102 c 0
 469 123 481 145 493 169 c 0
 505 193 514 218 519 241 c 0
 527 275 531 307 531 337 c 0
 531 421 502 489 442 540 c 0
 417 562 378 586 327 611 c 1
 327 616 l 1
 324 616 l 1
 324 617 l 1
 322 617 l 1
 322 618 l 1
 320 618 l 1
 320 619 l 1
 316 619 l 1
 316 687 l 1
EndSplineSet
Validated: 1
EndChar

StartChar: E
Encoding: 69 69 47
Width: 700
GlyphClass: 2
Flags: HMW
HStem: -20 63<153 233.5> -6 66<422.5 469 429 469> 312 62<210 248> 332 57<501.5 531> 615 59<454 475.5 430 482>
VStem: 75 77<27.5 74.5>
LayerCount: 2
Fore
SplineSet
441 -6 m 2x4c
 429 -6 l 2
 416 -6 395 -7 364 -9 c 0
 269 -16 201 -20 163 -20 c 0xac
 143 -20 129 -19 116 -18 c 0
 105 -18 96 -11 87 0 c 0
 80 9 75 21 75 34 c 0
 75 47 82 81 95 136 c 0
 105 180 116 228 129 279 c 0
 142 330 153 388 166 451 c 0
 174 491 180 517 183 530 c 0
 186 543 191 562 198 587 c 0
 205 612 208 627 209 634 c 0
 213 649 219 660 227 668 c 0
 235 676 244 680 253 680 c 1
 254 672 256 672 257 680 c 0
 261 680 264 679 267 678 c 0
 270 677 273 674 274 670 c 0
 275 659 277 656 278 661 c 1
 280 654 283 654 285 663 c 1
 333 670 394 674 466 674 c 0
 485 674 501 673 518 673 c 0
 554 672 582 669 603 667 c 0
 614 665 621 662 623 659 c 0
 623 658 624 655 624 653 c 0
 624 651 623 647 623 643 c 0
 623 639 621 634 619 630 c 0
 614 621 609 614 602 612 c 0
 599 610 596 609 594 609 c 0
 592 609 590 610 588 610 c 0
 545 613 503 615 461 615 c 0
 447 615 432 614 417 614 c 0
 362 613 315 609 273 602 c 1
 271 593 267 593 265 601 c 1
 245 526 229 450 213 373 c 1
 218 366 222 366 227 374 c 1
 269 374 328 376 401 381 c 0
 475 386 516 389 526 389 c 0x1c
 536 389 542 386 544 384 c 0
 546 380 546 374 545 366 c 0
 543 355 538 346 533 341 c 0
 527 335 518 332 507 332 c 0
 496 332 450 329 371 322 c 0
 292 315 239 312 210 312 c 1xac
 207 303 202 303 200 311 c 1
 190 267 182 225 173 184 c 0
 159 122 152 82 152 67 c 0
 152 63 153 57 153 50 c 0
 155 41 158 41 160 48 c 1
 165 46 172 44 182 44 c 0
 191 44 205 43 224 43 c 0
 243 43 269 44 301 45 c 0
 376 49 426 53 449 58 c 0
 457 59 463 60 467 60 c 0
 471 60 475 59 477 58 c 0
 479 57 481 55 482 54 c 0
 483 53 484 50 484 47 c 0
 484 44 485 41 485 39 c 0
 485 37 484 33 484 31 c 0
 482 20 477 11 469 3 c 0
 464 -4 456 -7 447 -7 c 0
 445 -7 443 -6 441 -6 c 2x4c
EndSplineSet
Validated: 1
EndChar

StartChar: F
Encoding: 70 70 48
Width: 700
GlyphClass: 2
Flags: HMW
HStem: 323 60<313 326> 619 63
LayerCount: 2
Fore
SplineSet
610 677 m 0
 621 676 627 673 628 671 c 0
 630 668 631 662 630 654 c 0
 628 645 622 636 615 629 c 0
 609 622 601 619 590 619 c 2
 588 619 l 2
 555 621 521 622 486 622 c 0
 421 622 349 618 270 611 c 1
 254 544 243 498 237 472 c 0
 231 446 224 414 216 376 c 1
 221 369 227 369 232 378 c 1
 257 381 284 383 313 383 c 2
 334 383 l 2
 371 382 404 379 434 376 c 0
 464 373 487 370 504 367 c 0
 510 366 514 363 517 362 c 0
 520 361 523 359 523 359 c 2
 524 357 525 354 525 350 c 2
 525 344 l 2
 523 335 518 326 512 319 c 0
 508 313 501 310 492 310 c 2
 490 310 l 2
 473 313 447 317 415 319 c 0
 383 321 346 323 306 323 c 0
 268 323 237 320 211 316 c 1
 209 307 206 307 204 315 c 1
 184 207 164 107 144 15 c 0
 140 4 133 -5 123 -12 c 0
 113 -19 103 -22 93 -22 c 0
 92 -22 90 -21 90 -21 c 2
 82 -21 76 -18 73 -13 c 0
 71 -11 70 -7 70 -2 c 0
 70 3 71 8 73 14 c 0
 82 43 94 100 113 183 c 0
 132 266 150 352 167 440 c 0
 176 484 183 515 186 530 c 0
 189 545 193 565 200 591 c 0
 205 601 210 619 215 645 c 0
 218 660 224 672 232 679 c 0
 240 686 249 690 258 690 c 2
 262 690 l 2
 267 690 270 689 273 688 c 0
 276 687 279 684 280 680 c 0
 280 669 282 667 283 672 c 1
 359 679 430 682 496 682 c 0
 541 682 579 680 610 677 c 0
EndSplineSet
Validated: 1
EndChar

StartChar: G
Encoding: 71 71 49
Width: 700
GlyphClass: 2
Flags: HMW
HStem: -31 67<214 263 225 263> 289 59<475.5 516> 666 58<480.5 484.5>
VStem: 79 78<126.5 190.5>
LayerCount: 2
Fore
SplineSet
601 687 m 0
 609 682 614 677 616 674 c 0
 619 669 620 664 620 658 c 0
 620 650 618 640 612 629 c 0
 610 623 603 618 596 615 c 0
 592 614 589 613 587 613 c 0
 585 613 581 615 577 615 c 0
 574 616 567 621 556 630 c 0
 545 639 532 647 518 654 c 0
 504 662 491 666 478 666 c 0
 458 666 436 658 412 643 c 0
 388 628 364 607 339 580 c 0
 314 553 289 522 267 487 c 0
 245 452 224 413 206 370 c 0
 186 327 171 283 162 239 c 0
 158 219 157 200 157 181 c 0
 157 169 157 157 159 145 c 0
 163 114 175 89 192 68 c 0
 210 47 230 36 255 36 c 0
 271 36 287 42 305 54 c 0
 323 66 341 80 356 97 c 0
 371 114 386 132 401 153 c 0
 416 174 429 195 440 215 c 0
 451 235 461 253 468 270 c 0
 470 275 473 281 475 289 c 1
 468 287 462 287 456 288 c 0
 419 286 383 282 346 276 c 0
 309 270 283 263 267 254 c 0
 264 252 261 250 259 250 c 0
 257 250 255 251 253 253 c 0
 249 257 246 262 246 268 c 2
 246 270 l 2
 247 291 260 308 285 320 c 0
 302 329 338 337 391 342 c 0
 431 346 463 348 488 348 c 0
 514 348 529 347 535 345 c 2
 541 341 l 2
 543 339 545 336 545 331 c 2
 545 328 l 2
 544 318 541 310 537 304 c 0
 533 298 528 293 521 291 c 0
 519 289 517 289 515 289 c 0
 514 282 512 275 509 266 c 0
 506 257 504 249 503 244 c 0
 498 230 491 214 482 195 c 0
 473 176 461 157 447 136 c 0
 433 115 418 94 400 74 c 0
 382 54 364 36 345 20 c 0
 326 4 307 -9 286 -18 c 0
 265 -27 246 -31 227 -31 c 2
 225 -31 l 2
 203 -31 183 -27 164 -18 c 0
 145 -9 131 2 119 17 c 0
 107 32 98 49 91 70 c 0
 84 91 79 114 79 139 c 0
 79 159 82 179 87 200 c 0
 99 251 114 300 134 347 c 0
 154 394 175 437 199 475 c 0
 221 513 245 548 271 580 c 0
 297 612 322 638 348 659 c 0
 374 680 399 696 423 707 c 0
 447 718 470 724 491 724 c 0
 513 724 540 718 567 705 c 0
 582 698 593 692 601 687 c 0
EndSplineSet
Validated: 1
EndChar

StartChar: H
Encoding: 72 72 50
Width: 700
GlyphClass: 2
Flags: HMW
HStem: 312 62<219 261.5 219 261.5>
LayerCount: 2
Fore
SplineSet
219 312 m 1
 217 304 215 297 214 293 c 0
 213 289 211 285 211 282 c 0
 192 215 172 126 150 15 c 0
 146 4 139 -5 129 -12 c 0
 119 -19 108 -22 99 -22 c 0
 98 -22 96 -21 96 -21 c 2
 89 -21 83 -18 79 -13 c 0
 77 -11 76 -7 76 -2 c 0
 76 3 77 8 79 14 c 0
 84 31 95 76 112 148 c 0
 121 186 135 248 157 334 c 0
 168 376 176 407 181 428 c 0
 186 449 192 479 201 520 c 0
 208 554 213 573 213 577 c 0
 215 586 217 597 221 612 c 0
 225 627 227 638 229 645 c 0
 233 660 240 672 248 679 c 0
 256 686 265 690 274 690 c 1
 274 682 276 682 276 690 c 1
 284 690 290 688 294 683 c 0
 296 680 298 675 298 670 c 0
 298 665 297 659 296 653 c 0
 295 647 290 633 284 611 c 0
 278 589 273 569 269 550 c 0
 265 531 260 506 253 470 c 0
 246 434 240 402 233 373 c 1
 238 366 241 366 246 374 c 1
 277 374 309 375 342 379 c 0
 375 383 404 388 431 392 c 0
 458 396 479 399 494 400 c 1
 496 411 498 421 499 430 c 0
 500 439 503 445 504 450 c 0
 510 470 515 497 521 533 c 0
 524 546 530 566 537 594 c 0
 544 622 550 639 551 645 c 0
 555 660 561 672 570 679 c 0
 579 686 587 690 596 690 c 1
 596 682 598 682 599 690 c 1
 608 690 615 688 619 683 c 0
 621 680 623 675 623 670 c 0
 623 665 622 657 620 648 c 0
 618 639 612 616 602 576 c 0
 592 536 584 502 577 472 c 0
 570 442 561 399 549 343 c 0
 540 297 525 236 505 161 c 0
 486 85 475 36 470 15 c 0
 467 4 460 -5 451 -12 c 0
 442 -19 433 -22 424 -22 c 0
 423 -22 421 -21 421 -21 c 2
 414 -21 408 -18 405 -13 c 0
 404 -11 402 -7 402 -2 c 0
 402 3 403 8 405 14 c 0
 431 107 455 211 479 327 c 1
 479 325 482 330 483 343 c 1
 478 334 473 334 468 342 c 1
 458 342 421 337 359 327 c 0
 297 317 251 312 226 312 c 2
 219 312 l 1
EndSplineSet
Validated: 1
EndChar

StartChar: I
Encoding: 73 73 51
Width: 700
GlyphClass: 2
Flags: HMW
HStem: -14 56<90 113> -6 53<342.501 344.5 320 359.501> 625 59<255.5 257 257 262 255.5 300>
LayerCount: 2
Fore
SplineSet
383 -7 m 0x60
 379 -7 368.000976562 -6 351.000976562 -6 c 0
 334.000976562 -6 312.000976562 -7 283.000976562 -8 c 1
 262.256835938 -13.333984375 241.512695312 -16.208984375 220.768554688 -16.208984375 c 2
 178 -12 l 1
 138 -13 111 -14 97 -14 c 0xa0
 83 -14 75 -12 71 -8 c 0
 69 -6 68 -2 68 1 c 0
 68 3 69 6 69 8 c 0
 70 17 74 26 81 32 c 0
 88 38 100 42 113 42 c 0
 140 43 187 45 255 47 c 1x60
 287 166 315 290 340 418 c 0
 346 448 349 465 349 470 c 0
 351 481 356 501 363 532 c 0
 365 541 368 555 373 575 c 0
 378 595 383 607 383 610 c 1
 383 607 385 611 386 624 c 1
 350 624 321 625 300 625 c 2
 257 625 l 2
 249 625 243 624 243 624 c 2
 233 624 226 626 223 631 c 0
 221 633 220 637 220 642 c 2
 220 649 l 2
 221 658 226 666 233 673 c 0
 240 680 249 684 262 684 c 0
 311 685 356 686 398 686 c 0
 481 686 551 683 609 676 c 0
 617 676 623 673 627 670 c 0
 631 667 633 663 633 657 c 0
 633 655 632 652 632 650 c 0
 630 641 624 631 616 622 c 0
 613 618 609 615 604 613 c 0
 601 612 598 611 596 611 c 0
 594 611 593 612 591 612 c 0
 574 614 526 618 449 623 c 1
 444 596 440 578 436 568 c 0
 420 504 405 436 392 365 c 0
 383 318 370 258 353 188 c 0
 336 118 325 71 320 47 c 1
 333 47 l 2
 356 47 403 46 472 46 c 0
 481 46 488 44 489 42 c 0xa0
 490 40 491 36 491 31 c 2
 491 23 l 2
 489 13 484 5 479 -2 c 0
 477 -6 474 -8 471 -9 c 0
 468 -10 465 -12 463 -12 c 0
 461 -12 458 -11 456 -11 c 0
 441 -9 418 -7 383 -7 c 0x60
EndSplineSet
Validated: 1
EndChar

StartChar: J
Encoding: 74 74 52
Width: 700
GlyphClass: 2
Flags: HMW
HStem: -35 77<239 246.5> 611 65<580 598> 625 59<243 247 247 249 243 305>
VStem: 82 63<150 170.5 159.5 161.5>
LayerCount: 2
Fore
SplineSet
270 52 m 0xb0
 276 59 282 69 289 83 c 0
 302 112 317 159 332 224 c 0
 335 237 346 284 362 366 c 0
 378 445 395 531 416 623 c 1
 369 625 333 625 305 625 c 2
 247 625 l 2
 236 625 231 624 231 624 c 2
 221 624 214 626 211 631 c 0
 209 633 206 637 206 642 c 0
 206 644 207 647 207 649 c 0
 208 658 213 666 220 673 c 0
 227 680 237 684 249 684 c 0
 298 685 343 686 384 686 c 0
 466 686 536 683 594 676 c 0xd0
 602 676 608 673 612 670 c 0
 616 667 617 663 617 657 c 0
 617 655 616 652 616 650 c 0
 614 641 609 631 601 622 c 0
 597 618 594 615 589 613 c 0
 587 612 583 611 581 611 c 0
 579 611 576 612 574 612 c 0
 553 615 519 619 468 621 c 1
 462 595 455 563 448 523 c 0
 442 479 435 443 428 416 c 0
 422 384 415 349 407 309 c 0
 399 269 391 235 383 206 c 0
 366 146 348 98 331 62 c 0
 314 26 299 0 284 -14 c 0
 269 -28 254 -35 239 -35 c 0
 221 -35 203 -31 187 -24 c 0
 170 -17 156 -7 145 5 c 0
 134 17 124 31 115 46 c 0
 106 61 100 76 95 91 c 0
 90 106 86 118 85 129 c 0
 84 140 82 146 82 150 c 2
 82 159 l 2
 82 164 84 170 86 177 c 0
 88 184 91 191 94 197 c 0
 97 203 101 209 107 213 c 0
 113 217 120 221 127 222 c 0
 130 222 133 223 135 223 c 0
 140 223 144 221 146 218 c 0
 148 215 150 210 150 205 c 0
 150 203 149 199 149 196 c 0
 147 187 145 176 145 165 c 0
 145 154 147 142 150 128 c 0
 153 114 158 100 165 87 c 0
 172 74 184 64 199 55 c 0
 213 46 229 42 249 42 c 0
 256 42 264 45 270 52 c 0xb0
EndSplineSet
Validated: 1
EndChar

StartChar: K
Encoding: 75 75 53
Width: 700
GlyphClass: 2
Flags: HMW
HStem: -22 21G<110.5 116> 695 20G<596.999 599.999>
LayerCount: 2
Fore
SplineSet
88 10 m 0
 88 13 88.9990234375 18 90.9990234375 23 c 0
 99.9990234375 53 112.999023438 110 131.999023438 193 c 0
 149.999023438 277 166.999023438 363 184.999023438 452 c 0
 193.999023438 496 200.999023438 526 203.999023438 541 c 0
 205.999023438 556 211.999023438 578 218.999023438 607 c 0
 225.999023438 635 230.999023438 653 231.999023438 660 c 0
 235.999023438 678 241.999023438 691 249.999023438 700 c 0
 257.999023438 709 265.999023438 714 274.999023438 714 c 1
 275.999023438 722 277.999023438 722 277.999023438 714 c 1
 285.999023438 714 291.999023438 711 295.999023438 703 c 0
 297.999023438 698 298.999023438 692 298.999023438 683 c 0
 298.999023438 678 297.999023438 674 296.999023438 669 c 0
 293.999023438 653 285.999023438 618 272.999023438 564 c 0
 259.999023438 509 246.999023438 452 233.999023438 391 c 1
 375.999023438 530 l 2
 416.999023438 573 456.999023438 611 498.999023438 642 c 0
 531.999023438 670 552.999023438 688 561.999023438 695 c 0
 570.999023438 704 579.999023438 710 586.999023438 712 c 0
 591.999023438 714 595.999023438 715 597.999023438 715 c 0
 601.999023438 715 605.999023438 711 608.999023438 703 c 0
 610.999023438 698 611.999023438 692 611.999023438 685 c 0
 611.999023438 676 602.999023438 665 585.999023438 651 c 0
 573.999023438 639 533.999023438 603 464.999023438 542 c 1
 400.999023438 478 340.999023438 419 285.999023438 366 c 1
 290.999023438 357 l 2
 304.999023438 334 329.999023438 296 365.999023438 245 c 0
 401.999023438 191 431.999023438 145 456.999023438 106 c 0
 481.977539062 71.0302734375 496.978515625 48.0400390625 499 39.0234375 c 0
 498.884765625 28.3505859375 496.852539062 17.7333984375 492 9 c 0
 488 0 483 -8 476 -13 c 0
 469 -18 464 -21 459 -21 c 0
 451 -21 444 -13 438 4 c 0
 434 13 418 36 391 73 c 0
 364 110 335 152 304 196 c 0
 273 245 251 283 238 310 c 2
 224 337 l 1
 213 286 l 1
 162 24 l 2
 158 9 151 -2 141 -10 c 0
 131 -18 121 -22 111 -22 c 0
 110 -22 108 -21 108 -21 c 2
 100 -21 94 -17 91 -8 c 0
 89 -3 88 3 88 10 c 0
EndSplineSet
Validated: 1
EndChar

StartChar: L
Encoding: 76 76 54
Width: 700
GlyphClass: 2
Flags: HMW
HStem: -15 62.9962
LayerCount: 2
Fore
SplineSet
557 72 m 0
 560 63 560.999023438 54 559.999023438 44 c 0
 557.999023438 35 552.999023438 27 547.999023438 22 c 0
 542.999023438 17 532.999023438 12 518.999023438 10 c 0
 475.999023438 1 415.999023438 -5 338.999023438 -9 c 0
 259.999023438 -13 199.999023438 -15 159.999023438 -15 c 0
 151.999023438 -15 145.999023438 -12 142.999023438 -7 c 0
 140.999023438 -5 139.999023438 -1 139.999023438 4 c 0
 139.999023438 9 140.999023438 14 142.999023438 20 c 0
 155.999023438 51 167.999023438 89 180.999023438 135 c 0
 203.999023438 206 224.999023438 275 242.999023438 341 c 0
 251.999023438 372 263.999023438 427 278.999023438 506 c 0
 293.999023438 585 301.999023438 629 302.999023438 636 c 0
 306.999023438 652 312.999023438 664 320.999023438 671 c 0
 328.999023438 678 336.999023438 682 344.999023438 682 c 1
 345.999023438 674 347.999023438 674 347.999023438 682 c 1
 354.999023438 682 360.999023438 679 364.999023438 674 c 0
 366.999023438 672 367.999023438 668 367.999023438 662 c 0
 367.999023438 656 366.999023438 650 365.999023438 645 c 0
 361.999023438 626 356.999023438 600 348.999023438 567 c 0
 339.999023438 517 329.999023438 475 319.999023438 441 c 0
 308.999023438 389 298.999023438 345 288.999023438 309 c 0
 282.999023438 281 272.999023438 240 257.999023438 187 c 0
 241.999023438 134 230.999023438 92 223.999023438 62 c 0
 223.411132812 54.35546875 222.477539062 49.8232421875 221.604492188 47.99609375 c 1
 235.645507812 47.9287109375 244.180664062 47 249 47 c 0
 293 47 345 51 405 58 c 0
 469 65 515 72 540 78 c 1
 547 78 l 2
 552 78 555 76 557 72 c 0
EndSplineSet
Validated: 1
EndChar

StartChar: M
Encoding: 77 77 55
Width: 700
GlyphClass: 2
Flags: HMW
HStem: 664 20G
VStem: 91 1<-14.5 -10> 468 62<39 84 51.5 71>
LayerCount: 2
Fore
SplineSet
288 -7 m 1
 281 -7 276 -5 273 -1 c 0
 270 4 267 11 267 19 c 0
 267 51 272 124 281 239 c 0
 290 354 298 464 307 570 c 0
 309 610 314 648 317 684 c 1
 307 651 296 616 285 578 c 0
 270 529 255 470 237 403 c 0
 227 364 214 316 198 257 c 0
 189 224 180 194 172 167 c 0
 162 137 154 113 149 95 c 0
 144 78 139 65 138 58 c 0
 134 37 127 20 117 8 c 0
 108 -4 101 -10 92 -10 c 1
 92 -19 91 -19 91 -10 c 1
 90 -10 88 -8 87 -7 c 0
 83 -5 80 6 80 25 c 0
 80 33 83 44 86 58 c 0
 88 66 91 79 97 98 c 0
 103 118 112 144 123 178 c 0
 134 214 144 241 149 260 c 2
 196 412 l 2
 204 441 213 477 226 519 c 0
 250 601 268 649 279 666 c 0
 286 679 294 689 305 695 c 0
 316 701 326 704 334 704 c 2
 338 704 l 1
 339 704 l 2
 348 704 355 702 360 697 c 0
 365 691 366 681 366 667 c 2
 366 659 l 2
 366 606 355 483 333 291 c 0
 323 198 317 137 315 107 c 1
 322 97 330 95 337 102 c 1
 363 201 387 289 410 368 c 0
 427 425 446 482 467 539 c 0
 488 595 504 638 518 668 c 0
 522 678 528 686 535 692 c 0
 543 698 550 702 556 703 c 0
 562 703 568 704 571 704 c 2
 579 704 l 1
 583 704 l 1
 595 704 l 2
 597 704 602 703 606 702 c 0
 610 700 613 697 614 695 c 0
 615 693 616 689 617 683 c 0
 618 679 619 674 619 668 c 2
 619 665 l 2
 617 644 602 546 573 370 c 0
 545 195 530 96 530 72 c 0
 530 31 519 6 499 -4 c 0
 495 -6 492 -7 489 -7 c 0
 486 -7 481 -5 478 -2 c 0
 471 3 468 17 468 39 c 2
 468 44 l 2
 468 98 501 294 566 632 c 1
 559 642 550 644 542 639 c 1
 502 537 472 446 450 363 c 0
 428 286 406 212 383 143 c 0
 360 74 345 32 337 17 c 0
 330 1 314 -7 292 -7 c 1
 291 -15 289 -15 288 -7 c 1
EndSplineSet
Validated: 1
EndChar

StartChar: N
Encoding: 78 78 56
Width: 700
GlyphClass: 2
Flags: HMW
HStem: -12 21G<86 92.5> 685 20G<270.5 273.5 600.5 607.5>
LayerCount: 2
Fore
SplineSet
517 190 m 0
 503 133 492 90 484 63 c 0
 475 35 469 18 466 11 c 0
 459 -6 445 -14 423 -14 c 1
 422 -22 420 -22 419 -14 c 1
 412 -14 407 -12 404 -7 c 0
 400 -2 397 5 397 13 c 0
 395 26 388 56 375 101 c 2
 336 246 l 2
 323 295 309 349 296 410 c 0
 283 471 275 523 271 565 c 0
 269 595 265 624 263 653 c 1
 258 626 253 597 248 567 c 0
 236 494 223 425 209 362 c 0
 194 298 178 233 161 167 c 0
 144 103 134 63 132 49 c 0
 129 27 122 11 113 2 c 0
 105 -7 97 -12 88 -12 c 0
 84 -12 81 -10 79 -8 c 0
 77 -6 75 3 75 17 c 0
 75 25 77 35 80 48 c 0
 82 62 96 114 118 204 c 2
 177 443 l 2
 193 512 207 578 218 640 c 0
 220 653 223 664 228 673 c 0
 232 683 237 690 243 695 c 0
 250 699 255 702 260 703 c 0
 265 704 269 705 272 705 c 0
 275 705 279 704 281 704 c 0
 290 704 297 702 302 697 c 0
 306 692 309 682 309 668 c 0
 311 625 328 543 358 422 c 0
 387 301 413 204 435 130 c 0
 439 115 443 102 447 92 c 1
 450 103 454 116 457 132 c 0
 472 195 493 288 518 409 c 0
 545 530 560 609 564 649 c 0
 566 664 571 677 579 688 c 0
 588 699 596 705 605 705 c 0
 610 705 615 704 617 703 c 0
 619 702 622 700 623 698 c 0
 624 693 625 685 625 673 c 0
 625 671 624 664 623 654 c 0
 623 643 611 590 589 495 c 0
 568 397 544 295 517 190 c 0
EndSplineSet
Validated: 1
EndChar

StartChar: O
Encoding: 79 79 57
Width: 700
GlyphClass: 2
Flags: HMW
HStem: -24 72<255 256> 649 44<429 430.5>
VStem: 114 70<138.5 181.5> 521 65<517 533 517 534>
LayerCount: 2
Fore
SplineSet
561 367 m 0
 553 329 543 291 532 252 c 0
 521 213 510 183 499 161 c 0
 485 130 470 104 454 82 c 0
 439 61 423 43 408 29 c 0
 393 15 377 5 359 -3 c 0
 341 -11 323 -17 305 -20 c 0
 287 -23 267 -24 245 -24 c 0
 212 -24 183 -12 161 10 c 0
 139 32 124 62 117 101 c 0
 115 116 114 131 114 146 c 0
 114 161 118 189 125 231 c 0
 126 234 128 240 129 248 c 0
 136 278 141 302 146 320 c 0
 151 338 157 362 166 392 c 0
 183 448 205 501 234 551 c 0
 256 593 286 627 326 653 c 0
 366 679 408 693 450 693 c 0
 471 693 491 688 510 679 c 0
 529 670 544 657 557 639 c 0
 570 621 578 598 583 570 c 0
 585 556 586 541 586 525 c 0
 586 509 584 492 582 473 c 0
 577 440 569 405 561 367 c 0
310 55 m 0
 326 60 342 67 358 77 c 0
 374 87 388 101 402 118 c 0
 416 135 428 154 439 176 c 0
 444 184 451 204 460 237 c 0
 469 269 480 307 491 351 c 0
 502 395 511 439 518 481 c 0
 520 494 521 507 521 519 c 0
 521 549 516 576 503 598 c 0
 492 617 479 630 463 639 c 0
 452 646 438 649 423 649 c 0
 390 649 359 635 331 606 c 0
 304 579 281 541 261 492 c 0
 234 428 212 352 195 265 c 0
 188 225 184 194 184 169 c 0
 184 140 188 116 195 97 c 0
 200 83 209 71 221 62 c 0
 233 53 247 48 263 48 c 0
 279 48 294 50 310 55 c 0
EndSplineSet
Validated: 1
EndChar

StartChar: P
Encoding: 80 80 58
Width: 700
GlyphClass: 2
Flags: HMW
HStem: 230 69<304.5 327.5 302.5 340.5> 642 45<406 451.5>
VStem: 238 3 534 62<538.5 539.5>
LayerCount: 2
Fore
SplineSet
299 633 m 1
 295 614 289 587 280 551 c 0
 271 515 262 478 254 440 c 0
 246 402 237 361 228 319 c 1
 237 315 l 2
 259 304 286 299 319 299 c 0
 336 299 351 301 366 304 c 0
 381 307 394 311 406 316 c 0
 418 321 428 328 438 336 c 0
 448 344 458 352 465 360 c 0
 472 368 479 378 486 389 c 0
 493 400 498 409 502 418 c 0
 506 427 510 437 514 448 c 0
 518 459 522 469 524 476 c 0
 526 483 529 493 531 504 c 0
 533 515 534 526 534 535 c 0
 534 544 534 551 533 558 c 0
 530 575 523 588 514 599 c 0
 505 610 496 618 483 625 c 0
 472 632 460 637 449 639 c 0
 438 641 427 642 416 642 c 0
 396 642 358 639 299 633 c 1
137 141 m 0
 144 163 150.000976562 193 156.000976562 231 c 0
 163.000976562 258 171.000976562 294 178.000976562 337 c 0
 187.000976562 379 193.000976562 414 199.000976562 442 c 0
 209.786132812 490.04296875 223.455078125 547.69921875 240.0078125 614.96875 c 0
 239.359375 615.579101562 238.536132812 618.640625 238 624 c 1
 237 617 235 619 235 628 c 0
 235 630 234 632 234 634 c 0
 234 636 235 640 236 642 c 0
 238 649 241 655 246 660 c 0
 251 665 256 668 260 669 c 0
 281 674 311 679 351 682 c 0
 391 685 418 687 433 687 c 0
 470 687 504 680 531 665 c 0
 558 650 577 627 588 598 c 0
 594 581 596 563 596 543 c 0
 596 534 595 516 591 489 c 0
 582 453 569 420 550 388 c 0
 531 356 511 328 487 305 c 0
 465 282 439 263 411 250 c 0
 383 237 355 230 326 230 c 0
 283 230 249 233 227 240 c 1
 222 233 219 235 215 244 c 1
 208 207 203 176 199 151 c 0
 195 126 188 81 177 14 c 0
 175 4 168 -4 158 -10 c 0
 148 -16 139 -19 129 -19 c 0
 119 -19 112 -16 107 -11 c 0
 105 -9 103 -5 103 -1 c 0
 103 3 105 7 107 14 c 0
 114 42 124 84 137 141 c 0
EndSplineSet
Validated: 1
EndChar

StartChar: Q
Encoding: 81 81 59
Width: 700
GlyphClass: 2
Flags: HMW
HStem: -39 20G -24 72 649 44
VStem: 116 71 288 46<146.5 196.5> 519 65
LayerCount: 2
Fore
SplineSet
292 48 m 1x7c
 306 48 l 1
 303 63 l 2
 296 92 291 115 289 132 c 0
 289 138 288 144 288 149 c 0
 288 174 295 193 310 204 c 0
 315 208 320 210 324 210 c 0
 326 210 327 210 329 208 c 0
 331 206 334 200 334 193 c 0
 336 160 345 123 357 82 c 2
 361 67 l 1
 372 75 l 2
 402 96 427 129 444 173 c 0
 449 183 455 203 463 234 c 0
 472 265 481 303 492 349 c 0
 503 395 511 439 516 481 c 0
 518 494 519 507 519 519 c 0
 519 552 513 579 500 601 c 0
 490 618 478 631 462 639 c 0
 451 646 437 649 422 649 c 0
 389 649 358 635 330 608 c 0
 302 581 280 543 260 494 c 0
 229 423 207 347 194 264 c 0
 190 240 187 218 187 197 c 0
 187 184 189 171 191 158 c 0
 196 125 205 99 221 79 c 0
 238 58 258 48 283 48 c 2
 292 48 l 1x7c
401 -211 m 0
 394 -209 389.000976562 -203.999023438 386.000976562 -194.999023438 c 0
 381.000976562 -182.999023438 372.000976562 -159.999023438 360.000976562 -127.999023438 c 0
 348.000976562 -95.9990234375 336.000976562 -59.9990234375 323.000976562 -18.9990234375 c 1xbc
 321.000976562 -27.9990234375 316.000976562 -27.9990234375 313.000976562 -20.9990234375 c 1
 298.000976562 -22.9990234375 282.000976562 -23.9990234375 265.000976562 -23.9990234375 c 0
 242.000976562 -23.9990234375 221.000976562 -19.9990234375 201.000976562 -10.9990234375 c 0
 181.000976562 -1.9990234375 166.000976562 10.0009765625 154.000976562 25.0009765625 c 0
 142.000976562 40.0009765625 132.000976562 60.0009765625 125.000976562 81.0009765625 c 0
 118.000976562 102.000976562 116.000976562 126.000976562 116.000976562 152.000976562 c 0
 116.000976562 178.000976562 118.000976562 205.000976562 123.000976562 232.000976562 c 0
 148.000976562 360.000976562 186.000976562 465.000976562 233.000976562 547.000976562 c 0
 255.000976562 589.000976562 286.000976562 623.000976562 326.000976562 651.000976562 c 0
 366.000976562 679.000976562 407.000976562 693.000976562 449.000976562 693.000976562 c 0
 494.000976562 693.000976562 529.000976562 677.000976562 554.000976562 644.000976562 c 0
 567.000976562 627.000976562 575.000976562 605.000976562 580.000976562 576.000976562 c 0
 582.000976562 561.000976562 584.000976562 545.000976562 584.000976562 528.000976562 c 0
 584.000976562 511.000976562 582.000976562 493.000976562 580.000976562 473.000976562 c 0
 574.000976562 427.000976562 563.000976562 372.000976562 547.000976562 307.000976562 c 0
 531.000976562 242.000976562 514.000976562 191.000976562 499.000976562 155.000976562 c 0
 471.000976562 86.0009765625 434.000976562 36.0009765625 387.000976562 7.0009765625 c 1
 384.427734375 -1.5751953125 381.119140625 -4.267578125 378.967773438 -0.4453125 c 1
 395.645507812 -42.5927734375 412.341796875 -83.77734375 430 -124 c 0
 435 -144 441 -155 446 -158 c 0
 446 -160 447 -163 447 -165 c 0
 447 -167 447 -170 446 -173 c 0
 444 -180 439 -187 434 -193 c 0
 429 -199 426 -205 422 -207 c 0
 417 -210 412 -212 407 -212 c 0
 405 -212 403 -211 401 -211 c 0
EndSplineSet
Validated: 1
EndChar

StartChar: R
Encoding: 82 82 60
Width: 700
GlyphClass: 2
Flags: HMW
VStem: 125 1<-21 -19> 305 3 308 4<682 682> 534 64<459.5 483>
LayerCount: 2
Fore
SplineSet
462 -17 m 0xd0
 456 -15 451 -9 447 0 c 0
 440 15 431 32 418 53 c 0
 405 74 390 97 371 122 c 0
 352 147 331 172 305 197 c 0
 279 222 254 242 228 257 c 0
 226.296875 255.296875 224.709960938 254.40625 223.16015625 254.40625 c 0
 220.159179688 254.40625 217.296875 257.74609375 214 265 c 1
 214 253.838867188 212.525390625 248.57421875 211.475585938 248.57421875 c 0
 211.302734375 248.57421875 211.141601562 248.716796875 211 249 c 1
 204 210 196 165 189 112 c 0
 182 59 178 27 176 14 c 0
 174 4 168 -4 158 -10 c 0
 148 -16 139 -19 128 -19 c 2
 126 -19 l 1
 126 -23 125.75 -25 125.5 -25 c 0
 125.25 -25 125 -23 125 -19 c 1
 116 -19 109 -16 105 -11 c 0
 104 -9 102 -5 102 -1 c 0
 102 3 103 8 105 14 c 0
 116 49 124 79 130 104 c 0
 136 129 150 189 171 284 c 0
 173 298 180 325 191 365 c 0
 202 407 212 446 219 483 c 0
 223 505 227 537 233 576 c 0
 239 615 243 638 245 645 c 1
 193.037109375 468.625 167.037109375 380.375 167 380.375 c 1
 167 380.375 192.962890625 468.875 245 646 c 1
 245 643.215820312 245.158203125 641.85546875 245.348632812 641.85546875 c 0
 245.63671875 641.85546875 246 644.9765625 246 651 c 0
 247 661 252 670 261 678 c 0
 268 686 277 690 287 690 c 0
 296 690 302 688 305 685 c 0
 305.5625 679.9375 306.44140625 677.40625 307.102539062 677.40625 c 0
 307.6171875 677.40625 308 678.9375 308 682 c 1
 308.5 678 309.25 676 310 676 c 0
 310.75 676 311.5 678 312 682 c 1xb0
 356 680 397 672 432 661 c 0
 467 649 497 635 519 619 c 0
 541 603 560 584 573 563 c 0
 586 542 595 523 597 502 c 0
 597 495 598 487 598 479 c 0
 598 466 596 453 594 440 c 0
 587 409 574 383 554 363 c 0
 545 354 534 345 521 337 c 0
 508 329 495 323 481 318 c 0
 468 313 453 308 436 304 c 0
 419 300 403 295 386 293 c 0
 369 291 350 289 329 287 c 1
 322.8125 281.9375 316.625 279.40625 310.4375 279.40625 c 2
 296 284 l 1
 304.36328125 270.060546875 313.590820312 263.893554688 322.076171875 263.893554688 c 0
 322.721679688 263.893554688 323.36328125 263.9296875 324 264 c 0
 373 230 413 190 446 146 c 0
 480 102 501 64 508 33 c 1
 508 30 l 2
 508 22 506 15 502 8 c 0
 497 -1 490 -7 483 -12 c 0
 477 -16 472 -18 467 -18 c 0
 466 -18 464 -17 462 -17 c 0xd0
454 368 m 0
 466 372 477 377 488 384 c 0
 510 397 525 417 531 442 c 0
 533 449 534 456 534 463 c 0
 534 477 531 491 524 504 c 0
 514 524 500 540 483 554 c 0
 467 568 448 581 427 592 c 0
 387 613 349 628 309 636 c 2
 299 638 l 1
 288 581 279 535 273 500 c 0
 272 493 269 480 264 462 c 0
 259 444 249 407 232 350 c 1
 244 347 l 2
 251 346 261 345 272 345 c 2
 275 345 l 2
 277 345 287 346 306 347 c 0
 376 350 425 357 454 368 c 0
EndSplineSet
Validated: 1
EndChar

StartChar: S
Encoding: 83 83 61
Width: 700
GlyphClass: 2
Flags: HMW
HStem: -29 62<239.5 243.5> 668 56<448.5 493.5>
VStem: 200 70<474 520.5> 464 71<234.5 287.5>
LayerCount: 2
Fore
SplineSet
103 117 m 0
 110 120 116 123 119 123 c 0
 122 123 126 124 127 124 c 2
 132 124 l 2
 133 124 135 122 137 119 c 0
 139 116 143 110 146 103 c 0
 154 82 167 65 187 52 c 0
 205 39 227 33 252 33 c 0
 267 33 283 36 300 41 c 0
 317 46 333 52 350 62 c 0
 367 72 383 84 398 97 c 0
 413 110 425 125 436 143 c 0
 447 161 455 180 459 200 c 0
 462 216 464 229 464 240 c 0
 464 259 461 275 454 290 c 0
 449 299 442 308 433 317 c 0
 424 326 414 334 401 341 c 0
 388 348 373 353 354 358 c 0
 335 363 314 368 291 371 c 0
 273 373 257 380 244 389 c 0
 231 398 222 409 215 422 c 0
 205 442 200 463 200 485 c 0
 200 492 200 499 202 508 c 0
 207 530 214 551 225 572 c 0
 236 593 250 612 267 631 c 0
 284 650 304 666 325 680 c 0
 346 694 371 704 399 712 c 0
 427 720 455 724 486 724 c 0
 501 724 523 722 550 719 c 0
 577 716 596 712 605 708 c 0
 612 706 617 701 619 694 c 0
 619 691 620 687 620 683 c 0
 620 679 619 673 617 667 c 0
 615 661 612 656 609 654 c 0
 606 652 602 649 598 649 c 0
 594 649 591 648 587 648 c 0
 583 648 579 649 574 650 c 0
 572 650 568 652 566 653 c 0
 555 656 547 660 540 661 c 0
 533 662 523 664 509 665 c 0
 495 667 479 668 462 668 c 0
 435 668 408 663 382 653 c 0
 356 643 332 628 311 608 c 0
 290 588 278 566 273 540 c 0
 271 532 270 524 270 517 c 0
 270 495 278 476 291 460 c 0
 308 439 336 428 374 426 c 0
 404 424 430 418 451 409 c 0
 472 400 489 389 500 376 c 0
 512 363 521 348 527 331 c 0
 533 314 535 296 535 279 c 0
 535 262 534 243 529 223 c 0
 522 192 511 164 496 137 c 0
 481 110 465 87 445 67 c 0
 425 47 404 30 381 15 c 0
 358 0 332 -11 307 -18 c 0
 282 -25 256 -29 231 -29 c 0
 191 -29 159 -20 132 -2 c 0
 105 16 88 36 82 60 c 0
 81 67 80 74 80 80 c 0
 80 86 82 92 84 97 c 0
 88 106 94 112 103 117 c 0
EndSplineSet
Validated: 1
EndChar

StartChar: T
Encoding: 84 84 62
Width: 700
GlyphClass: 2
Flags: HMW
HStem: 612 64<514 541.5 514 541.5>
LayerCount: 2
Fore
SplineSet
255 303 m 0
 283 459 301 560 310 606 c 1
 310 603 312 607 313 620 c 1
 229 625 182 628 170 630 c 0
 150 633 140 640 140 649 c 0
 140 651 141 653 141 655 c 0
 142 665 148 674 157 682 c 0
 163 687 170 690 177 690 c 0
 179 690 181 689 183 689 c 0
 216 682 333 678 536 676 c 0
 547 676 554 674 556 670 c 0
 558 666 559 662 559 657 c 0
 559 655 558 652 558 650 c 0
 556 640 550 631 542 622 c 0
 535 615 527 612 518 612 c 2
 514 612 l 2
 495.25 609.75 476.921875 608.625 459.015625 608.625 c 0
 429.171875 608.625 400.5 611.75 373 618 c 1
 345 475 308 277 263 24 c 0
 260 13 253 4 243 -3 c 0
 233 -10 223 -13 214 -13 c 2
 211 -13 l 2
 203 -13 197 -10 193 -5 c 0
 192 -3 191 1 191 6 c 0
 191 11 192 16 194 23 c 0
 203 54 224 147 255 303 c 0
EndSplineSet
Validated: 1
EndChar

StartChar: U
Encoding: 85 85 63
Width: 700
GlyphClass: 2
Flags: HMW
HStem: -29 67<228 285>
VStem: 88 68<141.5 183.5> 188 62
LayerCount: 2
Fore
SplineSet
520 251 m 0
 513 222 504 194 491 168 c 0
 480 143 467 121 454 102 c 0
 441 83 428 66 413 51 c 0
 398 36 383 24 368 14 c 0
 353 4 338 -5 322 -11 c 0
 306 -17 292 -21 278 -24 c 0
 264 -27 249 -29 235 -29 c 0
 221 -29 206 -27 191 -22 c 0
 175 -17 159 -8 144 4 c 0
 129 16 117 31 107 49 c 0
 97 67 91 91 89 121 c 0
 89 129 88 137 88 146 c 0
 88 170 90 196 95 224 c 0
 137 427 168 564 188 637 c 0
 192 653 199 665 208 673 c 0
 217 681 226 685 235 685 c 0
 241 685 245 684 247 681 c 0
 249 678 250 673 250 667 c 0
 250 661 248 655 247 648 c 0
 197 422 168 285 161 238 c 0
 157 214 156 193 156 174 c 0
 156 160 157 146 159 131 c 0
 162 113 169 97 177 83 c 0
 185 69 197 59 212 50 c 0
 227 42 243 38 263 38 c 0
 307 38 346 54 380 88 c 0
 414 122 439 172 457 239 c 0
 466 267 476 303 485 345 c 0
 495 387 504 426 511 459 c 0
 534 566 547 623 548 629 c 0
 555 656 563 673 571 679 c 0
 575 682 578 685 581 685 c 0
 584 685 588 686 593 686 c 0
 598 686 601 685 603 684 c 0
 605 683 608 680 610 676 c 0
 612 672 613 669 613 664 c 0
 613 659 612 652 611 645 c 0
 592 541 562 410 520 251 c 0
EndSplineSet
Validated: 1
EndChar

StartChar: V
Encoding: 86 86 64
Width: 700
GlyphClass: 2
Flags: HMW
VStem: 125 64<623 664 631 664>
LayerCount: 2
Fore
SplineSet
575 674 m 2
 575 668 l 2
 574 662 569 654 562 645 c 0
 540 610 488 512 405 352 c 1
 328 193 277 85 253 27 c 0
 249 15 244 6 237 -1 c 0
 230 -8 222 -12 213 -12 c 2
 207 -12 l 2
 197 -12 189 -10 184 -5 c 0
 178 0 174 10 173 24 c 0
 164 96 153 204 142 350 c 0
 131 494 125 585 125 623 c 2
 125 631 l 2
 125 672 134 697 154 707 c 0
 159 709 162 711 166 711 c 0
 170 711 174 709 177 706 c 0
 184 700 188 686 189 664 c 0
 189 659 192 599 198 486 c 2
 206 359 l 1
 214 226 l 2
 217 184 220 151 222 126 c 0
 222 109 224 94 225 82 c 1
 232 90 238 102 245 117 c 0
 281 192 333 301 400 445 c 2
 507 664 l 2
 517 685 528 699 539 705 c 0
 544 709 549 711 554 711 c 0
 556 711 559 710 564 708 c 0
 567 704 570 699 572 692 c 0
 574 687 575 681 575 674 c 2
EndSplineSet
Validated: 1
EndChar

StartChar: W
Encoding: 87 87 65
Width: 700
GlyphClass: 2
Flags: HMW
VStem: 562 57
LayerCount: 2
Fore
SplineSet
93 27 m 2
 93 30 l 1
 93 30 94 31 94 32 c 0
 94 34 95 58 98 105 c 0
 100 136 104 168 108 199 c 0
 118 276 139 420 170 632 c 0
 176 675 188 702 208 711 c 0
 210 713 215 714 217 714 c 2
 219 714 l 2
 223 713 226 710 229 708 c 0
 231 707 233 702 233 693 c 0
 233 690 234 686 234 681 c 0
 234 679 233 676 232 672 c 0
 223 633 201 490 166 242 c 0
 163 219 160 187 155 147 c 0
 150 103 146 75 145 65 c 1
 152 55 160 53 168 59 c 1
 175 81 185 108 195 140 c 0
 204 169 225 237 258 342 c 2
 258 342 272 392 304 493 c 0
 321 545 336 588 348 622 c 0
 360 657 368 678 373 687 c 0
 380 703 395 711 416 711 c 1
 417 720 419 720 420 712 c 1
 435 712 442 703 442 685 c 0
 442 668 438 621 430 544 c 0
 428 517 423 479 417 428 c 0
 412 378 408 340 406 313 c 0
 401 273 394 208 388 116 c 0
 386 81 385 49 383 18 c 1
 392 45 401 75 410 108 c 0
 440 204 477 332 520 493 c 0
 544 572 558 623 562 645 c 0
 565 667 572 684 582 696 c 0
 591 707 599 713 607 713 c 0
 609 713 613 712 614 711 c 0
 618 708 619 697 619 678 c 0
 619 670 618 659 615 645 c 0
 607 611 592 560 570 491 c 2
 525 347 l 1
 525 347 514 303 487 217 c 0
 470 161 457 118 446 89 c 0
 435 59 426 39 419 28 c 0
 412 14 402 4 391 -3 c 0
 380 -8 372 -11 365 -11 c 2
 361 -11 l 1
 359 -11 l 2
 350 -11 343 -8 338 -3 c 0
 333 2 331 12 331 26 c 2
 331 30 l 2
 331 92 338 175 352 279 c 2
 370 411 l 2
 382 504 390 566 393 595 c 1
 386 605 378 607 371 601 c 1
 340 490 306 374 270 255 c 0
 235 137 210 61 195 26 c 0
 192 15 186 7 178 1 c 0
 170 -4 162 -8 154 -9 c 0
 146 -10 140 -11 133 -11 c 0
 122 -10 112 -9 104 -8 c 0
 101 -6 99 -4 98 -2 c 0
 96 0 95 4 94 11 c 0
 93 16 93 21 93 27 c 2
127 -11 m 1024
EndSplineSet
Validated: 1
EndChar

StartChar: X
Encoding: 88 88 66
Width: 700
GlyphClass: 2
Flags: HMW
VStem: 223 66
LayerCount: 2
Fore
SplineSet
452 -18 m 0
 445 -15 439 -7 433 5 c 0
 426 19 417 41 408 71 c 0
 399 100 388 137 376 183 c 0
 364 230 353 271 344 305 c 1
 331 288 l 2
 306 255 266 200 213 123 c 0
 157 48 126 7 119 0 c 0
 110 -11 102 -18 95 -21 c 0
 91 -23 87 -24 85 -24 c 0
 80 -24 76 -19 71 -9 c 0
 68 -3 66 4 66 11 c 0
 66 18 73 31 85 48 c 0
 92 56 128 98 192 175 c 1
 252 255 295 315 324 357 c 1
 228 627 l 2
 225 635 223 642 223 649 c 0
 223 667 229 682 240 693 c 0
 248 702 256 706 264 706 c 0
 266 706 270 704 274 702 c 0
 280 698 285 690 289 679 c 0
 302 651 329 567 371 427 c 2
 378 405 l 1
 391 424 l 2
 489 568 551 654 577 683 c 0
 585 694 593 701 601 705 c 0
 606 707 611 709 615 709 c 0
 620 709 624 707 628 700 c 0
 630 695 633 689 633 683 c 0
 633 682 634 679 634 676 c 2
 631 667 l 2
 629 661 625 655 618 648 c 2
 524 532 l 1
 465 450 426 395 405 364 c 0
 403 362 400 358 396 351 c 1
 406 321 422 269 443 195 c 0
 464 121 479 75 488 55 c 0
 493 45 495 36 495 28 c 0
 495 22 494 16 493 11 c 0
 492 6 489 1 485 -5 c 0
 477 -16 469 -22 462 -22 c 0
 460 -22 456 -20 452 -18 c 0
EndSplineSet
Validated: 1
EndChar

StartChar: Y
Encoding: 89 89 67
Width: 700
GlyphClass: 2
Flags: HMW
VStem: 157 76<613 653.5 626 653.5>
LayerCount: 2
Fore
SplineSet
580 623 m 0
 575 615 566 601.999023438 553 582.999023438 c 0
 540 563.999023438 528 546.999023438 520 533.999023438 c 0
 512 520.999023438 495 496.999023438 470 461.999023438 c 0
 448 426.999023438 428 396.999023438 414 374.999023438 c 0
 381.958007812 324.647460938 346.34765625 298.091796875 318 209 c 0
 297 143 301.8203125 95.607421875 254 -17 c 0
 248.903320312 -29.0009765625 228 -35 217 -38 c 0
 215 -38 211 -39 209 -39 c 0
 204 -39 199 -37 194 -33 c 0
 189 -28 185 -21 185 -13 c 0
 185 -10 187 -6 187 -4 c 0
 188 3 193.305664062 8.7080078125 197 18 c 0
 230 101 197 18 261 231 c 1
 255 258 247 291 236 329 c 0
 225 367 218 393 214 407 c 0
 210 421 203 443 193 475 c 0
 184 504 176 530 170 551 c 0
 164 572 159 593 157 613 c 2
 157 626 l 2
 157 634 158 641 160 647 c 0
 163 657 168 665 173 670 c 0
 178 675 183 680 190 682 c 0
 196 684 201 686 206 686 c 0
 210 686 214 685 218 684 c 0
 222 683 225 679 227 673 c 0
 229 667 233 659 233 648 c 0
 234 625 237 600 241 573 c 0
 242 564 244 552 248 536 c 0
 252 520 255 510 256 506 c 0
 267 464 274 442 274 442 c 2
 285 403 293 365 299 328 c 0
 300 311 302 301 303 300 c 0
 308 300 314 308 319 323 c 0
 321 327 330 340 343 362 c 0
 356 384 378 418 407 465 c 0
 436 512 457 548 472 574 c 0
 477 583 485 595 496 611 c 0
 508 627 518 640 523 649 c 0
 529 660 535 668 541 675 c 0
 547 682 553 686 558 688 c 0
 568 692 576 692 583 689 c 0
 585 687 589 684 591 682 c 0
 594 677 595 670 595 663 c 0
 595 661 595 656 594 651 c 0
 592 642 586 633 580 623 c 0
EndSplineSet
Validated: 1
EndChar

StartChar: Z
Encoding: 90 90 68
Width: 700
GlyphClass: 2
Flags: HMW
HStem: 9 63 627 69<236.5 283 240 283> 629 55
LayerCount: 2
Fore
SplineSet
491 40 m 2xa0
 489 29 484 21 477 14 c 0
 470 7 461 3 447 3 c 0
 444 3 411 4 351 6 c 0
 291 8 235 9 182 9 c 0
 159 9 129 8 90 7 c 2
 89 7 l 2
 87 7 83 8 82 9 c 0
 81 10 78 15 76 20 c 0
 74 25 74 31 74 36 c 2
 74 49 l 2
 75 55 81 66 90 81 c 0
 99 96 114 117 135 144 c 0
 163 181 221 256 311 368 c 0
 400 480 468 561 512 612 c 2
 532 634 l 1
 483 632 428 630 366 629 c 0
 304 628 262 627 241 627 c 2xc0
 240 627 l 2
 233 627 227 628 226 632 c 0
 225 636 223 640 223 644 c 0
 223 648 224 651 224 655 c 0
 226 664 233 674 243 683 c 0
 253 692 265 696 277 696 c 0
 289 696 306 694 327 690 c 0
 348 686 367 684 382 684 c 2
 399 684 l 2
 438 684 489 686 553 691 c 0
 591 693 612 695 612 695 c 2
 614 695 617 694 618 693 c 0
 619 692 621 689 622 687 c 0
 624 682 627 676 627 670 c 0
 627 667 625 663 625 658 c 0
 623 654 619 648 610 639 c 0
 601 630 588 618 574 605 c 0
 560 592 551 581 544 573 c 0
 517 540 478 493 428 431 c 0
 378 369 329 308 281 247 c 0
 233 186 191 131 158 84 c 2
 143 63 l 1
 170 65 l 2
 239 70 302 72 361 72 c 0
 408 72 443 70 465 66 c 0
 477 64 485 60 489 55 c 0
 491 53 491 50 491 46 c 2
 491 40 l 2xa0
EndSplineSet
Validated: 1
EndChar

StartChar: bracketleft
Encoding: 91 91 69
Width: 700
GlyphClass: 2
Flags: HMW
HStem: -69 47 773 64<568 570>
LayerCount: 2
Fore
SplineSet
492 837 m 1
 563 837 l 2
 577 837 585 838 585 838 c 2
 594 838 600 837 602 833 c 0
 604 829 605 824 605 819 c 2
 605 812 l 2
 604 807 601 803 599 798 c 0
 593 786 586 778 577 775 c 0
 574 774 571 773 569 773 c 0
 567 773 564 774 563 774 c 0
 540 778 502 780 450 780 c 0
 427 780 397 779 362 778 c 1
 357 758 348 719 333 661 c 0
 318 603 306 555 296 516 c 0
 286 477 275 431 263 377 c 0
 256 337 240 268 216 170 c 0
 192 72 177 8 170 -22 c 1
 213 -22 l 2
 243 -22 279 -21 321 -20 c 0
 363 -19 386 -17 391 -17 c 0
 401 -17 407 -19 409 -21 c 0
 411 -25 411 -31 410 -39 c 0
 408 -49 404 -58 398 -65 c 0
 396 -68 392 -71 389 -72 c 0
 386 -73 383 -74 381 -74 c 0
 379 -74 376 -73 374 -73 c 0
 359 -71 339 -70 314 -70 c 0
 312 -70 304 -69 293 -69 c 0
 282 -69 267 -70 250 -71 c 0
 187 -75 144 -77 122 -77 c 0
 109 -77 101 -74 97 -70 c 0
 95 -68 94 -65 94 -61 c 0
 94 -55 96 -47 101 -37 c 1
 101 -36 l 1
 104 -27 l 2
 115 8 132 71 154 161 c 0
 176 251 197 341 216 431 c 0
 219 452 224 474 230 500 c 0
 236 526 248 579 268 660 c 0
 273 681 278 703 285 729 c 0
 292 755 296 772 298 781 c 2
 299 784 l 2
 299 788 298 791 298 793 c 0
 298 805 303 815 313 824 c 0
 320 831 331 835 344 835 c 0
 388 836 429 837 465 837 c 2
 492 837 l 1
EndSplineSet
Validated: 1
EndChar

StartChar: backslash
Encoding: 92 92 70
Width: 700
GlyphClass: 2
Flags: HMW
VStem: 414 71<4.29497e+09 4.29497e+09>
LayerCount: 2
Fore
SplineSet
437 -45 m 0
 426 -39 419 -29 414 -14 c 0
 412 -3 404 27 393 76 c 0
 382 125 374 160 369 181 c 0
 360 214 333 296 290 429 c 0
 247 562 221 645 213 679 c 0
 212 684 211 689 211 694 c 0
 211 702 213 709 215 715 c 0
 220 724 227 731 237 736 c 0
 245 739 252 741 259 741 c 0
 264 741 270 739 274 735 c 0
 278 731 281 726 283 718 c 0
 306 621 330 535 352 458 c 0
 387 333 432 190 486 30 c 0
 488 24 489 17 489 10 c 0
 489 3 487 -6 485 -15 c 0
 480 -31 473 -41 465 -45 c 0
 460 -47 456 -49 451 -49 c 0
 446 -49 442 -47 437 -45 c 0
EndSplineSet
Validated: 1
EndChar

StartChar: bracketright
Encoding: 93 93 71
Width: 700
GlyphClass: 2
Flags: HMW
HStem: -69 49 780 57<429 443.5>
LayerCount: 2
Fore
SplineSet
456 837 m 2
 493 837 533 836 575 835 c 0
 587 835 595 832 598 827 c 0
 600 824 602 820 602 816 c 0
 602 812 601 809 601 806 c 0
 599 801 597 796 595 792 c 2
 593 789 l 1
 593 787 l 1
 591 781 l 1
 591 780 l 2
 591 775 586 760 581 735 c 2
 551 591 l 2
 539 535 526 483 513 436 c 0
 491 346 470 256 450 166 c 0
 430 76 418 14 413 -21 c 2
 411 -30 l 1
 411 -32 l 2
 411 -39 410 -45 409 -50 c 0
 408 -58 403 -64 396 -69 c 0
 389 -74 379 -77 366 -77 c 0
 344 -77 302 -74 241 -71 c 0
 223 -71 202 -69 179 -69 c 0
 156 -69 136 -71 116 -73 c 0
 113 -73 109 -74 108 -74 c 0
 103 -74 99 -72 98 -70 c 0
 97 -63 97 -55 99 -44 c 0
 101 -35 106 -29 111 -24 c 0
 116 -19 125 -17 136 -17 c 0
 140 -17 162 -19 204 -20 c 0
 246 -21 281 -22 311 -22 c 2
 348 -22 l 1
 354 4 368 67 389 165 c 0
 410 263 426 331 437 371 c 1
 437 372 l 1
 450 425 462 472 470 511 c 0
 478 550 496 639 525 778 c 1
 486 779 455 780 432 780 c 0
 382 780 345 778 319 774 c 0
 317 774 313 773 311 773 c 0
 309 773 306 773 304 774 c 0
 302 775 300 778 300 780 c 0
 297 789 296 798 298 807 c 0
 300 816 304 823 311 830 c 0
 317 835 325 838 336 838 c 2
 337 838 l 2
 365 838 396 837 429 837 c 2
 456 837 l 2
EndSplineSet
Validated: 1
EndChar

StartChar: asciicircum
Encoding: 94 94 72
Width: 700
GlyphClass: 2
Flags: HMW
HStem: 607 326<137.5 420>
LayerCount: 2
Fore
SplineSet
530 614 m 0
 525 619 516 630 504 648 c 0
 502 650 498 654 496 658 c 0
 469 698 452 726 442 743 c 0
 432 760 420 787 403 824 c 2
 394 841 l 1
 382 828 l 2
 360 803 341 783 324 767 c 0
 307 751 294 739 284 731 c 0
 274 723 261 713 245 699 c 0
 229 685 213 670 195 653 c 0
 192 651 187 647 182 642 c 0
 164 625 151 615 144 610 c 0
 142 608 139 607 138 607 c 0
 137 607 136 609 134 609 c 0
 127 613 121 620 118 631 c 0
 118 632 117 634 117 636 c 0
 117 647 125 659 137 672 c 0
 152 689 173 709 199 734 c 0
 225 759 254 786 286 817 c 0
 318 848 350 882 383 918 c 0
 389 925 397 929 406 931 c 0
 410 932 414 933 418 933 c 0
 422 933 426 932 430 931 c 0
 435 929 440 926 441 922 c 2
 441 921 l 1
 457 886 471 857 483 834 c 0
 495 811 504 794 511 783 c 0
 518 772 528 756 541 735 c 0
 554 714 566 696 577 679 c 0
 580 674 582 668 582 663 c 0
 582 655 579 648 574 642 c 0
 564 629 553 621 541 616 c 0
 538 614 535 613 534 613 c 0
 533 613 531 614 530 614 c 0
EndSplineSet
Validated: 1
EndChar

StartChar: underscore
Encoding: 95 95 73
Width: 700
GlyphClass: 2
Flags: HMW
HStem: -87 60<145.5 167>
LayerCount: 2
Fore
SplineSet
129 -72 m 0
 129 -68 130 -64 131 -59 c 0
 133 -49 136 -41 141 -36 c 0
 146 -30 154 -27 165 -27 c 2
 167 -27 l 2
 224 -28 272 -29 312 -29 c 0
 352 -29 401 -28 462 -27 c 0
 511 -27 540 -25 551 -25 c 0
 562 -25 568 -27 569 -30 c 0
 571 -35 572 -42 571 -51 c 0
 569 -62 564 -70 559 -75 c 0
 552 -82 543 -85 532 -85 c 0
 303 -86 176 -87 149 -87 c 0
 142 -87 137 -86 134 -84 c 0
 131 -82 129 -78 129 -72 c 0
EndSplineSet
Validated: 1
EndChar

StartChar: grave
Encoding: 96 96 74
Width: 700
GlyphClass: 2
Flags: HMW
HStem: 636 161<305 405>
LayerCount: 2
Fore
SplineSet
404 636 m 0
 396 636 388 639 379 644 c 0
 350 665 331 678 324 683 c 0
 317 688 308 695 297 704 c 0
 286 713 276 721 269 728 c 0
 264 734 261 743 261 754 c 0
 261 763 264 772 269 781 c 0
 276 788 286 794 297 796 c 0
 300 796 304 797 306 797 c 0
 312 797 317 796 322 792 c 0
 324 790 340 773 369 742 c 0
 374 736 382 729 392 720 c 0
 402 711 412 703 420 698 c 0
 430 692 436 684 438 673 c 0
 438 670 439 666 439 664 c 0
 439 658 436 653 433 649 c 0
 428 642 420 638 410 637 c 0
 408 637 406 636 404 636 c 0
EndSplineSet
Validated: 1
EndChar

StartChar: a
Encoding: 97 97 75
Width: 700
GlyphClass: 2
Flags: HMW
HStem: -28 69 438 72
VStem: 479 51
LayerCount: 2
Fore
SplineSet
317 450 m 0
 342 471 377 486.999023438 420 499.999023438 c 0
 441 505.999023438 463 509.999023438 486 509.999023438 c 2
 494 509.999023438 l 2
 546 508.999023438 578 492.999023438 588 464.999023438 c 0
 595.201171875 444.74609375 598.755859375 420.64453125 598.755859375 392.51171875 c 0
 598.755859375 358.13671875 593.448242188 317.743164062 583 270.999023438 c 0
 583 268.999023438 581 260.999023438 578 247.999023438 c 0
 575 234.999023438 570 212.999023438 562 182.999023438 c 0
 554 152.999023438 551 136.999023438 551 135.999023438 c 0
 547 118.999023438 542 86.9990234375 536 36.9990234375 c 0
 535 21.9990234375 532 8.9990234375 530 -2.0009765625 c 0
 525 -26.0009765625 518 -38.0009765625 510 -38.0009765625 c 0
 489 -38.0009765625 479 -34.0009765625 479 -25.0009765625 c 0
 477.828125 -7.427734375 477.342773438 12.205078125 477.342773438 34.09765625 c 0
 477.342773438 49.578125 477.584960938 66.1884765625 477.999023438 84 c 1
 470.999023438 71 465.999023438 64 461.999023438 64 c 0
 433.999023438 29 408.999023438 5 385.999023438 -10 c 0
 366.999023438 -22 339.999023438 -28 302.999023438 -28 c 0
 286.999023438 -28 269.999023438 -23 251.999023438 -12 c 0
 232.999023438 -1 217.999023438 17 206.999023438 40 c 0
 195.999023438 63 190.999023438 87 188.999023438 111 c 1
 192.999023438 128 198.999023438 146 206.999023438 165 c 0
 215.999023438 186 227.999023438 203 243.999023438 217 c 0
 266.999023438 238 282.999023438 251 290.999023438 255 c 0
 325.999023438 273 345.999023438 284 350.999023438 285 c 0
 392.999023438 298 415.999023438 306 420.999023438 307 c 0
 449.999023438 311 467.999023438 314 475.999023438 316 c 0
 478.999023438 317 496.999023438 323 528.999023438 335 c 0
 529.999023438 339 531.999023438 340 531.999023438 340 c 2
 534.999023438 346 536.999023438 353 537.999023438 359 c 0
 538.999023438 365 540.999023438 370 540.999023438 376 c 0
 540.999023438 382 539.999023438 389 535.999023438 398 c 0
 530.999023438 410 522.999023438 419 513.999023438 425 c 0
 506.999023438 431 492.999023438 436 473.999023438 437 c 0
 470.999023438 437 467.999023438 438 464.999023438 438 c 0
 451.999023438 438 438.999023438 435 422.999023438 430 c 0
 406.999023438 425 393.999023438 417 381.999023438 409 c 0
 359.999023438 395 342.999023438 383 331.999023438 373 c 0
 311.999023438 352 296.999023438 340 283.999023438 340 c 0
 277.999023438 340 271.999023438 343 266.999023438 348 c 0
 259.764648438 354.430664062 256.407226562 361.5078125 256.407226562 369.75 c 0
 256.407226562 371.76171875 256.607421875 373.842773438 257 376 c 0
 259 387 268 401 280 415 c 0
 291 428 303 439 317 450 c 0
406 67.9990234375 m 0
 419 77.9990234375 431 89.9990234375 442 103.999023438 c 0
 454 117.999023438 466 135.999023438 477 156.999023438 c 0
 488 177.999023438 498 200.999023438 505 225.999023438 c 2
 508 236.999023438 l 1
 497 235.999023438 l 2
 382 224.999023438 303 191.999023438 260 136.999023438 c 1
 257 131.999023438 l 1
 258 126.999023438 l 2
 266 94.9990234375 276 72.9990234375 290 59.9990234375 c 0
 302 46.9990234375 317 40.9990234375 336 40.9990234375 c 0
 358 40.9990234375 382 48.9990234375 406 67.9990234375 c 0
EndSplineSet
Validated: 1
EndChar

StartChar: b
Encoding: 98 98 76
Width: 700
GlyphClass: 2
Flags: HMW
HStem: -14 74<309 331.5> 425 65<375 449.5>
VStem: 141 60 490 69<295.5 370.5>
LayerCount: 2
Fore
SplineSet
548 263 m 0
 541 227 530 194 517 164 c 0
 504 134 488 107 472 86 c 0
 456 65 439 46 422 31 c 0
 405 16 389 4 372 -3 c 0
 355 -10 339 -14 324 -14 c 0
 282 -14 247 2 221 31 c 1
 216 29 212 34 207 47 c 1
 205 32 203 26 201 26 c 0
 196 12 191 2 184 -3 c 0
 177 -8 169 -11 160 -11 c 0
 153 -11 147 -9 145 -6 c 0
 143 -3 141 2 141 8 c 0
 141 14 142 22 144 30 c 0
 162 115 189 237 225 396 c 0
 260 555 283 663 296 722 c 0
 300 741 305 753 311 759 c 0
 317 765 325 768 335 768 c 0
 341 768 346 766 349 761 c 0
 351 759 352 754 352 748 c 0
 352 742 351 733 349 723 c 0
 342 698 335 666 328 624 c 0
 315 564 302 499 289 428 c 1
 297 437 305 443 312 445 c 0
 349 475 390 490 433 490 c 0
 466 490 494 480 515 461 c 0
 544 436 559 397 559 344 c 0
 559 319 555 292 548 263 c 0
458 397 m 0
 441 416 419 425 393 425 c 0
 357 425 320 408 281 374 c 2
 278 371 l 1
 261 288 240 201 218 109 c 1
 221 105 l 2
 232 88 246 77 264 70 c 0
 279 63 298 60 320 60 c 0
 360 60 393 78 421 113 c 0
 450 147 471 193 484 251 c 0
 488 269 490 287 490 304 c 0
 490 344 479 375 458 397 c 0
EndSplineSet
Validated: 1
EndChar

StartChar: c
Encoding: 99 99 77
Width: 700
GlyphClass: 2
Flags: HMW
HStem: -31 68<272 319> 458 69<410 466>
VStem: 160 70<123.5 126.5> 470 70<358.5 405>
LayerCount: 2
Fore
SplineSet
516 492 m 0
 533 468 540 440 540 407 c 2
 540 405 l 2
 540 389 538 376 533 365 c 0
 527 352 517 343 504 337 c 0
 498 335 493 333 488 333 c 0
 485 333 481 334 479 335 c 0
 477 335 475 338 473 343 c 0
 471 348 470 354 470 363 c 0
 470 366 468 377 468 397 c 0
 468 402 468 408 467 415 c 0
 466 422 464 428 462 432 c 0
 460 436 456 440 452 444 c 0
 444 453 432 458 415 458 c 0
 405 458 395 456 384 451 c 0
 373 446 361 438 348 426 c 0
 335 414 323 399 311 382 c 0
 299 365 287 343 276 315 c 0
 263 287 252 256 243 221 c 0
 234 189 230 161 230 137 c 0
 230 110 236 88 247 71 c 0
 262 50 283 39 310 37 c 2
 319 37 l 2
 342 37 363 42 381 52 c 0
 402 64 417 78 424 93 c 0
 430 104 436 112 442 118 c 0
 448 124 451 128 455 129 c 0
 459 130 463 131 466 131 c 0
 469 131 472 129 477 127 c 0
 480 125 483 122 485 120 c 0
 487 118 488 114 488 110 c 0
 488 100 483 86 472 69 c 0
 457 44 433 22 402 2 c 0
 387 -9 369 -17 349 -23 c 0
 329 -28 307 -31 285 -31 c 0
 259 -31 237 -26 217 -14 c 0
 199 -3 186 12 177 32 c 0
 166 57 160 85 160 116 c 0
 160 137 163 158 168 180 c 0
 179 227 193 269 210 308 c 0
 227 347 246 379 267 406 c 0
 287 433 306 455 326 474 c 0
 365 509 407 527 453 527 c 0
 479 527 500 515 516 492 c 0
EndSplineSet
Validated: 1
EndChar

StartChar: d
Encoding: 100 100 78
Width: 700
GlyphClass: 2
Flags: HMW
HStem: -14 76<229 264> 436 75<336 340 336 336>
VStem: 109 62<171 182> 380 65<20.5 50>
LayerCount: 2
Fore
SplineSet
292 65 m 0
 301 67 309 71 316 74 c 0
 323 77 329 81 336 87 c 0
 343 93 348 99 353 103 c 0
 358 107 363 113 369 121 c 0
 375 129 381 135 383 139 c 0
 385 143 388 147 391 152 c 0
 394 157 397 162 399 164 c 0
 412 226 419 261 421 268 c 0
 422 275 424 286 428 301 c 0
 432 316 434 329 436 338 c 1
 435 341 l 2
 428 368 417 391 400 409 c 0
 383 427 363 436 340 436 c 2
 336 436 l 2
 312 435 289 426 268 410 c 0
 247 394 231 373 216 348 c 0
 201 323 189 296 182 267 c 0
 174 235 171 207 171 183 c 0
 171 159 173 137 180 120 c 0
 188 99 202 83 219 74 c 0
 232 66 246 62 263 62 c 2
 264 62 l 2
 273 62 283 63 292 65 c 0
109 166 m 0
 109 198 113 233 122 271 c 0
 131 316 148 358 170 394 c 0
 192 430 218 458 249 479 c 0
 278 500 310 511 342 511 c 0
 386 511 422 498 447 472 c 1
 452 475 456 471 461 458 c 1
 492 595 514 681 525 716 c 0
 530 733 537 745 544 754 c 0
 553 764 562 769 574 769 c 0
 581 769 588 766 590 761 c 0
 591 760 592 757 592 753 c 0
 592 746 589 736 586 723 c 0
 575 681 556 606 528 495 c 0
 500 384 481 299 468 242 c 1
 468 241 l 1
 461 202 455 168 451 139 c 0
 447 110 446 89 446 77 c 0
 446 65 445 54 445 46 c 0
 445 38 444 32 442 27 c 0
 438 16 433 8 426 2 c 0
 421 -3 414 -7 405 -9 c 0
 402 -9 397 -10 395 -10 c 0
 393 -10 390 -9 388 -8 c 0
 386 -7 385 -4 384 -1 c 0
 382 6 380 15 380 26 c 0
 380 34 381 43 382 52 c 0
 383 60 385 74 387 95 c 1
 379 78 371 67 363 62 c 0
 355 51 347 42 339 34 c 0
 331 26 322 17 311 10 c 0
 290 -6 266 -14 237 -14 c 0
 221 -14 205 -10 190 -3 c 0
 175 4 160 15 148 30 c 0
 136 45 126 64 119 85 c 0
 112 106 109 134 109 166 c 0
EndSplineSet
Validated: 1
EndChar

StartChar: e
Encoding: 101 101 79
Width: 700
GlyphClass: 2
Flags: HMW
HStem: -28 60<282 315 282 315> 455 66<385 433>
VStem: 161 61<134 140.5>
LayerCount: 2
Fore
SplineSet
466 60 m 0
 454 45 442 33 431 24 c 0
 420 14 408 5 394 -4 c 0
 368 -20 333 -28 291 -28 c 2
 282 -28 l 2
 230 -27 195 -4 176 39 c 0
 166 63 161 91 161 124 c 0
 161 157 166 193 175 234 c 0
 185 279 200 320 220 356 c 0
 240 392 261 423 284 447 c 0
 305 471 327 489 351 502 c 0
 375 515 400 521 425 521 c 0
 441 521 457 516 474 505 c 0
 491 494 505 479 518 458 c 0
 531 437 538 416 539 393 c 0
 539 378 531 362 517 343 c 0
 503 324 489 310 476 300 c 0
 450 280 418 261 378 241 c 0
 358 232 342 224 328 217 c 0
 314 210 298 202 277 193 c 0
 259 184 241 178 224 173 c 1
 223 158 222 146 222 138 c 0
 222 130 223 123 223 116 c 0
 225 101 229 88 235 75 c 0
 241 62 249 51 262 44 c 0
 275 36 291 32 309 32 c 0
 321 32 334 35 348 40 c 0
 362 45 374 51 385 60 c 0
 405 77 419 89 426 98 c 0
 437 110 446 119 454 124 c 0
 459 127 465 129 469 129 c 0
 473 129 477 127 480 124 c 0
 485 119 488 112 488 105 c 0
 488 93 481 78 466 60 c 0
333 427 m 0
 322 417 311 405 301 391 c 0
 291 377 281 360 271 339 c 0
 260 318 251 295 244 270 c 2
 239 249 l 1
 259 255 l 2
 362 287 432 319 469 352 c 2
 475 357 l 1
 473 364 l 2
 466 396 457 419 444 433 c 0
 430 448 414 455 395 455 c 0
 375 455 354 446 333 427 c 0
EndSplineSet
Validated: 1
EndChar

StartChar: f
Encoding: 102 102 80
Width: 700
GlyphClass: 2
Flags: HMW
HStem: -16 63 422 65 428 61 703 62
LayerCount: 2
Fore
SplineSet
390 -5 m 0xb0
 383 -12 375.999023438 -16.0009765625 364.999023438 -16.0009765625 c 0
 308.999023438 -17.0009765625 271.999023438 -18.0009765625 253.999023438 -18.0009765625 c 0
 199.999023438 -18.0009765625 159.999023438 -16.0009765625 132.999023438 -14.0009765625 c 1
 132.999023438 -22.0009765625 131.999023438 -22.0009765625 131.999023438 -14.0009765625 c 1
 121.999023438 -14.0009765625 114.999023438 -11.0009765625 112.999023438 -6.0009765625 c 0
 110.999023438 -2.0009765625 109.999023438 1.9990234375 109.999023438 5.9990234375 c 0
 109.999023438 9.9990234375 110.999023438 13.9990234375 111.999023438 18.9990234375 c 0
 113.999023438 29.9990234375 117.999023438 38.9990234375 124.999023438 45.9990234375 c 0
 130.999023438 51.9990234375 140.999023438 54.9990234375 151.999023438 54.9990234375 c 2
 156.999023438 54.9990234375 l 2
 160.999023438 54.9990234375 167.999023438 53.9990234375 179.999023438 53.9990234375 c 0
 191.999023438 53.9990234375 204.999023438 51.9990234375 217.999023438 51.9990234375 c 0
 218.999023438 48.9990234375 219.999023438 51.9990234375 219.999023438 61.9990234375 c 0
 222.999023438 74.9990234375 225.999023438 87.9990234375 226.999023438 98.9990234375 c 0
 227.999023438 109.999023438 229.999023438 123.999023438 232.999023438 137.999023438 c 0
 235.999023438 151.999023438 238.999023438 171.999023438 242.999023438 198.999023438 c 0
 260.999023438 311.999023438 273.999023438 386.999023438 279.999023438 423.999023438 c 1
 274.999023438 428.999023438 269.999023438 427.999023438 264.999023438 422.999023438 c 1
 255.999023438 422.999023438 242.999023438 421.999023438 226.999023438 421.999023438 c 0
 220.999023438 421.999023438 216.999023438 422.999023438 214.999023438 424.999023438 c 0
 212.999023438 426.999023438 210.999023438 431.999023438 210.999023438 437.999023438 c 0
 210.999023438 441.999023438 211.999023438 446.999023438 212.999023438 451.999023438 c 0
 214.999023438 462.999023438 217.999023438 471.999023438 222.999023438 477.999023438 c 0
 227.999023438 483.999023438 234.999023438 486.999023438 243.999023438 486.999023438 c 2
 290.999023438 486.999023438 l 1xd0
 292.999023438 505.999023438 297.999023438 524.999023438 301.999023438 545.999023438 c 0
 308.999023438 576.999023438 316.999023438 603.999023438 329.999023438 628.999023438 c 0
 342.999023438 653.999023438 356.999023438 673.999023438 373.999023438 690.999023438 c 0
 390.999023438 707.999023438 408.999023438 720.999023438 429.999023438 731.999023438 c 0
 450.999023438 742.999023438 471.999023438 751.999023438 493.999023438 756.999023438 c 0
 517.999023438 761.999023438 543.999023438 764.999023438 568.999023438 764.999023438 c 0
 577.999023438 764.999023438 583.999023438 761.999023438 587.999023438 757.999023438 c 0
 589.999023438 755.999023438 590.999023438 752.999023438 590.999023438 749.999023438 c 0
 590.999023438 746.999023438 589.999023438 742.999023438 589.999023438 739.999023438 c 0
 587.999023438 728.999023438 581.999023438 719.999023438 575.999023438 712.999023438 c 0
 569.999023438 705.999023438 562.999023438 702.999023438 557.999023438 702.999023438 c 0
 504.999023438 702.999023438 460.999023438 687.999023438 423.999023438 657.999023438 c 0
 387.999023438 627.999023438 363.999023438 588.999023438 353.999023438 540.999023438 c 0
 350.999023438 525.999023438 347.999023438 513.999023438 346.999023438 502.999023438 c 2
 346.999023438 502.999023438 345.999023438 500.999023438 345.999023438 488.999023438 c 1xb0
 373.87109375 492.901367188 402.053710938 494.939453125 430.720703125 494.939453125 c 0
 453.479492188 494.939453125 476.543945312 493.655273438 500 491 c 0
 509 491 514 489 515 487 c 0xd0
 517 482 518 476 517 467 c 0
 515 456 511 446 506 440 c 0
 501 434 493 431 483 431 c 0
 470 431 442 430 399 428 c 0
 377 428 356 426 335 426 c 1
 330 401 325 370 319 334 c 0
 313 298 301 226 282 116 c 0
 277 83 274 65 274 63 c 2
 274 51 l 2
 277 44 280 44 283 50 c 1
 327 48 362 47 384 47 c 0
 393 47 400 45 402 41 c 0
 404 39 405 35 405 32 c 0
 405 29 404 25 404 22 c 0
 402 11 397 2 390 -5 c 0xb0
EndSplineSet
Validated: 1
EndChar

StartChar: g
Encoding: 103 103 81
Width: 700
GlyphClass: 2
Flags: HMW
HStem: -292 59<213 234 213 239> -258 57<121 145> -31 75<316.5 327.5> 437 72<442 504.5 448 504.5>
VStem: 199 61<85 151.5>
LayerCount: 2
Fore
SplineSet
376 55 m 0x38
 391 61 404 69 415 79 c 0
 426 89 437 99 446 112 c 0
 455 125 463 137 469 149 c 0
 476 161 481 173 486 186 c 0
 486 187 502 253 533 383 c 0
 534 390 537 397 542 403 c 2
 553 418 l 1
 533 422 l 1
 530 422 l 1
 504 432 479 437 455 437 c 2
 448 437 l 2
 436 437 424 434 412 430 c 0
 400 426 387 418 374 409 c 0
 361 400 348 388 336 375 c 0
 324 362 313 346 303 326 c 0
 293 306 286 284 279 260 c 0
 274 239 270 219 266 199 c 0
 262 179 260 161 260 142 c 0
 260 123 262 107 266 92 c 0
 270 77 277 65 288 56 c 0
 298 48 309 44 324 44 c 0
 341 44 359 48 376 55 c 0x38
585 402 m 0
 577 367 569 327 560 285 c 0
 544 208 529 144 516 91 c 0
 503 38 491 -8 479 -50 c 0
 469 -82 456 -112 442 -139 c 0
 428 -166 412 -188 395 -207 c 0
 378 -226 359 -241 339 -254 c 0
 301 -279 260 -292 218 -292 c 0xb8
 201 -292 184 -289 169 -284 c 0
 154 -279 142 -273 133 -267 c 2
 127 -263 l 2
 124 -261 122 -258 121 -258 c 2
 117 -255 l 1
 115 -251 l 2
 115 -250 114 -248 114 -247 c 2
 114 -243 l 2
 114 -242 115 -239 116 -236 c 0
 118 -225 123 -216 131 -209 c 0
 136 -204 141 -201 145 -201 c 2x78
 145 -201 147 -202 148 -202 c 0
 150 -202 155 -205 161 -210 c 0
 167 -215 176 -220 186 -225 c 0
 196 -230 207 -233 219 -233 c 0xb8
 249 -233 277 -225 305 -210 c 0
 333 -195 358 -174 380 -146 c 0
 402 -118 418 -87 429 -52 c 0
 434 -38 440 -13 449 22 c 0
 454 32 459 50 463 75 c 1
 452 53 442 38 431 33 c 1
 398 -9 354 -31 301 -31 c 0
 280 -31 263 -27 249 -19 c 0
 231 -9 218 7 210 29 c 0
 203 48 199 71 199 99 c 0
 199 119 206 159 216 221 c 0
 225 263 237 299 252 332 c 0
 267 365 282 393 300 414 c 0
 318 435 337 453 358 468 c 0
 379 483 401 494 422 500 c 0
 443 506 466 509 490 509 c 0
 519 509 540 507 551 505 c 0
 562 503 573 497 583 489 c 0
 585 487 586 483 586 478 c 0
 586 469 583 460 578 453 c 1
 578 452 l 2
 577 451 571 444 560 433 c 1
 567 437 573 435 580 427 c 0
 582 427 583 425 584 423 c 0
 585 421 586 418 586 415 c 0
 586 412 586 407 585 402 c 0
EndSplineSet
Validated: 1
EndChar

StartChar: h
Encoding: 104 104 82
Width: 700
GlyphClass: 2
Flags: HMW
HStem: 414 87<432.5 501.5 441 501.5>
VStem: 348 2<768 772> 486 68<334.5 420>
LayerCount: 2
Fore
SplineSet
542 320 m 0
 533 278 522 226 511 163 c 0
 500 100 491 55 486 33 c 0
 482 14 475 0 465 -10 c 0
 456 -19 447 -23 439 -23 c 0
 432 -23 426 -18 421 -11 c 0
 419 -6 417 -1 417 6 c 0
 417 9 418 13 418 17 c 0
 421 36 429 72 442 126 c 0
 456 180 466 224 474 259 c 0
 482 294 486 323 486 346 c 0
 486 369 482 387 474 398 c 0
 467 409 456 414 442 414 c 2
 441 414 l 2
 424 414 408 410 393 403 c 0
 378 396 365 386 354 376 c 0
 343 366 334 354 324 340 c 0
 314 326 306 314 300 301 c 0
 294 288 288 276 283 264 c 0
 278 252 275 242 273 235 c 0
 271 228 268 221 268 217 c 0
 268 213 265 207 263 199 c 0
 261 191 259 184 258 179 c 0
 255 166 250 151 246 131 c 0
 242 111 238 96 235 82 c 0
 232 68 225 46 216 16 c 0
 212 4 205 -5 195 -12 c 0
 185 -19 176 -22 167 -22 c 1
 165 -21 l 2
 162 -21 158 -21 156 -20 c 0
 154 -19 151 -16 149 -14 c 0
 147 -11 146 -7 146 -2 c 0
 146 3 147 8 149 15 c 0
 157 44 171 94 190 167 c 0
 209 240 220 288 225 313 c 0
 247 428 275 565 309 723 c 0
 312 738 318 750 325 757 c 0
 332 764 340 768 348 768 c 1
 348 776 350 776 350 768 c 1
 357 768 362 766 365 761 c 0
 369 756 369 746 367 732 c 0
 352 655 327 527 294 349 c 1
 305 367 315 384 325 401 c 0
 332 414 341 426 351 437 c 0
 361 448 373 458 386 468 c 0
 399 478 414 486 431 492 c 0
 451 498 471 501 493 501 c 0
 510 501 523 496 532 488 c 0
 541 480 548 468 551 452 c 0
 553 440 554 427 554 413 c 0
 554 387 550 356 542 320 c 0
EndSplineSet
Validated: 1
EndChar

StartChar: i
Encoding: 105 105 83
Width: 700
GlyphClass: 2
Flags: HMW
HStem: -17 62<178 338> 406 61<378 452> 581 130<444.5 491.5 448 491.5>
VStem: 409 125
LayerCount: 2
Fore
SplineSet
169 -12 m 0
 168 -10 166 -5 166 -1 c 0
 166 3 168 8 169 13 c 0
 172 23 176 31 181 37 c 0
 186 42 193 45 203 45 c 2
 338 45 l 1
 345 82 350 111 353 132 c 0
 356 153 361 173 365 194 c 0
 370 217 378 262 392 326 c 0
 400 362 406 383 407 388 c 1
 408 385 409 389 410 401 c 1
 406 394 403 395 400 404 c 0
 396 405 390 406 382 406 c 0
 374 406 364 405 352 405 c 0
 340 405 331 404 324 404 c 2
 306 404 l 1
 305 404 l 2
 300 404 298 406 296 409 c 0
 295 412 294 416 294 418 c 0
 294 420 295 424 295 427 c 0
 296 438 299 446 304 453 c 0
 308 458 314 461 321 461 c 2
 322 461 l 1
 359 465 394 467 425 467 c 2
 452 467 l 2
 458 467 463 465 466 463 c 0
 469 461 471 457 471 453 c 0
 473 442 473 432 471 424 c 0
 458 382 447 338 437 296 c 0
 427 254 418 217 412 186 c 0
 407 155 399 108 389 45 c 1
 508 45 l 2
 516 45 520 44 521 42 c 0
 522 40 523 36 523 34 c 0
 523 32 522 27 521 21 c 0
 519 10 515 3 509 -3 c 0
 503 -9 496 -12 486 -12 c 0
 476 -12 430 -12 348 -14 c 0
 265 -16 209 -17 182 -17 c 0
 174 -17 170 -15 169 -12 c 0
441 690 m 0
 458 703 474 710 491 711 c 0
 492 711 493 712 494 712 c 0
 509 712 520 706 527 696 c 0
 532 688 533 679 533 669 c 0
 533 664 533 658 532 652 c 0
 527 633 518 617 504 604 c 0
 490 591 473 583 453 581 c 2
 448 581 l 2
 441 581 435 582 430 584 c 0
 425 586 420 591 416 597 c 0
 411 606 409 616 409 627 c 0
 409 652 420 673 441 690 c 0
EndSplineSet
Validated: 1
EndChar

StartChar: j
Encoding: 106 106 84
Width: 700
GlyphClass: 2
Flags: HMW
HStem: -287 66<115 159.5> 397 68 578 129<518.5 568.5>
VStem: 481 120<621.5 670>
LayerCount: 2
Fore
SplineSet
502 582 m 0
 495 585 490 590 487 597 c 0
 483 606 481 616 481 627 c 0
 481 634 481 641 483 649 c 0
 487 666 496 680 510 690 c 0
 526 701 542 707 561 707 c 0
 576 707 587 702 594 692 c 0
 599 684 601 675 601 665 c 0
 601 660 600 654 599 647 c 0
 594 627 586 611 571 598 c 0
 556 585 540 578 523 578 c 0
 514 578 507 580 502 582 c 0
261 -193 m 0
 280 -183 296 -171 312 -156 c 0
 328 -141 341 -123 353 -102 c 0
 365 -81 375 -56 380 -29 c 0
 381 -23 385 3 393 48 c 0
 401 93 410 139 419 186 c 0
 428 233 445 303 467 398 c 1
 462 389 455 389 450 397 c 1
 437 396 400 396 338 396 c 0
 312 396 296 397 291 397 c 0
 286 397 282 398 280 399 c 0
 278 400 275 403 273 407 c 0
 271 411 269 415 269 420 c 0
 269 422 269 426 270 431 c 0
 272 438 277 445 283 451 c 0
 289 457 297 459 307 459 c 0
 327 460 355 462 392 463 c 0
 429 464 456 465 472 465 c 0
 490 465 503 464 514 464 c 2
 515 464 l 2
 520 464 525 462 528 460 c 0
 531 458 533 454 533 450 c 0
 534 439 534 430 533 423 c 0
 525 401 519 382 514 367 c 0
 512 360 510 351 508 342 c 0
 504 325 492 270 473 178 c 0
 456 87 441 15 430 -36 c 0
 424 -64 417 -90 407 -113 c 0
 397 -136 385 -156 372 -173 c 0
 359 -190 346 -205 330 -218 c 0
 314 -231 299 -242 283 -250 c 0
 267 -258 250 -265 232 -271 c 0
 212 -277 194 -282 175 -284 c 0
 156 -286 138 -287 119 -287 c 0
 111 -287 105 -284 101 -280 c 0
 99 -278 98 -275 98 -272 c 0
 98 -269 99 -265 99 -262 c 0
 101 -251 107 -241 115 -233 c 0
 123 -225 130 -221 136 -221 c 0
 183 -221 224 -212 261 -193 c 0
EndSplineSet
Validated: 1
EndChar

StartChar: k
Encoding: 107 107 85
Width: 700
GlyphClass: 2
Flags: HMW
VStem: 429 58
LayerCount: 2
Fore
SplineSet
445 -22 m 0
 443 -22 440 -20 438 -17 c 0
 435 -14 431 -7 429 4 c 0
 428 9 422 23 413 45 c 0
 404 68 395 91 386 113 c 0
 377 136 368 163 360 192 c 0
 351 219 346 242 344 261 c 2
 342 283 l 1
 251 199 l 1
 246 199 l 1
 244 190 l 2
 237 165 231 135 226 101 c 0
 220 67 215 44 212 32 c 0
 208 11 201 -3 192 -11 c 0
 184 -19 175 -23 166 -23 c 0
 165 -23 163 -22 162 -22 c 0
 154 -22 148 -18 143 -9 c 0
 141 -4 140 2 140 10 c 0
 140 13 141 18 143 23 c 0
 152 54 165 104 181 173 c 0
 210 291 240 424 272 571 c 0
 287 650 297 698 301 718 c 0
 303 735 309 748 317 756 c 0
 325 764 334 768 343 768 c 0
 350 768 356 764 359 756 c 0
 361 751 362 745 362 737 c 0
 362 733 361 729 360 724 c 0
 343 638 311 488 264 277 c 1
 290 302 l 2
 325 339 368 382 420 433 c 1
 477 480 509 506 516 512 c 0
 525 521 532 528 539 530 c 0
 542 532 546 533 548 533 c 0
 551 533 555 529 557 522 c 0
 559 516 560 510 560 504 c 0
 560 495 553 483 536 469 c 0
 521 452 470 404 384 324 c 1
 386 317 l 2
 391 292 402 257 419 212 c 0
 436 165 452 125 465 93 c 0
 479 64 487 45 488 37 c 0
 486 15 477 -2 463 -13 c 0
 455 -19 449 -22 445 -22 c 0
EndSplineSet
Validated: 1
EndChar

StartChar: l
Encoding: 108 108 86
Width: 700
GlyphClass: 2
Flags: HMW
HStem: -30 61 414 59 481 21G
VStem: 237 67<87.501 125>
LayerCount: 2
Fore
SplineSet
501 44 m 0
 501 33 497 23.0009765625 488 13.0009765625 c 0
 479 4.0009765625 468 -2.9990234375 457 -7.9990234375 c 0
 434 -19.9990234375 371 -29.9990234375 360 -29.9990234375 c 2
 351 -29.9990234375 l 2
 311 -27.9990234375 280 -12.9990234375 259 14.0009765625 c 0
 249 27.0009765625 243 45.0009765625 240 66.0009765625 c 0
 239 75.0009765625 237 83.0009765625 237 92.0009765625 c 0
 237 107.000976562 240 123.000976562 243 141.000976562 c 0
 245 156.000976562 248 172.000976562 253 192.000976562 c 0
 258 215.000976562 263 231.000976562 265 239.000976562 c 0
 267 247.000976562 270 262.000976562 276 283.000976562 c 0
 282 304.000976562 286 317.000976562 287 324.000976562 c 0
 288 331.000976562 292 344.000976562 298 364.000976562 c 0
 348.357421875 531.858398438 348.357421875 531.858398438 363 649.000976562 c 0
 363 657.000976562 367 665.000976562 372 673.000976562 c 0
 377 680.000976562 381 683.000976562 386 683.000976562 c 0
 392 683.000976562 397 680.000976562 404 673.000976562 c 0
 412.26953125 664.731445312 417.576171875 659.424804688 417.576171875 641.909179688 c 0
 417.576171875 610.530273438 400.543945312 539.969726562 353 343 c 0
 345 314 339 294 337 283 c 0
 335 272 330 254 324 228 c 0
 318 202 313 187 313 183 c 0
 313 179 311 168 307 151 c 0
 305 140 304 130 304 120 c 0
 304 99 307 82 316 67 c 0
 329 45 350 32 377 31 c 2
 384 31 l 2
 411 31 458 43 489 59 c 0
 491 59 494 60 495 60 c 0
 496 60 497 59 497 59 c 2
 499 57 501 51 501 44 c 0
EndSplineSet
Validated: 1
EndChar

StartChar: m
Encoding: 109 109 87
Width: 700
GlyphClass: 2
Flags: HMW
HStem: 416 94<339.5 392.5>
VStem: 364 40 519 65<387.5 472.5>
LayerCount: 2
Fore
SplineSet
319 408 m 0
 310 402 300 392 289 379 c 0
 270 357 253 329 236 297 c 1
 230 275 221 234 209 177 c 0
 204 154 198 124 191 87 c 0
 184 50 179 28 177 19 c 0
 175 10 171 3 168 -3 c 0
 165 -9 161 -15 157 -17 c 0
 153 -19 149 -20 145 -21 c 0
 141 -22 138 -23 133 -23 c 0
 126 -23 120 -21 118 -17 c 0
 117 -15 116 -11 116 -5 c 0
 116 1 117 7 118 15 c 0
 119 23 123 39 128 65 c 0
 133 91 137 116 142 140 c 0
 166 251 190 360 214 467 c 0
 219 488 226 504 237 513 c 0
 246 521 254 525 262 525 c 2
 263 525 l 1
 264 525 l 2
 266 525 269 525 271 524 c 0
 276 522 278 516 278 508 c 0
 278 500 276 490 272 477 c 0
 270 472 267 464 263 453 c 2
 255 427 l 2
 246 405 237 374 227 335 c 1
 243 370 259 397 275 416 c 1
 311 478 349 510 390 510 c 0
 395 510 400 504 402 492 c 0
 405 479 407 462 407 441 c 0
 407 435 406 415 405 381 c 1
 412 401 419 412 426 415 c 1
 468 478 515 510 568 510 c 0
 572 510 575 508 577 506 c 0
 582 499 584 484 584 461 c 0
 584 449 582 433 579 413 c 0
 569 346 552 264 529 167 c 0
 518 122 508 77 500 34 c 0
 498 21 494 10 491 2 c 0
 488 -6 485 -12 482 -15 c 0
 479 -18 475 -20 473 -21 c 0
 471 -22 467 -23 464 -23 c 2
 458 -23 l 2
 456 -23 453 -22 451 -21 c 0
 449 -20 446 -18 444 -16 c 0
 442 -14 440 -7 440 3 c 0
 440 10 442 18 443 27 c 0
 447 53 452 80 458 107 c 0
 466 132 474 164 482 205 c 0
 490 240 498 272 505 301 c 0
 512 330 516 354 518 374 c 0
 518 380 519 385 519 390 c 0
 519 399 517 405 515 409 c 0
 512 414 507 416 502 416 c 2
 501 416 l 2
 481 416 463 405 444 383 c 0
 427 362 411 335 395 301 c 1
 389 262 378 212 363 150 c 0
 348 88 338 46 335 24 c 0
 333 13 330 4 328 -2 c 0
 326 -9 322 -14 319 -16 c 0
 314 -21 308 -23 303 -23 c 0
 301 -23 299 -22 299 -22 c 1
 298 -22 l 2
 292 -22 287 -20 285 -16 c 0
 284 -14 283 -9 283 -2 c 0
 283 1 284 9 285 20 c 0
 288 41 297 78 311 131 c 0
 325 184 335 226 341 256 c 0
 343 256 345 263 346 279 c 0
 358 339 364 374 364 387 c 0
 364 401 360 410 352 414 c 0
 350 415 346 416 343 416 c 0
 336 416 328 414 319 408 c 0
EndSplineSet
Validated: 1
EndChar

StartChar: n
Encoding: 110 110 88
Width: 700
GlyphClass: 2
Flags: HMW
HStem: 242 2 417 93<428.5 477>
VStem: 456 2<-26.5 -23> 484 61<352 417.5>
LayerCount: 2
Fore
SplineSet
157 17 m 0
 159 23 162 40 165 68 c 0
 168 96 172 120 175 140 c 0
 184 185 199 248 220 326 c 0
 241 404 255 449 257 462 c 0
 262 482 270 495 279 503 c 0
 287 511 295 515 303 515 c 2
 305 515 l 1
 306 515 l 2
 313 515 318 512 320 507 c 0
 321 505 322 502 322 496 c 0
 322 490 319 482 317 472 c 0
 313 455 310 445 309 440 c 0
 302 427 296 405 290 375 c 1
 303 400 315 418 327 428 c 1
 343 451 363 470 386 486 c 0
 409 502 437 510 469 510 c 0
 485 510 498 507 509 501 c 0
 522 494 530 482 536 466 c 0
 542 450 545 429 545 406 c 0
 545 383 541 355 535 324 c 0
 527 281 519 226 512 161 c 0
 505 96 500 51 497 30 c 0
 494 10 488 -3 481 -11 c 0
 474 -19 466 -22 458 -22 c 1
 458 -31 456 -31 456 -23 c 1
 448 -23 442 -20 438 -14 c 0
 435 -10 433 -4 433 5 c 0
 433 10 433 16 434 21 c 0
 435 26 440 58 448 118 c 0
 455 175 463 222 470 258 c 0
 479 306 484 341 484 363 c 0
 484 368 483 373 483 377 c 0
 481 392 475 402 465 409 c 0
 458 414 448 417 436 417 c 0
 421 417 407 415 393 409 c 0
 379 403 368 396 357 387 c 0
 346 378 335 367 324 355 c 0
 313 343 304 332 297 321 c 0
 290 310 282 299 274 286 c 0
 264 253.5 264 253.5 247 177 c 0
 242 154 237 124 232 88 c 0
 227 52 223 30 221 20 c 0
 217 4 211 -7 202 -14 c 0
 195 -20 187 -22 178 -22 c 0
 169 -22 163 -19 159 -14 c 0
 155 -9 155 2 157 17 c 0
EndSplineSet
Validated: 1
EndChar

StartChar: o
Encoding: 111 111 89
Width: 700
GlyphClass: 2
Flags: HMW
HStem: -27 74<312 313> 472 46<369.5 424>
VStem: 144 70<156.5 163.5> 484 71<341 367>
LayerCount: 2
Fore
SplineSet
229 91 m 0
 237 78 249 68 264 61 c 0
 277 53 293 48 312 47 c 2
 319 47 l 2
 334 47 350 52 365 62 c 0
 380 72 394 85 406 104 c 0
 431 139 452 186 467 245 c 0
 478 289 484 326 484 356 c 0
 484 378 480 398 473 414 c 0
 464 435 451 451 432 461 c 0
 419 468 404 472 387 472 c 0
 352 472 322 452 297 412 c 0
 271 374 248 321 228 253 c 0
 218 214 214 183 214 161 c 0
 214 152 215 144 215 137 c 0
 217 119 221 104 229 91 c 0
534 224 m 0
 522 182 508 147 492 116 c 0
 476 85 455 59 433 37 c 0
 394 -5 344 -27 282 -27 c 0
 253 -27 228 -20 207 -5 c 0
 187 9 172 28 162 51 c 0
 150 80 144 113 144 150 c 0
 144 177 149 204 156 233 c 1
 156 234 l 1
 165 274 178 312 196 347 c 0
 214 382 235 412 259 437 c 0
 281 462 305 483 331 497 c 0
 357 511 385 518 414 518 c 0
 434 518 453 514 470 508 c 0
 487 502 503 492 517 478 c 0
 531 464 541 445 548 424 c 0
 553 406 555 384 555 358 c 0
 555 318 548 273 534 224 c 0
EndSplineSet
Validated: 1
EndChar

StartChar: p
Encoding: 112 112 90
Width: 700
GlyphClass: 2
Flags: HMW
HStem: -34 20G -31 70<289.5 334 289.5 348> 437 72<444.5 445.5>
VStem: 511 67<329 381.5>
LayerCount: 2
Fore
SplineSet
249 -20 m 1xb0
 245 -26 242 -24 237 -14 c 1
 228 -56 216 -102 205 -155 c 0
 194 -208 186 -242 183 -256 c 0
 180 -270 174 -280 167 -287 c 0
 160 -294 152 -297 144 -297 c 0
 137 -297 132 -294 129 -292 c 0
 124 -289 121 -283 121 -274 c 0
 121 -270 123 -265 123 -260 c 0
 134 -198 157 -90 189 61 c 0
 221 212 246 332 265 419 c 0
 272 454 278 478 282 492 c 0
 287 508 290 518 292 523 c 0
 297 532 304 538 312 543 c 0
 319 546 324 548 329 548 c 0
 336 548 342 545 345 539 c 0
 346 537 346 533 346 531 c 0
 346 529 346 525 345 523 c 0
 340 512 333 496 328 476 c 0
 326 473 323 462 321 443 c 1
 329 458 336 464 345 462 c 1
 387 493 427 509 462 509 c 0
 483 509 501 507 515 502 c 0
 529 497 542 489 552 477 c 0
 562 465 570 448 574 427 c 0
 577 411 578 392 578 371 c 0
 578 329 572 279 559 220 c 0
 554 198 548 174 538 151 c 0
 528 128 516 105 502 83 c 0
 488 61 472 42 455 25 c 0
 440 8 424 -6 405 -16 c 0
 386 -25 367 -31 348 -31 c 2x70
 334 -31 l 2
 294 -31 266 -27 249 -20 c 1xb0
375 419 m 0
 352 407 331 392 312 375 c 2
 308 372 l 1
 308 368 l 1
 298 311 l 2
 295 292 277 206 247 52 c 1
 255 48 l 2
 266 42 280 39 299 39 c 0
 318 39 337 39 357 40 c 0
 376 41 392 49 408 62 c 0
 424 75 438 92 449 113 c 0
 471 152 488 197 499 248 c 0
 506 285 511 316 511 342 c 0
 511 355 510 367 508 376 c 0
 506 391 500 403 493 413 c 0
 486 423 478 429 469 432 c 0
 460 435 451 437 440 437 c 0
 420 437 398 431 375 419 c 0
EndSplineSet
Validated: 1
EndChar

StartChar: q
Encoding: 113 113 91
Width: 700
GlyphClass: 2
Flags: HMW
HStem: -31 71<257 306 267 306> 417 53<391 445.5>
VStem: 146 72<112 162.5> 321 81 323 2
LayerCount: 2
Fore
SplineSet
146 122 m 0xf0
 146 142 149 161 154 181 c 0
 164 223 177 261 194 295 c 0
 211 329 228 357 248 378 c 0
 267 399 285 417 306 431 c 0
 327 445 346 455 367 461 c 0
 388 467 409 470 431 470 c 0
 460 470 484 465 505 455 c 0
 526 445 541 433 548 418 c 0
 552 411 554 403 554 395 c 0
 554 386 551 378 546 372 c 0
 541 367 536 364 530 362 c 1
 528 353 526 353 524 360 c 1
 491 218 470 129 461 92 c 0
 451 43 441 3 431 -30 c 0
 420 -83 410 -127 402 -162 c 1
 402 -163 l 1xf0
 393 -216 383 -261 374 -298 c 1
 323 -298 323 -298 323 -288 c 0xe8
 323 -284.837890625 321 -280 321 -275 c 0
 321 -270 322 -263 324 -255 c 0
 337 -205 357 -121 384 -3 c 1
 377 -15 371 -19 364 -14 c 1
 341 -25 311 -31 275 -31 c 2
 267 -31 l 2
 247 -31 229 -26 213 -18 c 0
 197 -10 185 2 175 16 c 0
 165 30 158 45 153 64 c 0
 148 83 146 102 146 122 c 0xf0
218 150 m 0
 218 135 219 122 221 109 c 0
 225 89 233 74 246 61 c 0
 259 48 275 41 293 40 c 2
 306 40 l 2
 339 40 367 46 392 61 c 2
 397 64 l 1
 406 106 432 216 474 394 c 1
 468 399 l 2
 458 406 448 411 437 413 c 0
 427 415 413 417 396 417 c 0
 386 417 375 415 364 411 c 0
 353 407 341 401 328 392 c 0
 315 383 303 371 292 357 c 0
 281 343 269 326 258 304 c 0
 246 282 236 257 229 230 c 0
 222 202 218 175 218 150 c 0
EndSplineSet
Validated: 1
EndChar

StartChar: r
Encoding: 114 114 92
Width: 700
GlyphClass: 2
Flags: HMW
HStem: 441 65
LayerCount: 2
Fore
SplineSet
158 62 m 0
 162 94 166 120 169 140 c 0
 178 184 192 245 213 320 c 0
 234 395 247 443 252 463 c 0
 257 482 264 495 273 503 c 0
 282 511 291 515 300 515 c 0
 307 515 312 512 314 507 c 0
 315 505 316 501 316 495 c 0
 316 489 315 481 313 472 c 0
 300 431 288 386 276 335 c 1
 289 359 301 379 314 396 c 0
 322 409 332 421 346 434 c 0
 360 447 375 459 394 470 c 0
 413 481 435 490 460 496 c 0
 487 503 512 506 537 506 c 2
 545 506 l 2
 546 503 547 498 548 492 c 0
 549 486 550 480 550 473 c 0
 550 466 549 458 549 451 c 0
 547 434 544 417 541 400 c 0
 538 383 534 370 529 360 c 0
 524 349 518 340 512 335 c 0
 506 330 499 325 490 323 c 2
 486 323 l 2
 481 323 477 325 475 328 c 0
 472 333 470 338 470 345 c 2
 470 349 l 2
 470 356 471 365 474 377 c 0
 477 389 479 400 479 409 c 0
 479 418 476 427 472 435 c 0
 472 443 470 445 469 441 c 1
 462 441 l 2
 441 441 422 436 403 427 c 0
 384 418 367 407 353 394 c 0
 339 381 325 366 312 350 c 0
 290 323 272 297 260 272 c 1
 251 235 244 207 241 187 c 0
 235 160 229 125 223 83 c 0
 220 54 216 31 213 14 c 0
 211 2 206 -7 201 -13 c 0
 195 -20 186 -24 174 -24 c 0
 164 -24 157 -22 153 -17 c 0
 151 -15 150 -11 150 -6 c 0
 150 -1 152 4 152 10 c 0
 154 21 156 38 158 62 c 0
EndSplineSet
Validated: 1
EndChar

StartChar: s
Encoding: 115 115 93
Width: 700
GlyphClass: 2
Flags: HMW
HStem: -35 63<255.5 301.5> 405 64<454 539 463 539>
VStem: 155 72 233 61<282.5 313> 453 65<140 162> 475 70<393 428 405 428>
LayerCount: 2
Fore
SplineSet
211 -26 m 0xf8
 195 -20 181 -10 171 3 c 0
 161 16 155 32 155 51 c 0
 155 81 164 101 183 110 c 0
 190 113 197 115 204 115 c 0
 209 115 215 112 219 108 c 0
 223 104 226 98 227 89 c 0
 228 80 230 74 231 69 c 0
 232 64 234 59 237 52 c 0
 240 45 245 40 251 37 c 0
 262 31 277 28 294 28 c 0
 309 28 327 33 348 42 c 0
 369 51 390 63 410 79 c 0
 431 96 445 113 451 131 c 0
 452 134 453 138 453 142 c 0xf8
 453 151 450 158 444 165 c 0
 437 173 426 180 413 185 c 0
 401 190 389 195 376 199 c 0
 373.1875 198.4375 370.41015625 198.15625 367.654296875 198.15625 c 0
 355.71484375 198.15625 344.1875 203.4375 332 214 c 1
 314 220 300 226 288 231 c 0
 262 242 245 253 238 264 c 0
 235 270 233 278 233 287 c 0
 233 296 234 306 236 317 c 0
 247 363 277 400 326 427 c 0
 373 455 444 469 539 469 c 1
 539 469 541 466 541 464 c 0
 541 462 543 457 544 449 c 0
 545 441 545 432 545 424 c 0
 545 416 545 407 544 396 c 0
 543 385 541 375 540 367 c 0
 538 359 536 352 535 346 c 0
 534 340 531 334 527 329 c 0
 523 324 517 321 511 319 c 0
 508 318 504 317 500 317 c 0
 496 317 493 318 490 320 c 0
 485 324 481 329 481 334 c 0
 477 354 475 373 475 393 c 2
 475 405 l 1xf4
 463 405 l 2
 445 405 428 403 410 400 c 0
 393 397 377 392 360 386 c 0
 343 380 329 370 317 359 c 0
 304 346 296 332 294 316 c 2
 294 313 l 2
 294 302 300 293 313 285 c 0
 326 277 345 268 372 261 c 0
 391 256 407 251 422 246 c 0
 438 241 454 234 469 226 c 0
 484 218 495 210 503 201 c 0
 511 192 515 182 517 171 c 0
 517 168 518 164 518 160 c 0
 518 151 516 142 513 132 c 0
 502 98 482 68 454 42 c 0
 427 17 398 -3 366 -16 c 0
 334 -29 301 -35 266 -35 c 0
 245 -35 227 -32 211 -26 c 0xf8
EndSplineSet
Validated: 1
EndChar

StartChar: t
Encoding: 116 116 94
Width: 700
GlyphClass: 2
Flags: HMW
HStem: -22 61<301 334 301 334> 422 59<476 497.5> 489 21G
VStem: 187 67<95.5 133>
LayerCount: 2
Fore
SplineSet
434 48 m 0
 434 37 430 27 421 17 c 0
 412 8 401 1 390 -4 c 0
 367 -16 340 -22 310 -22 c 2
 301 -22 l 2
 261 -20 230 -5 209 22 c 0
 199 35 193 53 190 74 c 0
 189 83 187 91 187 100 c 0
 187 115 190 131 193 149 c 0
 195 164 198 180 203 200 c 0
 208 223 213 239 215 247 c 0
 217 255 220 270 226 291 c 0
 232 312 236 325 237 332 c 0
 238 339 242 352 248 372 c 0
 254 392 259 409 264 426 c 1
 205 426 l 2
 199 426 195 427 193 429 c 0
 191 431 190 434 190 439 c 0
 190 444 191 450 192 456 c 0
 194 467 198 476 203 482 c 0
 208 488 216 491 226 491 c 0
 244 491 259 490 270 490 c 1
 273 494 278 494 281 489 c 1
 282 497 283 500 283 499 c 1
 296 548 306 601 313 657 c 0
 313 665 317 673 322 681 c 0
 327 688 331 691 336 691 c 0
 342 691 347 688 354 681 c 0
 359 676 363 671 363 666 c 0
 352 612 341 552 331 487 c 1
 428 483 482 481 494 481 c 0
 501 481 507 480 509 478 c 0
 511 476 512 472 512 465 c 0
 512 461 512 456 511 451 c 0
 509 442 503 434 498 429 c 0
 493 424 486 422 476 422 c 0
 417 424 366 424 319 424 c 1
 316 404 310 380 303 351 c 0
 295 322 289 302 287 291 c 0
 285 280 280 262 274 236 c 0
 268 210 263 195 263 191 c 0
 263 187 261 176 257 159 c 0
 255 148 254 138 254 128 c 0
 254 107 257 90 266 75 c 0
 279 53 300 40 327 39 c 2
 334 39 l 2
 361 39 391 47 422 63 c 0
 424 63 427 64 428 64 c 0
 429 64 430 63 430 63 c 2
 432 61 434 55 434 48 c 0
EndSplineSet
Validated: 1
EndChar

StartChar: u
Encoding: 117 117 95
Width: 700
GlyphClass: 2
Flags: HMW
HStem: -17 69<229.5 282>
VStem: 146 69<80 107.5>
LayerCount: 2
Fore
SplineSet
552 446 m 0
 552 436 547 414 540 381 c 0
 533 348 529 329 528 322 c 0
 516 264 494 164 461 23 c 0
 457 6 451 -5 444 -12 c 0
 437 -19 429 -23 421 -23 c 0
 419 -23 416 -24 416 -24 c 2
 409 -24 404 -22 401 -17 c 0
 398.856445312 -14.3203125 397.861328125 -9.91796875 397.861328125 -3.7919921875 c 0
 397.861328125 1.5126953125 398.607421875 8.1103515625 400 16 c 0
 404 28 407 48 411 77 c 1
 403.5 62.9375 396 55.90625 388.5 55.90625 c 2
 387 56 l 1
 372 43 358 31 341 20 c 0
 324 9 305 -1 283 -8 c 0
 266 -14 249 -17 232 -17 c 0
 227 -17 223 -16 218 -16 c 0
 202 -15 188 -7 175 6 c 0
 162 19 154 35 150 55 c 0
 148 66 146 75 146 85 c 0
 146 95 148 105 149 114 c 0
 156 160 166 213 180 274 c 0
 185 295 193 324 203 362 c 0
 213 400 220 426 222 441 c 0
 225 454 231 464 239 470 c 0
 247 476 254 479 263 479 c 0
 272 479 279 476 283 471 c 0
 285 469 285 464 285 458 c 0
 285 455 285 450 284 444 c 0
 283 438 278 418 269 381 c 0
 259 343 251 311 246 284 c 0
 230 215 221 163 217 126 c 0
 216 118 215 111 215 104 c 0
 215 86 218 73 226 65 c 0
 233 60 240 56 247 55 c 0
 254 54 262 52 271 52 c 0
 293 52 319 58 345 72 c 0
 371 86 397 102 420 122 c 1
 420 115 422 116 423 125 c 0
 433 167 443 218 455 278 c 0
 472 352 485 407 490 442 c 0
 492 453 497 462 505 468 c 0
 513 474 521 479 529 479 c 0
 537 479 544 477 549 471 c 0
 552 467 553 462 553 457 c 0
 553 454 553 450 552 446 c 0
EndSplineSet
Validated: 1
EndChar

StartChar: v
Encoding: 118 118 96
Width: 700
GlyphClass: 2
Flags: HMW
VStem: 162 70<415 453.5 421 453.5>
LayerCount: 2
Fore
SplineSet
537 462 m 2
 536 453 531 443 524 430 c 1
 524 436 523 436 523 430 c 0
 510 403 494 375 475 345 c 0
 456 313 427 261 386 188 c 0
 348 117 314 52 283 -7 c 0
 280 -16 274 -22 266 -25 c 0
 262 -26 259 -27 255 -27 c 0
 251 -27 247 -26 243 -24 c 0
 238 -20 234 -14 233 -7 c 0
 198 144 174 285 162 415 c 1
 162 421 l 2
 162 449 169 470 182 484 c 0
 186 488 191 492 196 494 c 0
 200 497 204 499 208 499 c 0
 211 499 215 497 218 495 c 0
 221 493 225 486 227 477 c 0
 230 470 232 460 232 447 c 0
 234 392 238 346 242 306 c 2
 246 264 l 2
 247 253 251 225 257 182 c 0
 264 135 268 110 268 107 c 0
 269 90 271 77 271 66 c 1
 277 71 283 81 289 95 c 0
 365 232 427 352 476 455 c 0
 486 477 496 491 507 498 c 0
 513 502 518 504 521 504 c 0
 524 504 528 503 530 501 c 0
 535 496 537 487 537 472 c 2
 537 462 l 2
EndSplineSet
Validated: 1
EndChar

StartChar: w
Encoding: 119 119 97
Width: 700
GlyphClass: 2
Flags: HMW
HStem: -6 21G<167 167>
VStem: 129 84 327 45<48.5 78> 353 43
LayerCount: 2
Fore
SplineSet
131 3 m 0xd0
 130 43 129 81 129 118 c 0
 129 239 137 347 152 442 c 0
 154 459 157 472 164 480 c 0
 172 491 183 496 194 496 c 0
 200 496 204 493 207 488 c 0
 210 483 213 475 213 462 c 2
 213 455 l 1
 201 371 188 246 175 80 c 0
 173 49 169 21 167 -6 c 1
 246 200 l 1
 292 335 324 422 340 460 c 0
 344 471 348 480 354 487 c 0
 360 495 367 499 375 499 c 0
 382 499 387 495 390 489 c 0
 393 485 396 475 396 459 c 0
 396 454 394 429 390 385 c 0
 387 341 384 288 380 226 c 0
 375 165 372 116 372 78 c 2xe0
 372 10 l 1
 379 27 386 47 393 69 c 0
 416 135 458 263 518 452 c 0
 523 471 530 483 537 489 c 0
 542 493 548 495 553 495 c 0
 555 495 557 494 559 494 c 0
 563 492 567 488 569 482 c 0
 571 478 572 472 572 465 c 0
 572 461 570 453 567 441 c 0
 545 373 516 295 482 208 c 0
 450 120 424 54 404 10 c 0
 398 -4 391 -14 383 -20 c 0
 376 -25 369 -27 360 -27 c 2
 357 -27 l 1
 356 -27 l 2
 349 -27 343 -24 338 -19 c 0
 334 -14 330 -5 329 9 c 0
 328 24 327 40 327 57 c 0
 327 99 333 165 343 252 c 0
 350 307 353 341 353 353 c 0
 354 380 357 405 359 428 c 1
 350 410 341 388 332 363 c 0
 322 337 310 301 295 255 c 0
 280 211 263 165 246 120 c 0
 227 76 210 34 190 -4 c 0
 186 -15 180 -23 173 -28 c 0
 166 -33 159 -36 154 -36 c 0
 149 -36 143 -33 138 -27 c 0
 133 -22 131 -12 131 3 c 0xd0
EndSplineSet
Validated: 1
EndChar

StartChar: x
Encoding: 120 120 98
Width: 700
GlyphClass: 2
Flags: HMW
HStem: -22 21G<450.5 456> 483 20G<275.5 277.5>
LayerCount: 2
Fore
SplineSet
137 -23 m 0
 134 -21 130 -17 127 -10 c 0
 125 -3 122 4 122 12 c 0
 122 22 128 34 141 48 c 0
 150 60 166 76 188 96 c 2
 261 175 l 2
 286 201 306 226 323 248 c 2
 327 254 l 1
 324 261 l 2
 313 290 300 322 281 359 c 0
 262 392 250 414 246 424 c 0
 242 432 241 439 241 446 c 0
 241 457 242 466 245 473 c 0
 247 479 252 485 257 491 c 0
 262 496 266 500 271 502 c 0
 272 502 275 503 276 503 c 0
 279 503 282 501 285 499 c 0
 290 495 296 488 300 477 c 0
 308 462 318 438 332 405 c 0
 346 372 358 340 368 311 c 2
 375 292 l 1
 392 315 422 356 464 413 c 0
 492 446 513 468 526 481 c 0
 541 498 553 506 563 506 c 0
 566 506 570 503 572 498 c 0
 576 490 577 481 577 471 c 0
 577 469 576 466 575 463 c 0
 573 458 568 452 561 447 c 2
 400 256 l 2
 398 254 393 250 390 248 c 2
 393 240 l 2
 402 216 413 192 424 170 c 0
 436 145 446 123 456 102 c 0
 467 84 477 69 482 56 c 0
 486 47 488 38 488 30 c 0
 488 23 487 17 486 12 c 0
 485 7 481 1 476 -6 c 0
 471 -13 467 -18 462 -20 c 0
 460 -21 457 -22 455 -22 c 0
 446 -22 438 -13 431 5 c 0
 399 71 372 132 351 188 c 2
 345 205 l 1
 333 191 l 2
 313 165 284 128 245 80 c 1
 203 36 178 9 170 0 c 0
 162 -11 155 -18 148 -21 c 0
 145 -23 141 -24 140 -24 c 0
 139 -24 137 -24 137 -23 c 0
EndSplineSet
Validated: 1
EndChar

StartChar: y
Encoding: 121 121 99
Width: 700
GlyphClass: 2
Flags: HMW
VStem: 211 64<430 470.5 442 470.5> 274 1<448.5 472.5>
LayerCount: 2
Fore
SplineSet
590 441 m 0x80
 568 401 535 348 493 280 c 0
 453 212 416 148 381 88 c 0
 324 -13 268 -109 211 -200 c 2
 147 -296 l 2
 140 -306 131 -313 122 -316 c 0
 120 -316 117 -317 115 -317 c 0
 111 -317 107 -316 103 -312 c 0
 98 -307 96 -300 96 -292 c 0
 96 -289 97 -285 97 -282 c 0
 97 -275 101 -268 107 -260 c 0
 166 -177 222 -88 277 6 c 1
 244 169 222 310 211 430 c 1
 211 442 l 2
 211 451 212 459 214 466 c 0
 217 476 221 484 225 489 c 0
 229 494 235 499 240 501 c 0
 245 504 249 506 254 506 c 0
 256 506 259 505 262 504 c 0
 265 503 268 499 270 493 c 0
 272 487 274 478 274 467 c 1x40
 274 474 275 474 275 467 c 0
 275 430 279 387 284 340 c 0
 289 293 295 256 299 228 c 0
 303 200 311 151 322 84 c 1
 327 92 333 101 338 110 c 0
 422 255 489 374 539 468 c 0
 545 479 551 488 557 495 c 0
 563 502 568 506 573 508 c 0
 578 510 582 511 585 511 c 0
 588 511 592 510 594 509 c 0
 596 507 599 504 600 502 c 0
 602 497 604 490 604 482 c 0
 604 480 603 475 602 469 c 0
 600 460 596 451 590 441 c 0x80
EndSplineSet
Validated: 1
EndChar

StartChar: z
Encoding: 122 122 100
Width: 700
GlyphClass: 2
Flags: HMW
HStem: 9 57<223.5 254> 417 61<338 464>
LayerCount: 2
Fore
SplineSet
458 13 m 0
 452 6 443 3 430 3 c 0
 426 3 403 4 360 6 c 0
 317 8 275 9 233 9 c 0
 214 9 188 8 153 7 c 0
 151 7 148 8 147 9 c 0
 146 10 143 15 142 20 c 0
 141 25 139 31 139 37 c 0
 139 46 141 54 145 61 c 0
 147 65 153 73 162 83 c 0
 171 93 184 106 202 122 c 0
 213 133 241 157 283 197 c 0
 322 237 358 275 395 313 c 0
 432 350 460 379 479 399 c 2
 500 421 l 1
 470 420 l 2
 427 418 390 417 360 417 c 0
 316 417 282 419 262 424 c 0
 256 425 252 428 249 430 c 0
 246 432 244 437 244 442 c 0
 244 444 245 448 245 452 c 0
 247 464 253 474 260 482 c 0
 264 487 269 490 275 490 c 0
 276 490 278 489 279 489 c 0
 335 482 391 478 447 478 c 0
 481 478 515 479 548 481 c 2
 549 481 l 2
 551 481 552 480 553 479 c 0
 554 478 556 475 557 473 c 0
 559 468 560 463 560 456 c 0
 560 452 559 448 559 444 c 0
 559 440 555 433 549 423 c 0
 543 413 531 399 516 379 c 0
 494 350 469 322 441 295 c 0
 416 268 394 245 374 226 c 2
 303 159 l 2
 275 132 250 108 228 87 c 2
 206 66 l 1
 449 66 l 2
 460 64 468 60 470 56 c 0
 472 54 473 50 473 48 c 0
 473 46 472 43 472 40 c 0
 470 29 465 20 458 13 c 0
EndSplineSet
Validated: 1
EndChar

StartChar: braceleft
Encoding: 123 123 101
Width: 700
GlyphClass: 2
Flags: HMW
HStem: -87 60<336.5 371> 332 76<126.5 153.5> 778 60<536 549.5>
VStem: 167 68<13.5 47> 277 65<271 292.5 275 292.5> 300 69<571.5 615> 318 69<472 488 481 483.5>
LayerCount: 2
Fore
SplineSet
394 -46 m 0xf8
 394 -48 393 -50 393 -52 c 0
 391 -61 385 -70 378 -77 c 0
 372 -84 363 -87 351 -87 c 0
 322 -87 295 -85 271 -79 c 0
 247 -73 226 -65 209 -54 c 0
 192 -43 180 -30 173 -13 c 0
 169 -3 167 8 167 19 c 0
 167 27 168 35 170 44 c 0
 174 62 179 79 187 96 c 0
 195 113 203 128 211 141 c 2
 211 141 219 155 236 182 c 0
 245 195 253 210 260 225 c 0
 267 240 273 256 277 271 c 1
 277 275 l 2
 277 285 269 295 251 306 c 0
 233 316 209 323 180 328 c 0
 163 330 146 332 128 332 c 0
 125 332 121 333 118 334 c 0
 115 335 113 339 110 344 c 0
 107 349 105 354 105 361 c 0
 105 364 106 368 106 371 c 0
 108 382 113 391 120 398 c 0
 127 405 136 408 145 408 c 0
 162 408 177 409 190 410 c 0
 203 411 217 413 232 415 c 0
 247 417 259 420 270 424 c 0
 281 428 292 435 301 443 c 0
 310 451 316 461 318 472 c 2xf2
 318 481 l 2
 318 486 316 494 314 503 c 0
 312 512 309 523 305 534 c 0
 301 545 300 561 300 582 c 0xf4
 300 601 302 621 307 642 c 0
 321 702 351 750 398 785 c 0
 445 820 502 838 570 838 c 0
 579 838 586 836 591 831 c 0
 593 828 595 824 595 821 c 0
 595 812 589 802 575 791 c 0
 563 782 553 778 546 778 c 0
 502 778 464 768 433 746 c 0
 391 716 369 672 369 615 c 2
 369 601 l 2
 370 580 372 562 376 547 c 0
 380 532 384 520 385 509 c 0
 386 498 387 491 387 488 c 2xf2
 387 481 l 2
 385 470 378 459 369 449 c 0xf4
 360 439 349 429 336 421 c 0
 309 404 280 393 249 386 c 2
 206 377 l 1
 248 363 l 2
 279 352 303 339 321 322 c 0
 335 309 342 297 342 288 c 0
 342 287 341 285 341 284 c 0
 339 270 333 256 326 241 c 0
 319 226 311 213 303 200 c 0
 295 187 287 173 279 159 c 0
 271 145 262 129 254 111 c 0
 246 93 240 76 236 57 c 0
 236 53 235 49 235 45 c 0
 235 35 238 26 244 17 c 0
 252 6 263 -2 276 -8 c 0
 289 -14 304 -19 319 -22 c 0
 334 -25 350 -27 366 -27 c 0
 376 -27 384 -30 389 -35 c 0
 392 -37 394 -41 394 -46 c 0xf8
EndSplineSet
Validated: 1
EndChar

StartChar: bar
Encoding: 124 124 102
Width: 700
GlyphClass: 2
Flags: HMW
VStem: 208 284
LayerCount: 2
Fore
SplineSet
490 789 m 2
 388 367 l 2
 321 92 282 -76 269 -138 c 0
 265 -150 259 -160 250 -166 c 0
 241 -172 233 -175 224 -175 c 2
 222 -175 l 2
 219 -175 216 -174 214 -173 c 0
 212 -172 210 -171 209 -169 c 0
 208 -167 208 -164 208 -159 c 0
 208 -154 210 -148 212 -139 c 0
 220 -112 240 -34 271 96 c 2
 370 513 l 2
 405 661 426 750 433 780 c 0
 437 795 443 805 449 813 c 0
 455 821 463 825 472 825 c 2
 475 825 l 2
 482 825 487 823 489 820 c 0
 491 817 492 813 492 808 c 0
 492 803 491 796 490 789 c 2
EndSplineSet
Validated: 1
EndChar

StartChar: braceright
Encoding: 125 125 103
Width: 700
GlyphClass: 2
Flags: HMW
HStem: -87 60<148.5 162> 353 77 778 60<327.5 362.5>
VStem: 314 69<268.5 281.5> 330 69<130.5 184.5> 359 65<468.5 487> 464 68<704 737.5>
LayerCount: 2
Fore
SplineSet
391 109 m 0xea
 377 49 347 1 300 -34 c 0
 253 -69 196 -87 128 -87 c 0
 119 -87 113 -85 108 -80 c 0
 106 -77 104 -73 104 -70 c 2
 104 -66 l 2
 106 -57 113 -49 124 -40 c 0
 135 -31 145 -27 152 -27 c 0
 197 -27 235 -16 266 5 c 0
 297 26 316 56 325 92 c 0
 328 107 330 122 330 139 c 0
 330 142 329 146 329 151 c 0
 329 172 326 191 323 208 c 0
 317 243 314 264 314 273 c 0xf2
 314 277 315 280 315 281 c 0
 317 292 322 303 331 313 c 0
 340 323 352 332 365 340 c 0
 392 356 421 368 452 375 c 2
 494 385 l 1
 454 399 l 2
 423 410 398 423 380 440 c 0
 366 453 359 464 359 473 c 0xe6
 359 474 360 476 360 477 c 0
 363 492 368 506 375 520 c 0
 382 534 388 546 396 558 c 0
 404 570 412 583 420 596 c 0
 428 609 437 624 444 641 c 0
 451 658 457 675 462 694 c 0
 463 698 464 702 464 706 c 0
 464 716 461 725 455 734 c 0
 448 745 437 753 423 759 c 0
 409 765 395 770 379 773 c 0
 363 776 348 778 332 778 c 0
 323 778 315 781 310 786 c 0
 307 789 305 793 305 797 c 0
 305 799 306 801 306 803 c 0
 308 812 313 821 320 828 c 0
 327 835 337 838 348 838 c 0
 377 838 403 835 427 829 c 0
 451 823 472 815 490 804 c 0
 507 794 519 781 526 764 c 0
 530 754 532 743 532 732 c 0
 532 724 531 716 529 707 c 0
 525 689 519 672 512 656 c 0
 505 640 497 625 489 613 c 0
 481 601 473 589 464 576 c 0
 455 563 447 550 440 536 c 0
 433 522 427 506 424 491 c 2
 424 487 l 2
 424 481 426 476 431 471 c 0
 436 466 442 461 450 456 c 0
 458 451 468 447 479 443 c 0
 490 439 504 436 521 434 c 0
 538 432 555 430 573 430 c 0
 576 430 580 429 583 428 c 0
 586 427 589 423 592 418 c 0
 595 413 597 408 597 401 c 2
 595 391 l 2
 593 380 587 371 581 364 c 0
 575 357 567 354 557 354 c 0
 540 354 524 354 511 353 c 0
 498 352 484 350 469 348 c 0
 454 346 441 341 430 337 c 0
 419 333 410 327 401 319 c 0
 392 311 386 301 384 290 c 0
 384 288 383 284 383 279 c 0xf2
 383 274 384 267 386 257 c 0
 388 247 391 236 394 224 c 0
 397 212 399 195 399 174 c 0
 399 153 396 131 391 109 c 0xea
EndSplineSet
Validated: 1
EndChar

StartChar: asciitilde
Encoding: 126 126 104
Width: 700
GlyphClass: 2
Flags: HMW
HStem: 276 81<397.5 428> 437 82<263 293.5>
LayerCount: 2
Fore
SplineSet
595 496 m 2
 595 493 l 2
 595 485 590 472 581 452 c 0
 577 444 573 434 566 423 c 0
 533 368 501 328 470 304 c 0
 446 285 424 276 403 276 c 0
 392 276 382 278 374 282 c 0
 366 286 358 291 352 299 c 0
 346 307 341 317 337 327 c 0
 333 337 328 350 323 367 c 0
 318 384 315 394 314 396 c 0
 313 398 311 403 309 409 c 0
 307 415 304 420 302 422 c 0
 300 422 298 425 296 427 c 0
 291 432 286 435 281 436 c 0
 277 436 272 437 266 437 c 0
 260 437 255 436 249 434 c 0
 243 432 238 427 232 422 c 0
 226 417 222 412 218 407 c 0
 210 397 192 369 167 324 c 0
 160 312 151 301 137 292 c 0
 126 285 118 282 112 282 c 2
 110 282 l 2
 109 282 107 286 106 292 c 0
 106 294 104 297 104 300 c 0
 104 303 107 310 110 320 c 0
 141 383 172 433 206 468 c 0
 239 502 267 519 289 519 c 0
 298 519 306 519 312 518 c 0
 318 517 324 515 330 513 c 0
 336 511 341 506 345 501 c 0
 349 496 353 489 357 479 c 0
 361 469 365 458 369 444 c 2
 373 426 l 2
 374 419 377 413 378 409 c 0
 382 394 385 385 388 380 c 0
 390 377 393 373 395 370 c 0
 399 365 403 360 408 359 c 0
 413 358 419 357 424 357 c 2
 428 357 l 1
 442 357 l 2
 445 357 449 359 455 360 c 0
 461 361 466 365 470 369 c 0
 474 373 480 378 485 384 c 0
 495 395 508 413 525 440 c 0
 536 457 547 472 560 485 c 0
 567 492 573 498 580 500 c 0
 582 500 586 501 588 501 c 0
 593 501 595 500 595 496 c 2
110 282 m 1024
EndSplineSet
Validated: 1
EndChar

StartChar: lambda
Encoding: 955 955 113
Width: 700
GlyphClass: 2
Flags: HMW
HStem: -28.1074 21G
LayerCount: 2
Fore
SplineSet
146.424804688 -28.107421875 m 0
 141.091796875 -28.107421875 135.774414062 -26.4423828125 130.470703125 -23.109375 c 0
 124.360351562 -20.4423828125 119.994140625 -16.609375 117.372070312 -11.609375 c 0
 114.75 -6.609375 114.149414062 0.890625 115.571289062 10.890625 c 0
 115.989257812 12.890625 116.07421875 14.890625 115.825195312 16.890625 c 0
 117.635742188 25.5576171875 121.98828125 35.224609375 128.883789062 45.8916015625 c 0
 196.58984375 162.55859375 286.473632812 299.225585938 398.536132812 455.892578125 c 1
 377.228515625 548.559570312 353.194335938 634.559570312 326.435546875 713.892578125 c 0
 323.966796875 721.225585938 323.360351562 727.892578125 324.61328125 733.892578125 c 2
 325.03125 735.892578125 l 2
 327.23046875 743.225585938 330.38671875 749.55859375 334.5 754.891601562 c 0
 338.614257812 760.224609375 343.756835938 764.891601562 349.924804688 768.891601562 c 0
 358.372070312 774.224609375 365.859375 776.557617188 372.387695312 775.890625 c 0
 375.720703125 775.890625 378.983398438 775.557617188 382.177734375 774.890625 c 0
 391.481445312 771.557617188 397.3515625 764.557617188 399.790039062 753.890625 c 0
 405.194335938 731.890625 413.579101562 700.223632812 424.944335938 658.890625 c 0
 450.170898438 572.223632812 473.7421875 479.223632812 495.658203125 379.890625 c 0
 510.208007812 321.890625 526.325195312 260.223632812 544.008789062 194.890625 c 0
 561.693359375 129.557617188 574.56640625 77.890625 582.627929688 39.890625 c 0
 585.06640625 29.2236328125 585.450195312 19.890625 583.778320312 11.890625 c 0
 582.107421875 3.890625 579.381835938 -2.7763671875 575.600585938 -8.109375 c 0
 568.84375 -18.109375 560.381835938 -25.109375 550.212890625 -29.109375 c 0
 540.044921875 -33.109375 530.044921875 -33.109375 520.212890625 -29.109375 c 0
 515.297851562 -27.109375 511.203125 -22.7763671875 507.928710938 -16.109375 c 0
 503.849609375 -10.109375 500.922851562 -1.7763671875 499.151367188 8.890625 c 0
 483.42578125 99.5576171875 458.256835938 215.224609375 423.64453125 355.891601562 c 0
 423.623046875 368.55859375 422.209960938 374.55859375 419.403320312 373.891601562 c 0
 382.092773438 316.55859375 354.58203125 274.225585938 336.872070312 246.892578125 c 0
 319.162109375 219.559570312 296.834960938 182.892578125 269.891601562 136.892578125 c 0
 242.420898438 91.5595703125 219.258789062 50.892578125 200.404296875 14.892578125 c 0
 194.564453125 2.892578125 188.31640625 -6.2744140625 181.66015625 -12.607421875 c 0
 175.004882812 -18.9404296875 168.80078125 -23.107421875 163.049804688 -25.107421875 c 0
 157.299804688 -27.107421875 151.7578125 -28.107421875 146.424804688 -28.107421875 c 0
EndSplineSet
Validated: 1
EndChar

StartChar: endash
Encoding: 8211 8211 114
Width: 700
GlyphClass: 2
Flags: HMW
HStem: 261 63<197.5 243.5>
LayerCount: 2
Fore
SplineSet
182 276 m 0
 182 280 183 285 184 290 c 0
 186 301 189 309 194 314 c 0
 200 321 209 324 220 324 c 0
 267 324 322 323 387 322 c 0
 452 321 490 320 500 320 c 0
 510 320 515 318 516 316 c 0
 518 312 518 306 517 298 c 0
 515 287 510 278 505 273 c 0
 499 267 491 264 480 264 c 0
 313 262 220 261 201 261 c 0
 194 261 190 262 187 264 c 0
 184 266 182 270 182 276 c 0
EndSplineSet
Validated: 1
EndChar

StartChar: emdash
Encoding: 8212 8212 115
Width: 700
GlyphClass: 2
Flags: HMW
HStem: 261 61<143.5 165>
LayerCount: 2
Fore
SplineSet
127 276 m 0
 127 280 128 284 129 289 c 0
 131 300 134 308 139 313 c 0
 144 319 152 322 163 322 c 2
 165 322 l 2
 222 322 269 321 308 321 c 0
 347 321 398 322 462 322 c 0
 512 322 543 323 553 323 c 0
 563 323 569 321 571 318 c 0
 573 313 573 307 572 298 c 0
 570 287 565 278 560 273 c 0
 554 267 545 264 534 264 c 0
 303 262 174 261 147 261 c 0
 140 261 135 262 132 264 c 0
 129 266 127 270 127 276 c 0
EndSplineSet
Validated: 1
EndChar

StartChar: quoteleft
Encoding: 8216 8216 116
Width: 700
GlyphClass: 2
Flags: HMW
HStem: 495 235<346 348 343 349.5>
VStem: 295 69<684.5 718.5> 295 111
LayerCount: 2
Fore
SplineSet
327 512 m 0xc0
 321 533 315 560 309 594 c 0
 303 628 298 657 296 680 c 0
 296 682 295 684 295 685 c 0
 295 693 298 700 303 707 c 0
 309 716 315 722 324 725 c 0
 333 728 340 730 346 730 c 0
 350 730 355 729 358 727 c 0
 361 725 364 721 364 716 c 0
 368 681 382 624 405 547 c 0
 405 545 406 541 406 539 c 0xa0
 406 526 393 514 367 501 c 0
 359 497 352 495 347 495 c 0
 345 495 344 496 342 496 c 0
 340 496 337 498 334 500 c 0
 331 502 328 507 327 512 c 0xc0
EndSplineSet
Validated: 1
EndChar

StartChar: quoteright
Encoding: 8217 8217 117
Width: 700
GlyphClass: 2
Flags: HMW
HStem: 467 252<281.5 416.5>
VStem: 258 184
LayerCount: 2
Fore
SplineSet
258 502 m 0
 258 510 261 518 267 526 c 0
 282 546 302 574 327 611 c 0
 352 648 370 679 383 701 c 0
 388 708 393 713 398 715 c 0
 403 717 409 719 414 719 c 0
 419 719 425 717 431 714 c 0
 436 712 440 707 442 700 c 2
 442 694 l 2
 442 690 440 683 436 674 c 0
 387 588 351 530 328 499 c 0
 318 485 307 476 296 471 c 0
 291 469 286 467 283 467 c 0
 280 467 277 468 275 469 c 0
 268 473 262 481 259 493 c 0
 259 496 258 500 258 502 c 0
EndSplineSet
Validated: 1
EndChar

StartChar: quotesinglbase
Encoding: 8218 8218 118
Width: 700
GlyphClass: 2
Flags: HMW
VStem: 308 83 324 68<502 528.001 523.001 528.001 523.001 528.5>
LayerCount: 2
Fore
SplineSet
324 512 m 2x40
 324 545 319 601.001953125 308 683.001953125 c 0x80
 308 686.001953125 307 689.001953125 307 689.001953125 c 2
 307 691.001953125 308 693.001953125 309 696.001953125 c 0
 310 699.001953125 313 703.001953125 315 706.001953125 c 0
 317 709.001953125 321 712.001953125 325 714.001953125 c 0
 329 716.001953125 334 720.001953125 338 721.001953125 c 0
 342 722.001953125 345 724.001953125 350 724.001953125 c 0
 358 726.001953125 365 728.001953125 370 728.001953125 c 0
 372 728.001953125 376 727.001953125 379 724.001953125 c 0
 382 721.001953125 385 715.001953125 386 708.001953125 c 0
 388 684.001953125 390 654.001953125 391 618.001953125 c 0
 391.70703125 592.545898438 392.4140625 569.58984375 392.4140625 550.194335938 c 0
 392.4140625 542.16015625 392.29296875 534.737304688 392 528.000976562 c 0
 392 518.000976562 389 509.000976562 382 502.000976562 c 0
 375 495.000976562 367 490.000976562 359 488.000976562 c 0
 352.452148438 486.69140625 346.666992188 485.953125 341.810546875 485.953125 c 0
 335.540039062 485.953125 330.817382812 487.182617188 328 490 c 0
 326 492 324 497 324 502 c 2
 324 512 l 2x40
EndSplineSet
Validated: 1
EndChar

StartChar: quotedblleft
Encoding: 8220 8220 119
Width: 700
GlyphClass: 2
Flags: HMW
VStem: 218 69<673.5 707.5> 218 112 370 69<723 761.5 728 761.5>
LayerCount: 2
Fore
SplineSet
403 554 m 0x20
 397 575 391 603 384 637 c 0
 377 671 372 700 370 723 c 2
 370 728 l 2
 370 736 373 743 378 750 c 0
 384 759 392 765 400 768 c 0
 408 771 415 773 421 773 c 0
 425 773 428 772 432 770 c 0
 436 768 439 764 439 759 c 0
 443 724 457 667 480 590 c 0
 481 588 482 584 482 582 c 0
 482 569 468 557 442 544 c 0
 435 540 428 538 422 538 c 0
 420 538 418 539 416 539 c 0
 414 539 411 540 409 542 c 0
 407 544 405 549 403 554 c 0x20
251 501 m 0
 245 522 239 549 233 583 c 0
 227 617 221 647 219 670 c 0
 219 671 218 673 218 674 c 0xa0
 218 682 221 689 226 696 c 0
 232 705 239 711 248 714 c 0
 257 717 264 719 270 719 c 0
 274 719 278 718 281 716 c 0
 284 714 287 710 287 705 c 0
 292 670 306 613 329 536 c 0
 329 534 330 530 330 528 c 0x60
 330 515 317 503 291 490 c 0
 283 487 276 485 271 485 c 2
 265 485 l 2
 263 485 261 487 258 489 c 0
 255 491 252 496 251 501 c 0
EndSplineSet
Validated: 1
EndChar

StartChar: quotedblright
Encoding: 8221 8221 120
Width: 700
GlyphClass: 2
Flags: HMW
HStem: 467 306<347.5 356.5> 699 20G<477.5 482.5>
VStem: 192 316<548 695>
LayerCount: 2
Fore
SplineSet
382 748 m 0xa0
 382 742 380 735 375 728 c 0
 326 642 290 583 268 552 c 0
 261 543 254 537 246 532 c 0
 238 527 231 524 226 524 c 0
 221 524 216 525 212 527 c 0
 199 536 192 544 192 552 c 0
 192 557 195 563 200 570 c 0
 215 589 236 618 263 660 c 0
 290 700 309 732 322 755 c 0
 326 762 331 767 337 769 c 0
 343 771 349 773 354 773 c 0
 359 773 365 771 371 768 c 0
 376 766 379 761 381 754 c 0
 381 752 382 750 382 748 c 0xa0
464 715 m 0
 470 717 475 719 480 719 c 0x60
 485 719 491 717 497 714 c 0
 502 712 506 707 508 700 c 2
 508 695 l 2
 508 691 506 684 502 674 c 0
 453 588 417 529 395 498 c 0
 384 485 373 476 362 471 c 0
 357 469 352 467 349 467 c 0
 346 467 343 468 341 469 c 0
 334 473 328 481 325 493 c 0
 325 496 324 500 324 502 c 0
 324 507 328 515 333 526 c 0
 349 546 369 574 393 611 c 0
 417 648 436 679 449 701 c 0
 453 708 458 713 464 715 c 0
EndSplineSet
Validated: 1
EndChar

StartChar: bullet
Encoding: 8226 8226 121
Width: 700
GlyphClass: 2
Flags: HMW
HStem: 348 159<311 377 320 377>
VStem: 268 164<397 460.5>
LayerCount: 2
Fore
SplineSet
268 404 m 0
 268 435 282 460 310 481 c 0
 331 497 353 506 374 507 c 2
 377 507 l 2
 397 507 412 500 421 487 c 0
 428 478 432 467 432 454 c 0
 432 447 431 440 429 433 c 0
 424 411 412 391 394 375 c 0
 376 359 354 350 329 348 c 2
 320 348 l 2
 302 348 289 354 280 367 c 0
 272 378 268 390 268 404 c 0
EndSplineSet
Validated: 1
EndChar
